ISO-10303-21;
HEADER;
/* Generated by software containing ST-Developer
 * from STEP Tools, Inc. (www.steptools.com) 
 */
/* OPTION: using custom schema-name function */

FILE_DESCRIPTION(
/* description */ (''),
/* implementation_level */ '2;1');

FILE_NAME(
/* name */ 'Onderkant.stp',
/* time_stamp */ '2026-06-10T21:23:31+02:00',
/* author */ (''),
/* organization */ (''),
/* preprocessor_version */ 'ST-DEVELOPER v20',
/* originating_system */ 'SIEMENS PLM Software NX2506.4001',
/* authorisation */ '');

FILE_SCHEMA (('AUTOMOTIVE_DESIGN { 1 0 10303 214 3 1 1 1 }'));
ENDSEC;

DATA;
#10=PROPERTY_DEFINITION_REPRESENTATION(#14,#12);
#11=PROPERTY_DEFINITION_REPRESENTATION(#15,#13);
#12=REPRESENTATION('',(#16),#1332);
#13=REPRESENTATION('',(#17),#1332);
#14=PROPERTY_DEFINITION('pmi validation property','',#21);
#15=PROPERTY_DEFINITION('pmi validation property','',#21);
#16=VALUE_REPRESENTATION_ITEM('number of annotations',COUNT_MEASURE(0.));
#17=VALUE_REPRESENTATION_ITEM('number of views',COUNT_MEASURE(0.));
#18=SHAPE_REPRESENTATION_RELATIONSHIP('None',
'relationship between Onderkant_objects-None and Onderkant_objects-Non
e',#30,#19);
#19=ADVANCED_BREP_SHAPE_REPRESENTATION('Onderkant_objects-None',(#40),#1332);
#20=SHAPE_DEFINITION_REPRESENTATION(#21,#30);
#21=PRODUCT_DEFINITION_SHAPE('','',#22);
#22=PRODUCT_DEFINITION(' ','',#24,#23);
#23=PRODUCT_DEFINITION_CONTEXT('part definition',#29,'design');
#24=PRODUCT_DEFINITION_FORMATION_WITH_SPECIFIED_SOURCE(' ',' ',#26,
 .NOT_KNOWN.);
#25=PRODUCT_RELATED_PRODUCT_CATEGORY('part','',(#26));
#26=PRODUCT('Onderkant_objects','Onderkant_objects',' ',(#27));
#27=PRODUCT_CONTEXT(' ',#29,'mechanical');
#28=APPLICATION_PROTOCOL_DEFINITION('international standard',
'automotive_design',2010,#29);
#29=APPLICATION_CONTEXT(
'core data for automotive mechanical design processes');
#30=SHAPE_REPRESENTATION('Onderkant_objects-None',(#449),#1332);
#31=PRESENTATION_LAYER_ASSIGNMENT('1','Layer 1',(#40));
#32=STYLED_ITEM('',(#33),#40);
#33=PRESENTATION_STYLE_ASSIGNMENT((#34));
#34=SURFACE_STYLE_USAGE(.BOTH.,#35);
#35=SURFACE_SIDE_STYLE('',(#36));
#36=SURFACE_STYLE_FILL_AREA(#37);
#37=FILL_AREA_STYLE('',(#38));
#38=FILL_AREA_STYLE_COLOUR('',#39);
#39=COLOUR_RGB('medium steel',0.596078431372549,0.666666666666667,0.686274509803922);
#40=MANIFOLD_SOLID_BREP('',#41);
#41=CLOSED_SHELL('',(#101,#102,#103,#104,#105,#106,#107,#108,#109,#110,
#111,#112,#113,#114,#115,#116,#117,#118,#119,#120,#121,#122,#123,#124,#125));
#42=LINE('',#1266,#54);
#43=LINE('',#1270,#55);
#44=LINE('',#1275,#56);
#45=LINE('',#1276,#57);
#46=LINE('',#1290,#58);
#47=LINE('',#1291,#59);
#48=LINE('',#1302,#60);
#49=LINE('',#1303,#61);
#50=LINE('',#1321,#62);
#51=LINE('',#1322,#63);
#52=LINE('',#1324,#64);
#53=LINE('',#1325,#65);
#54=VECTOR('',#544,1.);
#55=VECTOR('',#547,1.);
#56=VECTOR('',#552,1.);
#57=VECTOR('',#553,1.);
#58=VECTOR('',#572,1.);
#59=VECTOR('',#573,1.);
#60=VECTOR('',#586,1.);
#61=VECTOR('',#587,1.);
#62=VECTOR('',#614,1.);
#63=VECTOR('',#615,1.);
#64=VECTOR('',#618,1.);
#65=VECTOR('',#619,1.);
#66=PLANE('',#467);
#67=PLANE('',#474);
#68=PLANE('',#479);
#69=PLANE('',#485);
#70=PLANE('',#492);
#71=PLANE('',#498);
#72=SURFACE_OF_REVOLUTION('',#448,#73);
#73=AXIS1_PLACEMENT('',#1259,#535);
#74=CYLINDRICAL_SURFACE('',#460,32.5);
#75=CYLINDRICAL_SURFACE('',#469,20.5);
#76=CYLINDRICAL_SURFACE('',#471,32.5);
#77=CYLINDRICAL_SURFACE('',#480,32.5);
#78=CYLINDRICAL_SURFACE('',#486,32.5);
#79=CYLINDRICAL_SURFACE('',#488,32.5);
#80=CYLINDRICAL_SURFACE('',#494,32.5);
#81=CYLINDRICAL_SURFACE('',#499,20.5);
#82=CYLINDRICAL_SURFACE('',#500,20.5);
#83=CYLINDRICAL_SURFACE('',#501,109.8);
#84=CYLINDRICAL_SURFACE('',#502,109.8);
#85=CYLINDRICAL_SURFACE('',#503,109.8);
#86=CYLINDRICAL_SURFACE('',#504,15.);
#87=(
BOUNDED_SURFACE()
B_SPLINE_SURFACE(3,3,((#1126,#1127,#1128,#1129,#1130,#1131,#1132),(#1133,
#1134,#1135,#1136,#1137,#1138,#1139),(#1140,#1141,#1142,#1143,#1144,#1145,
#1146),(#1147,#1148,#1149,#1150,#1151,#1152,#1153),(#1154,#1155,#1156,#1157,
#1158,#1159,#1160),(#1161,#1162,#1163,#1164,#1165,#1166,#1167)),
 .UNSPECIFIED.,.F.,.T.,.F.)
B_SPLINE_SURFACE_WITH_KNOTS((4,2,4),(1,3,3,3,1),(0.,0.5,1.),(-0.5,0.,0.5,
1.,1.5),.UNSPECIFIED.)
GEOMETRIC_REPRESENTATION_ITEM()
RATIONAL_B_SPLINE_SURFACE(((1.,0.333333333333333,0.333333333333333,1.,0.333333333333333,
0.333333333333333,1.),(1.,0.333333333333333,0.333333333333333,1.,0.333333333333333,
0.333333333333333,1.),(1.,0.333333333333333,0.333333333333333,1.,0.333333333333333,
0.333333333333333,1.),(1.,0.333333333333333,0.333333333333333,1.,0.333333333333333,
0.333333333333333,1.),(1.,0.333333333333333,0.333333333333333,1.,0.333333333333333,
0.333333333333333,1.),(1.,0.333333333333333,0.333333333333333,1.,0.333333333333333,
0.333333333333333,1.)))
REPRESENTATION_ITEM('')
SURFACE()
);
#88=VERTEX_LOOP('',#346);
#89=VERTEX_LOOP('',#348);
#90=B_SPLINE_SURFACE_WITH_KNOTS('',1,3,((#815,#816,#817,#818,#819,#820,
#821,#822,#823,#824,#825,#826,#827,#828,#829,#830,#831,#832,#833,#834,#835,
#836,#837,#838,#839,#840,#841,#842,#843,#844,#845,#846,#847,#848,#849,#850,
#851,#852,#853,#854,#855,#856,#857,#858,#859,#860,#861,#862,#863,#864,#865,
#866,#867,#868,#869,#870,#871,#872,#873,#874,#875,#876,#877,#878,#879,#880,
#881,#882,#883,#884,#885,#886,#887,#888,#889,#890,#891,#892,#893,#894,#895,
#896,#897,#898,#899,#900,#901,#902,#903,#904,#905,#906,#907,#908,#909,#910,
#911,#912,#913,#914,#915,#916,#917,#918,#919,#920),(#921,#922,#923,#924,
#925,#926,#927,#928,#929,#930,#931,#932,#933,#934,#935,#936,#937,#938,#939,
#940,#941,#942,#943,#944,#945,#946,#947,#948,#949,#950,#951,#952,#953,#954,
#955,#956,#957,#958,#959,#960,#961,#962,#963,#964,#965,#966,#967,#968,#969,
#970,#971,#972,#973,#974,#975,#976,#977,#978,#979,#980,#981,#982,#983,#984,
#985,#986,#987,#988,#989,#990,#991,#992,#993,#994,#995,#996,#997,#998,#999,
#1000,#1001,#1002,#1003,#1004,#1005,#1006,#1007,#1008,#1009,#1010,#1011,
#1012,#1013,#1014,#1015,#1016,#1017,#1018,#1019,#1020,#1021,#1022,#1023,
#1024,#1025,#1026)),.UNSPECIFIED.,.F.,.T.,.F.,(2,2),(2,2,2,2,2,2,2,2,2,
2,2,2,2,2,2,2,2,2,2,2,2,2,2,2,2,2,2,2,2,2,2,2,2,2,2,2,2,2,2,2,2,2,2,2,2,
2,2,2,2,2,2,2,2,2,2),(0.,1.),(-0.0625,0.,0.015625,0.0234375,0.03125,0.046875,
0.0546875,0.0625,0.078125,0.0859375,0.09375,0.109375,0.1171875,0.125,0.140625,
0.1484375,0.15625,0.1875,0.21875,0.25,0.265625,0.28125,0.3125,0.34375,0.375,
0.4375,0.453125,0.46875,0.5,0.53125,0.546875,0.5625,0.578125,0.59375,0.609375,
0.6171875,0.625,0.640625,0.6484375,0.65625,0.671875,0.6796875,0.6875,0.703125,
0.7109375,0.71875,0.75,0.78125,0.8125,0.84375,0.875,0.90625,0.9375,1.,1.015625),
 .UNSPECIFIED.);
#91=FACE_BOUND('',#153,.T.);
#92=FACE_BOUND('',#154,.T.);
#93=FACE_BOUND('',#155,.T.);
#94=FACE_BOUND('',#88,.T.);
#95=FACE_BOUND('',#156,.T.);
#96=FACE_BOUND('',#158,.T.);
#97=FACE_BOUND('',#89,.T.);
#98=FACE_BOUND('',#159,.T.);
#99=FACE_BOUND('',#177,.T.);
#100=FACE_BOUND('',#178,.T.);
#101=ADVANCED_FACE('',(#129),#126,.T.);
#102=ADVANCED_FACE('',(#130),#127,.T.);
#103=ADVANCED_FACE('',(#131),#128,.T.);
#104=ADVANCED_FACE('',(#91,#92),#90,.T.);
#105=ADVANCED_FACE('',(#93,#94,#95),#87,.T.);
#106=ADVANCED_FACE('',(#132),#74,.T.);
#107=ADVANCED_FACE('',(#96,#97,#98),#72,.T.);
#108=ADVANCED_FACE('',(#133),#66,.F.);
#109=ADVANCED_FACE('',(#134),#75,.F.);
#110=ADVANCED_FACE('',(#135),#76,.T.);
#111=ADVANCED_FACE('',(#136),#67,.T.);
#112=ADVANCED_FACE('',(#137),#68,.T.);
#113=ADVANCED_FACE('',(#138),#77,.T.);
#114=ADVANCED_FACE('',(#139),#69,.T.);
#115=ADVANCED_FACE('',(#140),#78,.T.);
#116=ADVANCED_FACE('',(#141),#79,.T.);
#117=ADVANCED_FACE('',(#142),#70,.F.);
#118=ADVANCED_FACE('',(#143),#80,.T.);
#119=ADVANCED_FACE('',(#144),#71,.F.);
#120=ADVANCED_FACE('',(#145),#81,.F.);
#121=ADVANCED_FACE('',(#146),#82,.F.);
#122=ADVANCED_FACE('',(#147),#83,.T.);
#123=ADVANCED_FACE('',(#148),#84,.T.);
#124=ADVANCED_FACE('',(#149),#85,.T.);
#125=ADVANCED_FACE('',(#99,#100),#86,.F.);
#126=CONICAL_SURFACE('',#452,109.8,0.264942428752789);
#127=CONICAL_SURFACE('',#455,109.8,0.26494242875137);
#128=CONICAL_SURFACE('',#458,109.8,0.264942428752963);
#129=FACE_OUTER_BOUND('',#150,.T.);
#130=FACE_OUTER_BOUND('',#151,.T.);
#131=FACE_OUTER_BOUND('',#152,.T.);
#132=FACE_OUTER_BOUND('',#157,.T.);
#133=FACE_OUTER_BOUND('',#160,.T.);
#134=FACE_OUTER_BOUND('',#161,.T.);
#135=FACE_OUTER_BOUND('',#162,.T.);
#136=FACE_OUTER_BOUND('',#163,.T.);
#137=FACE_OUTER_BOUND('',#164,.T.);
#138=FACE_OUTER_BOUND('',#165,.T.);
#139=FACE_OUTER_BOUND('',#166,.T.);
#140=FACE_OUTER_BOUND('',#167,.T.);
#141=FACE_OUTER_BOUND('',#168,.T.);
#142=FACE_OUTER_BOUND('',#169,.T.);
#143=FACE_OUTER_BOUND('',#170,.T.);
#144=FACE_OUTER_BOUND('',#171,.T.);
#145=FACE_OUTER_BOUND('',#172,.T.);
#146=FACE_OUTER_BOUND('',#173,.T.);
#147=FACE_OUTER_BOUND('',#174,.T.);
#148=FACE_OUTER_BOUND('',#175,.T.);
#149=FACE_OUTER_BOUND('',#176,.T.);
#150=EDGE_LOOP('',(#212,#213,#214,#215));
#151=EDGE_LOOP('',(#216,#217,#218,#219));
#152=EDGE_LOOP('',(#220,#221,#222,#223));
#153=EDGE_LOOP('',(#224));
#154=EDGE_LOOP('',(#225));
#155=EDGE_LOOP('',(#226));
#156=EDGE_LOOP('',(#227,#228,#229,#230,#231,#232));
#157=EDGE_LOOP('',(#233,#234));
#158=EDGE_LOOP('',(#235));
#159=EDGE_LOOP('',(#236,#237,#238,#239,#240,#241));
#160=EDGE_LOOP('',(#242,#243,#244,#245));
#161=EDGE_LOOP('',(#246,#247,#248,#249));
#162=EDGE_LOOP('',(#250,#251,#252,#253));
#163=EDGE_LOOP('',(#254,#255,#256,#257));
#164=EDGE_LOOP('',(#258,#259,#260,#261));
#165=EDGE_LOOP('',(#262,#263,#264,#265));
#166=EDGE_LOOP('',(#266,#267,#268,#269));
#167=EDGE_LOOP('',(#270,#271,#272,#273));
#168=EDGE_LOOP('',(#274,#275));
#169=EDGE_LOOP('',(#276,#277,#278,#279));
#170=EDGE_LOOP('',(#280,#281));
#171=EDGE_LOOP('',(#282,#283,#284,#285));
#172=EDGE_LOOP('',(#286,#287,#288,#289));
#173=EDGE_LOOP('',(#290,#291,#292,#293));
#174=EDGE_LOOP('',(#294,#295,#296,#297,#298,#299,#300,#301,#302,#303,#304,
#305));
#175=EDGE_LOOP('',(#306,#307,#308,#309,#310,#311,#312,#313,#314,#315,#316,
#317));
#176=EDGE_LOOP('',(#318,#319,#320,#321,#322,#323,#324,#325,#326,#327,#328,
#329));
#177=EDGE_LOOP('',(#330));
#178=EDGE_LOOP('',(#331));
#179=CIRCLE('',#450,109.8);
#180=CIRCLE('',#451,109.796171706591);
#181=CIRCLE('',#453,109.8);
#182=CIRCLE('',#454,109.796171706591);
#183=CIRCLE('',#456,109.8);
#184=CIRCLE('',#457,109.796171706591);
#185=CIRCLE('',#459,32.5);
#186=CIRCLE('',#461,109.8);
#187=CIRCLE('',#462,109.8);
#188=CIRCLE('',#463,109.8);
#189=CIRCLE('',#464,20.5);
#190=CIRCLE('',#465,109.8);
#191=CIRCLE('',#466,109.8);
#192=CIRCLE('',#468,20.5);
#193=CIRCLE('',#470,32.5);
#194=CIRCLE('',#472,109.8);
#195=CIRCLE('',#473,109.8);
#196=CIRCLE('',#475,109.8);
#197=CIRCLE('',#476,32.5);
#198=CIRCLE('',#477,109.8);
#199=CIRCLE('',#478,20.5);
#200=CIRCLE('',#481,109.8);
#201=CIRCLE('',#482,32.5);
#202=CIRCLE('',#483,109.8);
#203=CIRCLE('',#484,20.5);
#204=CIRCLE('',#487,32.5);
#205=CIRCLE('',#489,109.8);
#206=CIRCLE('',#490,20.5);
#207=CIRCLE('',#491,109.8);
#208=CIRCLE('',#493,32.5);
#209=CIRCLE('',#495,109.8);
#210=CIRCLE('',#496,20.5);
#211=CIRCLE('',#497,109.8);
#212=ORIENTED_EDGE('',*,*,#373,.F.);
#213=ORIENTED_EDGE('',*,*,#374,.F.);
#214=ORIENTED_EDGE('',*,*,#375,.F.);
#215=ORIENTED_EDGE('',*,*,#376,.T.);
#216=ORIENTED_EDGE('',*,*,#377,.T.);
#217=ORIENTED_EDGE('',*,*,#378,.T.);
#218=ORIENTED_EDGE('',*,*,#379,.T.);
#219=ORIENTED_EDGE('',*,*,#380,.T.);
#220=ORIENTED_EDGE('',*,*,#381,.T.);
#221=ORIENTED_EDGE('',*,*,#382,.T.);
#222=ORIENTED_EDGE('',*,*,#383,.T.);
#223=ORIENTED_EDGE('',*,*,#384,.T.);
#224=ORIENTED_EDGE('',*,*,#385,.T.);
#225=ORIENTED_EDGE('',*,*,#386,.F.);
#226=ORIENTED_EDGE('',*,*,#385,.F.);
#227=ORIENTED_EDGE('',*,*,#384,.F.);
#228=ORIENTED_EDGE('',*,*,#387,.T.);
#229=ORIENTED_EDGE('',*,*,#376,.F.);
#230=ORIENTED_EDGE('',*,*,#388,.T.);
#231=ORIENTED_EDGE('',*,*,#380,.F.);
#232=ORIENTED_EDGE('',*,*,#389,.F.);
#233=ORIENTED_EDGE('',*,*,#390,.F.);
#234=ORIENTED_EDGE('',*,*,#389,.T.);
#235=ORIENTED_EDGE('',*,*,#391,.T.);
#236=ORIENTED_EDGE('',*,*,#392,.F.);
#237=ORIENTED_EDGE('',*,*,#393,.T.);
#238=ORIENTED_EDGE('',*,*,#394,.F.);
#239=ORIENTED_EDGE('',*,*,#395,.T.);
#240=ORIENTED_EDGE('',*,*,#396,.F.);
#241=ORIENTED_EDGE('',*,*,#397,.T.);
#242=ORIENTED_EDGE('',*,*,#398,.T.);
#243=ORIENTED_EDGE('',*,*,#399,.T.);
#244=ORIENTED_EDGE('',*,*,#390,.T.);
#245=ORIENTED_EDGE('',*,*,#400,.T.);
#246=ORIENTED_EDGE('',*,*,#398,.F.);
#247=ORIENTED_EDGE('',*,*,#401,.T.);
#248=ORIENTED_EDGE('',*,*,#402,.F.);
#249=ORIENTED_EDGE('',*,*,#403,.T.);
#250=ORIENTED_EDGE('',*,*,#404,.T.);
#251=ORIENTED_EDGE('',*,*,#405,.T.);
#252=ORIENTED_EDGE('',*,*,#394,.T.);
#253=ORIENTED_EDGE('',*,*,#406,.T.);
#254=ORIENTED_EDGE('',*,*,#407,.F.);
#255=ORIENTED_EDGE('',*,*,#402,.T.);
#256=ORIENTED_EDGE('',*,*,#408,.F.);
#257=ORIENTED_EDGE('',*,*,#404,.F.);
#258=ORIENTED_EDGE('',*,*,#409,.F.);
#259=ORIENTED_EDGE('',*,*,#410,.F.);
#260=ORIENTED_EDGE('',*,*,#411,.F.);
#261=ORIENTED_EDGE('',*,*,#412,.T.);
#262=ORIENTED_EDGE('',*,*,#410,.T.);
#263=ORIENTED_EDGE('',*,*,#413,.T.);
#264=ORIENTED_EDGE('',*,*,#396,.T.);
#265=ORIENTED_EDGE('',*,*,#414,.T.);
#266=ORIENTED_EDGE('',*,*,#415,.F.);
#267=ORIENTED_EDGE('',*,*,#416,.F.);
#268=ORIENTED_EDGE('',*,*,#417,.F.);
#269=ORIENTED_EDGE('',*,*,#418,.T.);
#270=ORIENTED_EDGE('',*,*,#416,.T.);
#271=ORIENTED_EDGE('',*,*,#419,.T.);
#272=ORIENTED_EDGE('',*,*,#392,.T.);
#273=ORIENTED_EDGE('',*,*,#420,.T.);
#274=ORIENTED_EDGE('',*,*,#388,.F.);
#275=ORIENTED_EDGE('',*,*,#421,.F.);
#276=ORIENTED_EDGE('',*,*,#421,.T.);
#277=ORIENTED_EDGE('',*,*,#422,.T.);
#278=ORIENTED_EDGE('',*,*,#423,.T.);
#279=ORIENTED_EDGE('',*,*,#424,.T.);
#280=ORIENTED_EDGE('',*,*,#387,.F.);
#281=ORIENTED_EDGE('',*,*,#425,.T.);
#282=ORIENTED_EDGE('',*,*,#425,.F.);
#283=ORIENTED_EDGE('',*,*,#426,.T.);
#284=ORIENTED_EDGE('',*,*,#427,.T.);
#285=ORIENTED_EDGE('',*,*,#428,.T.);
#286=ORIENTED_EDGE('',*,*,#427,.F.);
#287=ORIENTED_EDGE('',*,*,#429,.T.);
#288=ORIENTED_EDGE('',*,*,#418,.F.);
#289=ORIENTED_EDGE('',*,*,#430,.T.);
#290=ORIENTED_EDGE('',*,*,#423,.F.);
#291=ORIENTED_EDGE('',*,*,#431,.T.);
#292=ORIENTED_EDGE('',*,*,#412,.F.);
#293=ORIENTED_EDGE('',*,*,#432,.T.);
#294=ORIENTED_EDGE('',*,*,#405,.F.);
#295=ORIENTED_EDGE('',*,*,#408,.T.);
#296=ORIENTED_EDGE('',*,*,#401,.F.);
#297=ORIENTED_EDGE('',*,*,#400,.F.);
#298=ORIENTED_EDGE('',*,*,#379,.F.);
#299=ORIENTED_EDGE('',*,*,#378,.F.);
#300=ORIENTED_EDGE('',*,*,#377,.F.);
#301=ORIENTED_EDGE('',*,*,#424,.F.);
#302=ORIENTED_EDGE('',*,*,#432,.F.);
#303=ORIENTED_EDGE('',*,*,#411,.T.);
#304=ORIENTED_EDGE('',*,*,#414,.F.);
#305=ORIENTED_EDGE('',*,*,#395,.F.);
#306=ORIENTED_EDGE('',*,*,#430,.F.);
#307=ORIENTED_EDGE('',*,*,#417,.T.);
#308=ORIENTED_EDGE('',*,*,#420,.F.);
#309=ORIENTED_EDGE('',*,*,#397,.F.);
#310=ORIENTED_EDGE('',*,*,#413,.F.);
#311=ORIENTED_EDGE('',*,*,#409,.T.);
#312=ORIENTED_EDGE('',*,*,#431,.F.);
#313=ORIENTED_EDGE('',*,*,#422,.F.);
#314=ORIENTED_EDGE('',*,*,#375,.T.);
#315=ORIENTED_EDGE('',*,*,#374,.T.);
#316=ORIENTED_EDGE('',*,*,#373,.T.);
#317=ORIENTED_EDGE('',*,*,#428,.F.);
#318=ORIENTED_EDGE('',*,*,#403,.F.);
#319=ORIENTED_EDGE('',*,*,#407,.T.);
#320=ORIENTED_EDGE('',*,*,#406,.F.);
#321=ORIENTED_EDGE('',*,*,#393,.F.);
#322=ORIENTED_EDGE('',*,*,#419,.F.);
#323=ORIENTED_EDGE('',*,*,#415,.T.);
#324=ORIENTED_EDGE('',*,*,#429,.F.);
#325=ORIENTED_EDGE('',*,*,#426,.F.);
#326=ORIENTED_EDGE('',*,*,#383,.F.);
#327=ORIENTED_EDGE('',*,*,#382,.F.);
#328=ORIENTED_EDGE('',*,*,#381,.F.);
#329=ORIENTED_EDGE('',*,*,#399,.F.);
#330=ORIENTED_EDGE('',*,*,#386,.T.);
#331=ORIENTED_EDGE('',*,*,#391,.F.);
#332=VERTEX_POINT('',#635);
#333=VERTEX_POINT('',#636);
#334=VERTEX_POINT('',#638);
#335=VERTEX_POINT('',#643);
#336=VERTEX_POINT('',#650);
#337=VERTEX_POINT('',#651);
#338=VERTEX_POINT('',#653);
#339=VERTEX_POINT('',#658);
#340=VERTEX_POINT('',#665);
#341=VERTEX_POINT('',#666);
#342=VERTEX_POINT('',#668);
#343=VERTEX_POINT('',#673);
#344=VERTEX_POINT('',#782);
#345=VERTEX_POINT('',#814);
#346=VERTEX_POINT('',#1027);
#347=VERTEX_POINT('',#1188);
#348=VERTEX_POINT('',#1189);
#349=VERTEX_POINT('',#1208);
#350=VERTEX_POINT('',#1209);
#351=VERTEX_POINT('',#1211);
#352=VERTEX_POINT('',#1230);
#353=VERTEX_POINT('',#1232);
#354=VERTEX_POINT('',#1251);
#355=VERTEX_POINT('',#1261);
#356=VERTEX_POINT('',#1262);
#357=VERTEX_POINT('',#1267);
#358=VERTEX_POINT('',#1269);
#359=VERTEX_POINT('',#1273);
#360=VERTEX_POINT('',#1274);
#361=VERTEX_POINT('',#1282);
#362=VERTEX_POINT('',#1283);
#363=VERTEX_POINT('',#1285);
#364=VERTEX_POINT('',#1287);
#365=VERTEX_POINT('',#1294);
#366=VERTEX_POINT('',#1295);
#367=VERTEX_POINT('',#1297);
#368=VERTEX_POINT('',#1299);
#369=VERTEX_POINT('',#1308);
#370=VERTEX_POINT('',#1310);
#371=VERTEX_POINT('',#1316);
#372=VERTEX_POINT('',#1318);
#373=EDGE_CURVE('',#332,#333,#433,.T.);
#374=EDGE_CURVE('',#334,#332,#179,.T.);
#375=EDGE_CURVE('',#335,#334,#434,.T.);
#376=EDGE_CURVE('',#335,#333,#180,.T.);
#377=EDGE_CURVE('',#336,#337,#435,.T.);
#378=EDGE_CURVE('',#337,#338,#181,.T.);
#379=EDGE_CURVE('',#338,#339,#436,.T.);
#380=EDGE_CURVE('',#339,#336,#182,.T.);
#381=EDGE_CURVE('',#340,#341,#437,.T.);
#382=EDGE_CURVE('',#341,#342,#183,.T.);
#383=EDGE_CURVE('',#342,#343,#438,.T.);
#384=EDGE_CURVE('',#343,#340,#184,.T.);
#385=EDGE_CURVE('',#344,#344,#439,.T.);
#386=EDGE_CURVE('',#345,#345,#440,.T.);
#387=EDGE_CURVE('',#343,#333,#441,.T.);
#388=EDGE_CURVE('',#335,#336,#442,.T.);
#389=EDGE_CURVE('',#340,#339,#443,.T.);
#390=EDGE_CURVE('',#340,#339,#185,.T.);
#391=EDGE_CURVE('',#347,#347,#444,.T.);
#392=EDGE_CURVE('',#349,#350,#445,.T.);
#393=EDGE_CURVE('',#349,#351,#186,.T.);
#394=EDGE_CURVE('',#352,#351,#446,.T.);
#395=EDGE_CURVE('',#352,#353,#187,.T.);
#396=EDGE_CURVE('',#354,#353,#447,.T.);
#397=EDGE_CURVE('',#354,#350,#188,.T.);
#398=EDGE_CURVE('',#355,#356,#189,.T.);
#399=EDGE_CURVE('',#356,#340,#190,.T.);
#400=EDGE_CURVE('',#339,#355,#191,.T.);
#401=EDGE_CURVE('',#355,#357,#42,.T.);
#402=EDGE_CURVE('',#358,#357,#192,.T.);
#403=EDGE_CURVE('',#358,#356,#43,.T.);
#404=EDGE_CURVE('',#359,#360,#193,.T.);
#405=EDGE_CURVE('',#360,#352,#44,.T.);
#406=EDGE_CURVE('',#351,#359,#45,.T.);
#407=EDGE_CURVE('',#358,#359,#194,.T.);
#408=EDGE_CURVE('',#360,#357,#195,.T.);
#409=EDGE_CURVE('',#361,#362,#196,.T.);
#410=EDGE_CURVE('',#363,#361,#197,.T.);
#411=EDGE_CURVE('',#364,#363,#198,.T.);
#412=EDGE_CURVE('',#364,#362,#199,.T.);
#413=EDGE_CURVE('',#361,#354,#46,.T.);
#414=EDGE_CURVE('',#353,#363,#47,.T.);
#415=EDGE_CURVE('',#365,#366,#200,.T.);
#416=EDGE_CURVE('',#367,#365,#201,.T.);
#417=EDGE_CURVE('',#368,#367,#202,.T.);
#418=EDGE_CURVE('',#368,#366,#203,.T.);
#419=EDGE_CURVE('',#365,#349,#48,.T.);
#420=EDGE_CURVE('',#350,#367,#49,.T.);
#421=EDGE_CURVE('',#336,#335,#204,.T.);
#422=EDGE_CURVE('',#335,#369,#205,.T.);
#423=EDGE_CURVE('',#369,#370,#206,.T.);
#424=EDGE_CURVE('',#370,#336,#207,.T.);
#425=EDGE_CURVE('',#343,#333,#208,.T.);
#426=EDGE_CURVE('',#343,#371,#209,.T.);
#427=EDGE_CURVE('',#371,#372,#210,.T.);
#428=EDGE_CURVE('',#372,#333,#211,.T.);
#429=EDGE_CURVE('',#371,#366,#50,.T.);
#430=EDGE_CURVE('',#368,#372,#51,.T.);
#431=EDGE_CURVE('',#369,#362,#52,.T.);
#432=EDGE_CURVE('',#364,#370,#53,.T.);
#433=B_SPLINE_CURVE_WITH_KNOTS('',3,(#631,#632,#633,#634),.UNSPECIFIED.,
 .F.,.F.,(4,4),(0.,1.),.UNSPECIFIED.);
#434=B_SPLINE_CURVE_WITH_KNOTS('',3,(#639,#640,#641,#642),.UNSPECIFIED.,
 .F.,.F.,(4,4),(0.,1.),.UNSPECIFIED.);
#435=B_SPLINE_CURVE_WITH_KNOTS('',3,(#646,#647,#648,#649),.UNSPECIFIED.,
 .F.,.F.,(4,4),(0.,1.),.UNSPECIFIED.);
#436=B_SPLINE_CURVE_WITH_KNOTS('',3,(#654,#655,#656,#657),.UNSPECIFIED.,
 .F.,.F.,(4,4),(0.,1.),.UNSPECIFIED.);
#437=B_SPLINE_CURVE_WITH_KNOTS('',3,(#661,#662,#663,#664),.UNSPECIFIED.,
 .F.,.F.,(4,4),(0.,1.),.UNSPECIFIED.);
#438=B_SPLINE_CURVE_WITH_KNOTS('',3,(#669,#670,#671,#672),.UNSPECIFIED.,
 .F.,.F.,(4,4),(0.,1.),.UNSPECIFIED.);
#439=B_SPLINE_CURVE_WITH_KNOTS('',3,(#676,#677,#678,#679,#680,#681,#682,
#683,#684,#685,#686,#687,#688,#689,#690,#691,#692,#693,#694,#695,#696,#697,
#698,#699,#700,#701,#702,#703,#704,#705,#706,#707,#708,#709,#710,#711,#712,
#713,#714,#715,#716,#717,#718,#719,#720,#721,#722,#723,#724,#725,#726,#727,
#728,#729,#730,#731,#732,#733,#734,#735,#736,#737,#738,#739,#740,#741,#742,
#743,#744,#745,#746,#747,#748,#749,#750,#751,#752,#753,#754,#755,#756,#757,
#758,#759,#760,#761,#762,#763,#764,#765,#766,#767,#768,#769,#770,#771,#772,
#773,#774,#775,#776,#777,#778,#779,#780,#781),.UNSPECIFIED.,.T.,.F.,(1,
3,2,2,2,2,2,2,2,2,2,2,2,2,2,2,2,2,2,2,2,2,2,2,2,2,2,2,2,2,2,2,2,2,2,2,2,
2,2,2,2,2,2,2,2,2,2,2,2,2,2,2,2,3,1),(-0.015625,0.,0.0625,0.09375,0.125,
0.15625,0.1875,0.21875,0.25,0.28125,0.2890625,0.296875,0.3125,0.3203125,
0.328125,0.34375,0.3515625,0.359375,0.375,0.3828125,0.390625,0.40625,0.421875,
0.4375,0.453125,0.46875,0.5,0.53125,0.546875,0.5625,0.625,0.65625,0.6875,
0.71875,0.734375,0.75,0.78125,0.8125,0.84375,0.8515625,0.859375,0.875,0.8828125,
0.890625,0.90625,0.9140625,0.921875,0.9375,0.9453125,0.953125,0.96875,0.9765625,
0.984375,1.,1.0625),.UNSPECIFIED.);
#440=B_SPLINE_CURVE_WITH_KNOTS('',3,(#783,#784,#785,#786,#787,#788,#789,
#790,#791,#792,#793,#794,#795,#796,#797,#798,#799,#800,#801,#802,#803,#804,
#805,#806,#807,#808,#809,#810,#811,#812,#813),.UNSPECIFIED.,.T.,.F.,(1,
3,3,3,3,3,3,3,3,3,3,3,1),(-0.1,0.,0.1,0.2,0.3,0.4,0.5,0.6,0.7,0.8,0.9,1.,
1.1),.UNSPECIFIED.);
#441=B_SPLINE_CURVE_WITH_KNOTS('',3,(#1028,#1029,#1030,#1031,#1032,#1033,
#1034,#1035,#1036,#1037,#1038,#1039,#1040,#1041,#1042,#1043,#1044,#1045,
#1046,#1047,#1048,#1049,#1050,#1051,#1052,#1053,#1054,#1055,#1056,#1057,
#1058,#1059,#1060,#1061),.UNSPECIFIED.,.F.,.F.,(4,2,2,2,2,2,2,2,2,2,2,2,
2,2,2,2,4),(0.,0.0624999999999994,0.0937499999999989,0.109374999999999,
0.124999999999999,0.249999999999999,0.374999999999998,0.499999999999998,
0.624999999999998,0.687499999999998,0.749999999999998,0.781249999999998,
0.812499999999998,0.843749999999998,0.859374999999998,0.874999999999998,
1.),.UNSPECIFIED.);
#442=B_SPLINE_CURVE_WITH_KNOTS('',3,(#1062,#1063,#1064,#1065,#1066,#1067,
#1068,#1069,#1070,#1071,#1072,#1073,#1074,#1075,#1076,#1077,#1078,#1079,
#1080,#1081,#1082,#1083,#1084,#1085,#1086,#1087,#1088,#1089,#1090,#1091,
#1092,#1093,#1094,#1095),.UNSPECIFIED.,.F.,.F.,(4,2,2,2,2,2,2,2,2,2,2,2,
2,2,2,2,4),(0.,0.0625000000000007,0.0937500000000009,0.109375000000001,
0.125000000000001,0.250000000000001,0.375000000000001,0.500000000000002,
0.625000000000002,0.687500000000002,0.750000000000003,0.781250000000003,
0.812500000000002,0.843750000000002,0.859375000000002,0.875000000000002,
1.),.UNSPECIFIED.);
#443=B_SPLINE_CURVE_WITH_KNOTS('',3,(#1096,#1097,#1098,#1099,#1100,#1101,
#1102,#1103,#1104,#1105,#1106,#1107,#1108,#1109,#1110,#1111,#1112,#1113,
#1114,#1115,#1116,#1117,#1118,#1119,#1120,#1121,#1122,#1123,#1124,#1125),
 .UNSPECIFIED.,.F.,.F.,(4,2,2,2,2,2,2,2,2,2,2,2,2,2,4),(0.,0.125000000000004,
0.187500000000005,0.218750000000006,0.234375000000006,0.242187500000006,
0.250000000000007,0.500000000000003,0.75,0.7578125,0.765625,0.78125,0.8125,
0.875,1.),.UNSPECIFIED.);
#444=B_SPLINE_CURVE_WITH_KNOTS('',3,(#1170,#1171,#1172,#1173,#1174,#1175,
#1176,#1177,#1178,#1179,#1180,#1181,#1182,#1183,#1184,#1185,#1186,#1187),
 .UNSPECIFIED.,.T.,.F.,(2,2,2,2,2,2,2,2,2,2,2),(-0.125,0.,0.125,0.250000000000001,
0.375000000000001,0.500000000000001,0.625000000000001,0.750000000000001,
0.875,1.,1.125),.UNSPECIFIED.);
#445=B_SPLINE_CURVE_WITH_KNOTS('',3,(#1190,#1191,#1192,#1193,#1194,#1195,
#1196,#1197,#1198,#1199,#1200,#1201,#1202,#1203,#1204,#1205,#1206,#1207),
 .UNSPECIFIED.,.F.,.F.,(4,2,2,2,2,2,2,2,4),(0.,0.125,0.25,0.375,0.5,0.625,
0.75,0.875,1.),.UNSPECIFIED.);
#446=B_SPLINE_CURVE_WITH_KNOTS('',3,(#1212,#1213,#1214,#1215,#1216,#1217,
#1218,#1219,#1220,#1221,#1222,#1223,#1224,#1225,#1226,#1227,#1228,#1229),
 .UNSPECIFIED.,.F.,.F.,(4,2,2,2,2,2,2,2,4),(0.,0.125,0.25,0.375,0.5,0.625,
0.75,0.875,1.),.UNSPECIFIED.);
#447=B_SPLINE_CURVE_WITH_KNOTS('',3,(#1233,#1234,#1235,#1236,#1237,#1238,
#1239,#1240,#1241,#1242,#1243,#1244,#1245,#1246,#1247,#1248,#1249,#1250),
 .UNSPECIFIED.,.F.,.F.,(4,2,2,2,2,2,2,2,4),(0.,0.125,0.25,0.375,0.5,0.625,
0.75,0.875,1.),.UNSPECIFIED.);
#448=B_SPLINE_CURVE_WITH_KNOTS('',5,(#1253,#1254,#1255,#1256,#1257,#1258),
 .UNSPECIFIED.,.F.,.F.,(6,6),(0.,1.),.UNSPECIFIED.);
#449=AXIS2_PLACEMENT_3D('',#630,#505,#506);
#450=AXIS2_PLACEMENT_3D('',#637,#507,#508);
#451=AXIS2_PLACEMENT_3D('',#644,#509,#510);
#452=AXIS2_PLACEMENT_3D('',#645,#511,#512);
#453=AXIS2_PLACEMENT_3D('',#652,#513,#514);
#454=AXIS2_PLACEMENT_3D('',#659,#515,#516);
#455=AXIS2_PLACEMENT_3D('',#660,#517,#518);
#456=AXIS2_PLACEMENT_3D('',#667,#519,#520);
#457=AXIS2_PLACEMENT_3D('',#674,#521,#522);
#458=AXIS2_PLACEMENT_3D('',#675,#523,#524);
#459=AXIS2_PLACEMENT_3D('',#1168,#525,#526);
#460=AXIS2_PLACEMENT_3D('',#1169,#527,#528);
#461=AXIS2_PLACEMENT_3D('',#1210,#529,#530);
#462=AXIS2_PLACEMENT_3D('',#1231,#531,#532);
#463=AXIS2_PLACEMENT_3D('',#1252,#533,#534);
#464=AXIS2_PLACEMENT_3D('',#1260,#536,#537);
#465=AXIS2_PLACEMENT_3D('',#1263,#538,#539);
#466=AXIS2_PLACEMENT_3D('',#1264,#540,#541);
#467=AXIS2_PLACEMENT_3D('',#1265,#542,#543);
#468=AXIS2_PLACEMENT_3D('',#1268,#545,#546);
#469=AXIS2_PLACEMENT_3D('',#1271,#548,#549);
#470=AXIS2_PLACEMENT_3D('',#1272,#550,#551);
#471=AXIS2_PLACEMENT_3D('',#1277,#554,#555);
#472=AXIS2_PLACEMENT_3D('',#1278,#556,#557);
#473=AXIS2_PLACEMENT_3D('',#1279,#558,#559);
#474=AXIS2_PLACEMENT_3D('',#1280,#560,#561);
#475=AXIS2_PLACEMENT_3D('',#1281,#562,#563);
#476=AXIS2_PLACEMENT_3D('',#1284,#564,#565);
#477=AXIS2_PLACEMENT_3D('',#1286,#566,#567);
#478=AXIS2_PLACEMENT_3D('',#1288,#568,#569);
#479=AXIS2_PLACEMENT_3D('',#1289,#570,#571);
#480=AXIS2_PLACEMENT_3D('',#1292,#574,#575);
#481=AXIS2_PLACEMENT_3D('',#1293,#576,#577);
#482=AXIS2_PLACEMENT_3D('',#1296,#578,#579);
#483=AXIS2_PLACEMENT_3D('',#1298,#580,#581);
#484=AXIS2_PLACEMENT_3D('',#1300,#582,#583);
#485=AXIS2_PLACEMENT_3D('',#1301,#584,#585);
#486=AXIS2_PLACEMENT_3D('',#1304,#588,#589);
#487=AXIS2_PLACEMENT_3D('',#1305,#590,#591);
#488=AXIS2_PLACEMENT_3D('',#1306,#592,#593);
#489=AXIS2_PLACEMENT_3D('',#1307,#594,#595);
#490=AXIS2_PLACEMENT_3D('',#1309,#596,#597);
#491=AXIS2_PLACEMENT_3D('',#1311,#598,#599);
#492=AXIS2_PLACEMENT_3D('',#1312,#600,#601);
#493=AXIS2_PLACEMENT_3D('',#1313,#602,#603);
#494=AXIS2_PLACEMENT_3D('',#1314,#604,#605);
#495=AXIS2_PLACEMENT_3D('',#1315,#606,#607);
#496=AXIS2_PLACEMENT_3D('',#1317,#608,#609);
#497=AXIS2_PLACEMENT_3D('',#1319,#610,#611);
#498=AXIS2_PLACEMENT_3D('',#1320,#612,#613);
#499=AXIS2_PLACEMENT_3D('',#1323,#616,#617);
#500=AXIS2_PLACEMENT_3D('',#1326,#620,#621);
#501=AXIS2_PLACEMENT_3D('',#1327,#622,#623);
#502=AXIS2_PLACEMENT_3D('',#1328,#624,#625);
#503=AXIS2_PLACEMENT_3D('',#1329,#626,#627);
#504=AXIS2_PLACEMENT_3D('',#1330,#628,#629);
#505=DIRECTION('',(0.,0.,1.));
#506=DIRECTION('',(1.,0.,0.));
#507=DIRECTION('',(0.,0.,-1.));
#508=DIRECTION('',(1.,0.,0.));
#509=DIRECTION('',(0.,0.,-1.));
#510=DIRECTION('',(1.,0.,0.));
#511=DIRECTION('',(0.,0.,-1.));
#512=DIRECTION('',(-1.,0.,-6.82220981871643E-17));
#513=DIRECTION('',(0.,0.,1.));
#514=DIRECTION('',(1.,0.,0.));
#515=DIRECTION('',(0.,0.,-1.));
#516=DIRECTION('',(1.,0.,0.));
#517=DIRECTION('',(0.,0.,-1.));
#518=DIRECTION('',(-1.,0.,-6.82220981871791E-17));
#519=DIRECTION('',(0.,0.,1.));
#520=DIRECTION('',(1.,0.,0.));
#521=DIRECTION('',(0.,0.,-1.));
#522=DIRECTION('',(1.,0.,0.));
#523=DIRECTION('',(0.,0.,-1.));
#524=DIRECTION('',(-1.,0.,-6.82220981871625E-17));
#525=DIRECTION('',(0.,0.,1.));
#526=DIRECTION('',(1.,1.22464679914735E-16,0.));
#527=DIRECTION('',(0.,0.,1.));
#528=DIRECTION('',(1.,0.,0.));
#529=DIRECTION('',(0.,0.,-1.));
#530=DIRECTION('',(1.,0.,0.));
#531=DIRECTION('',(0.,0.,-1.));
#532=DIRECTION('',(1.,0.,0.));
#533=DIRECTION('',(0.,0.,-1.));
#534=DIRECTION('',(1.,0.,0.));
#535=DIRECTION('',(0.,0.,1.));
#536=DIRECTION('',(0.,0.,-1.));
#537=DIRECTION('',(-1.,0.,0.));
#538=DIRECTION('',(0.,0.,1.));
#539=DIRECTION('',(-1.,0.,0.));
#540=DIRECTION('',(0.,0.,1.));
#541=DIRECTION('',(-1.,0.,0.));
#542=DIRECTION('',(0.,0.,-1.));
#543=DIRECTION('',(-1.,0.,0.));
#544=DIRECTION('',(0.,0.,-1.));
#545=DIRECTION('',(0.,0.,1.));
#546=DIRECTION('',(1.,0.,0.));
#547=DIRECTION('',(0.,0.,1.));
#548=DIRECTION('',(0.,0.,1.));
#549=DIRECTION('',(1.,0.,0.));
#550=DIRECTION('',(0.,0.,1.));
#551=DIRECTION('',(1.,1.22464679914735E-16,0.));
#552=DIRECTION('',(0.,0.,1.));
#553=DIRECTION('',(0.,0.,-1.));
#554=DIRECTION('',(0.,0.,1.));
#555=DIRECTION('',(1.,0.,0.));
#556=DIRECTION('',(0.,0.,1.));
#557=DIRECTION('',(-1.,0.,0.));
#558=DIRECTION('',(0.,0.,1.));
#559=DIRECTION('',(-1.,0.,0.));
#560=DIRECTION('',(0.,0.,-1.));
#561=DIRECTION('',(-1.,0.,0.));
#562=DIRECTION('',(0.,0.,1.));
#563=DIRECTION('',(-1.,0.,0.));
#564=DIRECTION('',(0.,0.,1.));
#565=DIRECTION('',(-0.500000000000003,-0.866025403784437,0.));
#566=DIRECTION('',(0.,0.,1.));
#567=DIRECTION('',(-1.,0.,0.));
#568=DIRECTION('',(0.,0.,1.));
#569=DIRECTION('',(-0.500000000000003,-0.866025403784437,0.));
#570=DIRECTION('',(0.,0.,-1.));
#571=DIRECTION('',(0.500000000000003,0.866025403784437,0.));
#572=DIRECTION('',(0.,0.,1.));
#573=DIRECTION('',(0.,0.,-1.));
#574=DIRECTION('',(0.,0.,1.));
#575=DIRECTION('',(-0.500000000000003,-0.866025403784437,0.));
#576=DIRECTION('',(0.,0.,1.));
#577=DIRECTION('',(-1.,0.,0.));
#578=DIRECTION('',(0.,0.,1.));
#579=DIRECTION('',(-0.499999999999999,0.866025403784439,0.));
#580=DIRECTION('',(0.,0.,1.));
#581=DIRECTION('',(-1.,0.,0.));
#582=DIRECTION('',(0.,0.,1.));
#583=DIRECTION('',(-0.499999999999999,0.866025403784439,0.));
#584=DIRECTION('',(0.,0.,-1.));
#585=DIRECTION('',(0.499999999999999,-0.866025403784439,0.));
#586=DIRECTION('',(0.,0.,1.));
#587=DIRECTION('',(0.,0.,-1.));
#588=DIRECTION('',(0.,0.,1.));
#589=DIRECTION('',(-0.499999999999999,0.866025403784439,0.));
#590=DIRECTION('',(0.,0.,1.));
#591=DIRECTION('',(-0.500000000000003,-0.866025403784437,0.));
#592=DIRECTION('',(0.,0.,1.));
#593=DIRECTION('',(-0.500000000000003,-0.866025403784437,0.));
#594=DIRECTION('',(0.,0.,1.));
#595=DIRECTION('',(-1.,0.,0.));
#596=DIRECTION('',(0.,0.,-1.));
#597=DIRECTION('',(-0.500000000000003,-0.866025403784437,0.));
#598=DIRECTION('',(0.,0.,1.));
#599=DIRECTION('',(-1.,0.,0.));
#600=DIRECTION('',(0.,0.,-1.));
#601=DIRECTION('',(0.500000000000003,0.866025403784437,0.));
#602=DIRECTION('',(0.,0.,-1.));
#603=DIRECTION('',(-0.499999999999999,0.866025403784439,0.));
#604=DIRECTION('',(0.,0.,1.));
#605=DIRECTION('',(-0.499999999999999,0.866025403784439,0.));
#606=DIRECTION('',(0.,0.,1.));
#607=DIRECTION('',(-1.,0.,0.));
#608=DIRECTION('',(0.,0.,-1.));
#609=DIRECTION('',(-0.499999999999999,0.866025403784439,0.));
#610=DIRECTION('',(0.,0.,1.));
#611=DIRECTION('',(-1.,0.,0.));
#612=DIRECTION('',(0.,0.,-1.));
#613=DIRECTION('',(0.499999999999999,-0.866025403784439,0.));
#614=DIRECTION('',(0.,0.,-1.));
#615=DIRECTION('',(0.,0.,1.));
#616=DIRECTION('',(0.,0.,1.));
#617=DIRECTION('',(-0.499999999999999,0.866025403784439,0.));
#618=DIRECTION('',(0.,0.,-1.));
#619=DIRECTION('',(0.,0.,1.));
#620=DIRECTION('',(0.,0.,1.));
#621=DIRECTION('',(-0.500000000000003,-0.866025403784437,0.));
#622=DIRECTION('',(0.,0.,-1.));
#623=DIRECTION('',(-1.,0.,0.));
#624=DIRECTION('',(0.,0.,-1.));
#625=DIRECTION('',(-1.,0.,0.));
#626=DIRECTION('',(0.,0.,-1.));
#627=DIRECTION('',(-1.,0.,0.));
#628=DIRECTION('',(-0.000145012228549015,0.000147108066626426,0.999999978665335));
#629=DIRECTION('',(0.,-0.999999989179608,0.00014710806817316));
#630=CARTESIAN_POINT('',(0.,0.,0.));
#631=CARTESIAN_POINT('',(80.3101383304146,-74.8753743319502,1.97214416872838));
#632=CARTESIAN_POINT('',(80.3101383304146,-74.8753743319502,2.24809611248559));
#633=CARTESIAN_POINT('',(80.3101383304146,-74.8753743319502,2.52404805624279));
#634=CARTESIAN_POINT('',(80.3101383304146,-74.8753743319502,2.8));
#635=CARTESIAN_POINT('',(80.3101383304146,-74.8753743319503,1.97214416872838));
#636=CARTESIAN_POINT('',(80.3046867350203,-74.868608870435,2.8));
#637=CARTESIAN_POINT('',(0.,0.,1.97214416872838));
#638=CARTESIAN_POINT('',(80.3101383304149,74.8753743319499,1.97214416872838));
#639=CARTESIAN_POINT('',(80.3101383304149,74.8753743319499,2.8));
#640=CARTESIAN_POINT('',(80.3101383304149,74.8753743319499,2.52404805624279));
#641=CARTESIAN_POINT('',(80.3101383304149,74.8753743319499,2.24809611248559));
#642=CARTESIAN_POINT('',(80.3101383304149,74.8753743319499,1.97214416872838));
#643=CARTESIAN_POINT('',(80.3046867350206,74.8686088704346,2.8));
#644=CARTESIAN_POINT('',(0.,0.,2.80003531747293));
#645=CARTESIAN_POINT('',(0.,0.,1.97214416872838));
#646=CARTESIAN_POINT('',(24.6880463192093,106.9845768808,2.80003531747293));
#647=CARTESIAN_POINT('',(24.6883332541832,106.985820301052,2.52407160122475));
#648=CARTESIAN_POINT('',(24.6886201891572,106.987063721304,2.24810788497657));
#649=CARTESIAN_POINT('',(24.6889071241311,106.988307141556,1.97214416872838));
#650=CARTESIAN_POINT('',(24.6857738602877,106.980203190696,2.8));
#651=CARTESIAN_POINT('',(24.6889071241311,106.988307141556,1.97214416872838));
#652=CARTESIAN_POINT('',(0.,0.,1.97214416872838));
#653=CARTESIAN_POINT('',(-104.999045454545,32.1129328096064,1.97214416872838));
#654=CARTESIAN_POINT('',(-104.999045454545,32.1129328096064,1.97214416872838));
#655=CARTESIAN_POINT('',(-104.997825153533,32.112559592457,2.24810788497657));
#656=CARTESIAN_POINT('',(-104.99660485252,32.1121863753076,2.52407160122475));
#657=CARTESIAN_POINT('',(-104.995384551507,32.1118131581582,2.80003531747293));
#658=CARTESIAN_POINT('',(-104.990460595308,32.1115943202615,2.8));
#659=CARTESIAN_POINT('',(0.,0.,2.80003531747293));
#660=CARTESIAN_POINT('',(0.,0.,1.97214416872838));
#661=CARTESIAN_POINT('',(-104.995384551507,-32.1118131581582,2.80003531747293));
#662=CARTESIAN_POINT('',(-104.99660485252,-32.1121863753076,2.52407160122475));
#663=CARTESIAN_POINT('',(-104.997825153532,-32.1125595924571,2.24810788497657));
#664=CARTESIAN_POINT('',(-104.999045454545,-32.1129328096065,1.97214416872838));
#665=CARTESIAN_POINT('',(-104.990460595308,-32.1115943202615,2.8));
#666=CARTESIAN_POINT('',(-104.999045454545,-32.1129328096064,1.97214416872838));
#667=CARTESIAN_POINT('',(0.,0.,1.97214416872838));
#668=CARTESIAN_POINT('',(24.6889071241306,-106.988307141557,1.97214416872847));
#669=CARTESIAN_POINT('',(24.6889071241306,-106.988307141557,1.97214416872847));
#670=CARTESIAN_POINT('',(24.6886201891567,-106.987063721304,2.24810788497663));
#671=CARTESIAN_POINT('',(24.6883332541827,-106.985820301052,2.52407160122478));
#672=CARTESIAN_POINT('',(24.6880463192088,-106.9845768808,2.80003531747293));
#673=CARTESIAN_POINT('',(24.6857738602872,-106.980203190696,2.8));
#674=CARTESIAN_POINT('',(0.,0.,2.80003531747293));
#675=CARTESIAN_POINT('',(0.,0.,1.97214416872838));
#676=CARTESIAN_POINT('',(-58.478478077408,44.3235088149005,2.76043305760641));
#677=CARTESIAN_POINT('',(-56.5179239581196,44.3235583096104,2.76181162841061));
#678=CARTESIAN_POINT('',(-54.5603154432969,44.7102260690734,2.7631382067721));
#679=CARTESIAN_POINT('',(-51.822740906748,45.8449415999598,2.76454003129685));
#680=CARTESIAN_POINT('',(-50.9697166333868,46.3010590388867,2.76489967783925));
#681=CARTESIAN_POINT('',(-49.330608154602,47.395328287227,2.76539086055278));
#682=CARTESIAN_POINT('',(-48.5670714159085,48.0218493959487,2.76551254988342));
#683=CARTESIAN_POINT('',(-47.1748920714028,49.414289054258,2.76549333327193));
#684=CARTESIAN_POINT('',(-46.5565965328094,50.1675769133569,2.76535475596107));
#685=CARTESIAN_POINT('',(-45.4631342416175,51.8025892927383,2.76483120386979));
#686=CARTESIAN_POINT('',(-44.9988770752634,52.6700132607602,2.76444961200837));
#687=CARTESIAN_POINT('',(-44.2441226644056,54.4909638426974,2.76348915406159));
#688=CARTESIAN_POINT('',(-43.9594162743912,55.4285815771472,2.76291934386491));
#689=CARTESIAN_POINT('',(-43.5742879357141,57.3637264741919,2.76165496186162));
#690=CARTESIAN_POINT('',(-43.4788665878716,58.3284441763911,2.76098265307129));
#691=CARTESIAN_POINT('',(-43.4777851229889,60.3029312447634,2.75959169530759));
#692=CARTESIAN_POINT('',(-43.5719284230617,61.2716430719419,2.75890168678659));
#693=CARTESIAN_POINT('',(-43.8149530796321,62.4937512631644,2.75806756605276));
#694=CARTESIAN_POINT('',(-43.8664005912967,62.722719815644,2.75791303780602));
#695=CARTESIAN_POINT('',(-43.9839800370011,63.1937803525429,2.75759956117862));
#696=CARTESIAN_POINT('',(-44.0486481591009,63.4285111417861,2.75744563691517));
#697=CARTESIAN_POINT('',(-44.2606194400371,64.1300647667676,2.75699410649211));
#698=CARTESIAN_POINT('',(-44.4258876319192,64.5942603972643,2.75670670606789));
#699=CARTESIAN_POINT('',(-44.7110858388773,65.2841265951415,2.756303871421));
#700=CARTESIAN_POINT('',(-44.8068193207645,65.5004439499818,2.75618144544346));
#701=CARTESIAN_POINT('',(-45.0146610305176,65.9413992209427,2.75594046292721));
#702=CARTESIAN_POINT('',(-45.1243030714346,66.1600716409317,2.7558253897818));
#703=CARTESIAN_POINT('',(-45.4707557669708,66.8103504172994,2.7554980973353));
#704=CARTESIAN_POINT('',(-45.7250940279941,67.2362281249625,2.75530377843033));
#705=CARTESIAN_POINT('',(-46.1430948620792,67.8621172302327,2.75505526957486));
#706=CARTESIAN_POINT('',(-46.2772066424799,68.0525202705824,2.75498552861663));
#707=CARTESIAN_POINT('',(-46.5661841567778,68.4430305731137,2.75485460525626));
#708=CARTESIAN_POINT('',(-46.7158884457861,68.6354093878176,2.75479649141763));
#709=CARTESIAN_POINT('',(-47.1809816283432,69.2035755913697,2.75464539888896));
#710=CARTESIAN_POINT('',(-47.51235464233,69.5704003178852,2.75457565649118));
#711=CARTESIAN_POINT('',(-48.0426515970141,70.1012102112486,2.75452256799715));
#712=CARTESIAN_POINT('',(-48.2129382846771,70.2634292992427,2.75451411357821));
#713=CARTESIAN_POINT('',(-48.5732316455326,70.5907591217404,2.7545127448194));
#714=CARTESIAN_POINT('',(-48.7578233776322,70.7504496765353,2.75452037257527));
#715=CARTESIAN_POINT('',(-49.3251993618828,71.2172915421011,2.75456865716863));
#716=CARTESIAN_POINT('',(-49.721590379117,71.5122184371353,2.75463471493959));
#717=CARTESIAN_POINT('',(-50.5519306416934,72.0677084144391,2.75483705555354));
#718=CARTESIAN_POINT('',(-50.9618256723425,72.3135220609779,2.75496615239773));
#719=CARTESIAN_POINT('',(-51.827258429676,72.7770895836148,2.75529115942763));
#720=CARTESIAN_POINT('',(-52.2735884212749,72.9886836066765,2.75548482525319));
#721=CARTESIAN_POINT('',(-53.1941942843465,73.3702298064257,2.75593180573693));
#722=CARTESIAN_POINT('',(-53.6449281666274,73.5314218811392,2.75617282627505));
#723=CARTESIAN_POINT('',(-54.5796920709,73.8157077057249,2.75670789828667));
#724=CARTESIAN_POINT('',(-55.0550390739127,73.9352027119534,2.75699773195244));
#725=CARTESIAN_POINT('',(-56.5051418138531,74.2248599523252,2.75792311738084));
#726=CARTESIAN_POINT('',(-57.4856858240808,74.3220392204249,2.75860274677532));
#727=CARTESIAN_POINT('',(-59.4583388741966,74.3226121891591,2.75999248771703));
#728=CARTESIAN_POINT('',(-60.4312539450544,74.2265092851229,2.76068843776389));
#729=CARTESIAN_POINT('',(-61.8698907906132,73.9415969875676,2.76166709325904));
#730=CARTESIAN_POINT('',(-62.3537755437624,73.8209416120685,2.76198763047594));
#731=CARTESIAN_POINT('',(-63.2934502325943,73.5364016329494,2.76258179795336));
#732=CARTESIAN_POINT('',(-63.7551979195933,73.3713367844124,2.76285947740212));
#733=CARTESIAN_POINT('',(-66.0206126493204,72.4345697380676,2.76412719568652));
#734=CARTESIAN_POINT('',(-67.6853547834654,71.3240392457188,2.76472037934963));
#735=CARTESIAN_POINT('',(-69.7670738999959,69.2463477434625,2.76469289794604));
#736=CARTESIAN_POINT('',(-70.3957931213988,68.4825037602182,2.76453675180549));
#737=CARTESIAN_POINT('',(-71.4937352625624,66.8411556367332,2.76395217096172));
#738=CARTESIAN_POINT('',(-71.9508642986868,65.9870055539383,2.7635357480381));
#739=CARTESIAN_POINT('',(-72.706115950704,64.169774688565,2.76249323173656));
#740=CARTESIAN_POINT('',(-72.9927096890525,63.2306567159024,2.76187978107638));
#741=CARTESIAN_POINT('',(-73.2837462454211,61.7732617632079,2.76087914933603));
#742=CARTESIAN_POINT('',(-73.3549446725674,61.2952246454954,2.76054350734491));
#743=CARTESIAN_POINT('',(-73.4519604153037,60.3212250352534,2.75985561283504));
#744=CARTESIAN_POINT('',(-73.4766376102879,59.8309735524883,2.75950728573409));
#745=CARTESIAN_POINT('',(-73.4782255520669,58.3514460807861,2.75846743716637));
#746=CARTESIAN_POINT('',(-73.3832869709397,57.3778583468162,2.75779810352081));
#747=CARTESIAN_POINT('',(-73.001019962194,55.445146416708,2.75658214155635));
#748=CARTESIAN_POINT('',(-72.7149672305965,54.5000498413548,2.75604555526302));
#749=CARTESIAN_POINT('',(-71.9648939775674,52.6852791691305,2.75519420450548));
#750=CARTESIAN_POINT('',(-71.4995143917087,51.8144697495841,2.75488003940201));
#751=CARTESIAN_POINT('',(-70.8260434681604,50.8036335298583,2.75465459472224));
#752=CARTESIAN_POINT('',(-70.6784562949969,50.5933366599196,2.75461551066809));
#753=CARTESIAN_POINT('',(-70.3834578679464,50.1949432988956,2.75455760233035));
#754=CARTESIAN_POINT('',(-70.2317586494447,50.0004108510195,2.75453734265229));
#755=CARTESIAN_POINT('',(-69.7643957160771,49.4305543040963,2.75450210713766));
#756=CARTESIAN_POINT('',(-69.4364718744151,49.0689764998734,2.75451267363155));
#757=CARTESIAN_POINT('',(-68.9213068300558,48.5529897544934,2.75457747027334));
#758=CARTESIAN_POINT('',(-68.7367829997549,48.3769277333327,2.7546087824786));
#759=CARTESIAN_POINT('',(-68.3711699535093,48.0452885931006,2.75468631922083));
#760=CARTESIAN_POINT('',(-68.1852844570698,47.8849075353871,2.7547331470451));
#761=CARTESIAN_POINT('',(-67.6187600646629,47.4197605052199,2.75489650853066));
#762=CARTESIAN_POINT('',(-67.2292604807441,47.1309936327222,2.75503590695986));
#763=CARTESIAN_POINT('',(-66.6286290998157,46.7285046006291,2.7552857826529));
#764=CARTESIAN_POINT('',(-66.4099697302266,46.5894919310588,2.75538288302468));
#765=CARTESIAN_POINT('',(-65.9849313233529,46.3343159556553,2.75558310307074));
#766=CARTESIAN_POINT('',(-65.7703985973703,46.2126887674112,2.75568961491363));
#767=CARTESIAN_POINT('',(-65.1211141596691,45.8653353362684,2.75602657131796));
#768=CARTESIAN_POINT('',(-64.680685732442,45.6571373735763,2.75627441112503));
#769=CARTESIAN_POINT('',(-64.0099273993542,45.3784721924393,2.75667431185068));
#770=CARTESIAN_POINT('',(-63.7712962169864,45.2860384304151,2.75682050519994));
#771=CARTESIAN_POINT('',(-63.3060079271877,45.1192429213951,2.7571123605204));
#772=CARTESIAN_POINT('',(-63.0723746951036,45.0419829418847,2.75726218170274));
#773=CARTESIAN_POINT('',(-62.3687834868724,44.8282824989791,2.75772139404063));
#774=CARTESIAN_POINT('',(-61.8961456215408,44.7099190052985,2.75804049983037));
#775=CARTESIAN_POINT('',(-61.1827154872344,44.5672353916329,2.75853151733327));
#776=CARTESIAN_POINT('',(-60.9303325798998,44.5230834556137,2.75870687009822));
#777=CARTESIAN_POINT('',(-60.4399477416489,44.4500942186134,2.75904972549691));
#778=CARTESIAN_POINT('',(-60.1947126614439,44.4198103040062,2.75922220648529));
#779=CARTESIAN_POINT('',(-59.4590291799236,44.3473286560918,2.759740930544));
#780=CARTESIAN_POINT('',(-58.9686166072301,44.3234964412231,2.76008841490536));
#781=CARTESIAN_POINT('',(-58.478478077408,44.3235088149005,2.76043305760641));
#782=CARTESIAN_POINT('',(-58.478478077408,44.3235088149005,2.76043305760641));
#783=CARTESIAN_POINT('',(-58.4778959242282,44.3230675744228,1.93253145667943));
#784=CARTESIAN_POINT('',(-54.5884362652792,44.323067971083,1.93522784284141));
#785=CARTESIAN_POINT('',(-50.6992187252994,45.9102755281053,1.93661505321795));
#786=CARTESIAN_POINT('',(-47.9125899389037,48.675331493587,1.93659345403935));
#787=CARTESIAN_POINT('',(-45.125961152508,51.4403874590688,1.93657185486075));
#788=CARTESIAN_POINT('',(-43.4800038098987,55.3495285784737,1.9351429224845));
#789=CARTESIAN_POINT('',(-43.4778981793627,59.3151042497479,1.93238759589908));
#790=CARTESIAN_POINT('',(-43.4757925488266,63.280679921022,1.92963226931366));
#791=CARTESIAN_POINT('',(-45.1206557810534,67.1976392852008,1.92801415963251));
#792=CARTESIAN_POINT('',(-47.9071202212117,69.9653745337196,1.92776845963733));
#793=CARTESIAN_POINT('',(-50.69358466137,72.7331097822383,1.92752275964214));
#794=CARTESIAN_POINT('',(-54.5793051709655,74.3216905014853,1.92865661767958));
#795=CARTESIAN_POINT('',(-58.4725953916564,74.3230667956859,1.93139855472254));
#796=CARTESIAN_POINT('',(-62.3658856123473,74.3244430898866,1.9341404917655));
#797=CARTESIAN_POINT('',(-66.2567562474992,72.7356558162498,1.93544957148964));
#798=CARTESIAN_POINT('',(-69.0431552376462,69.9708529492195,1.93542468041437));
#799=CARTESIAN_POINT('',(-70.4363547327197,68.5884515157043,1.93541223487673));
#800=CARTESIAN_POINT('',(-71.5572566593827,66.926612456769,1.93506359982651));
#801=CARTESIAN_POINT('',(-72.3173237516048,65.1084169020462,1.93437350802282));
#802=CARTESIAN_POINT('',(-72.6973572977158,64.1993191246848,1.93402846212098));
#803=CARTESIAN_POINT('',(-72.9879072408224,63.2517351066547,1.9335978581926));
#804=CARTESIAN_POINT('',(-73.1827912699432,62.2838229940051,1.93307992153856));
#805=CARTESIAN_POINT('',(-73.3776752990639,61.3159108813555,1.93256198488453));
#806=CARTESIAN_POINT('',(-73.4769122628617,60.2946933257049,1.93193350865002));
#807=CARTESIAN_POINT('',(-73.4778884020334,59.338380370879,1.93126164827756));
#808=CARTESIAN_POINT('',(-73.4817929587202,55.5131285515753,1.92857420678776));
#809=CARTESIAN_POINT('',(-71.9479345285862,51.6419630759932,1.92748179371747));
#810=CARTESIAN_POINT('',(-69.1998899092787,48.8331272347292,1.92777445494187));
#811=CARTESIAN_POINT('',(-66.4518452899711,46.0242913934652,1.92806711616627));
#812=CARTESIAN_POINT('',(-62.5117280937716,44.3230671630391,1.92973498359692));
#813=CARTESIAN_POINT('',(-58.4778959242282,44.3230675744228,1.93253145667943));
#814=CARTESIAN_POINT('',(-58.4778959249043,44.3230675749353,1.93253241827141));
#815=CARTESIAN_POINT('',(-56.5179239581196,44.3235583096104,2.76181162841061));
#816=CARTESIAN_POINT('',(-58.9686166072301,44.3234964412231,2.76008841490536));
#817=CARTESIAN_POINT('',(-59.4590291799236,44.3473286560918,2.759740930544));
#818=CARTESIAN_POINT('',(-60.1947126614439,44.4198103040062,2.75922220648529));
#819=CARTESIAN_POINT('',(-60.4399477416489,44.4500942186134,2.75904972549691));
#820=CARTESIAN_POINT('',(-60.9303325798998,44.5230834556137,2.75870687009822));
#821=CARTESIAN_POINT('',(-61.1827154872344,44.5672353916329,2.75853151733327));
#822=CARTESIAN_POINT('',(-61.8961456215408,44.7099190052985,2.75804049983037));
#823=CARTESIAN_POINT('',(-62.3687834868724,44.8282824989791,2.75772139404063));
#824=CARTESIAN_POINT('',(-63.0723746951036,45.0419829418847,2.75726218170274));
#825=CARTESIAN_POINT('',(-63.3060079271877,45.1192429213951,2.7571123605204));
#826=CARTESIAN_POINT('',(-63.7712962169864,45.2860384304151,2.75682050519994));
#827=CARTESIAN_POINT('',(-64.0099273993542,45.3784721924393,2.75667431185068));
#828=CARTESIAN_POINT('',(-64.680685732442,45.6571373735763,2.75627441112503));
#829=CARTESIAN_POINT('',(-65.1211141596691,45.8653353362684,2.75602657131796));
#830=CARTESIAN_POINT('',(-65.7703985973703,46.2126887674112,2.75568961491363));
#831=CARTESIAN_POINT('',(-65.9849313233529,46.3343159556553,2.75558310307074));
#832=CARTESIAN_POINT('',(-66.4099697302266,46.5894919310588,2.75538288302468));
#833=CARTESIAN_POINT('',(-66.6286290998157,46.7285046006291,2.7552857826529));
#834=CARTESIAN_POINT('',(-67.2292604807441,47.1309936327222,2.75503590695986));
#835=CARTESIAN_POINT('',(-67.6187600646629,47.4197605052199,2.75489650853066));
#836=CARTESIAN_POINT('',(-68.1852844570698,47.8849075353871,2.7547331470451));
#837=CARTESIAN_POINT('',(-68.3711699535093,48.0452885931006,2.75468631922083));
#838=CARTESIAN_POINT('',(-68.7367829997549,48.3769277333327,2.7546087824786));
#839=CARTESIAN_POINT('',(-68.9213068300558,48.5529897544934,2.75457747027334));
#840=CARTESIAN_POINT('',(-69.4364718744151,49.0689764998734,2.75451267363155));
#841=CARTESIAN_POINT('',(-69.7643957160771,49.4305543040963,2.75450210713766));
#842=CARTESIAN_POINT('',(-70.2317586494447,50.0004108510195,2.75453734265229));
#843=CARTESIAN_POINT('',(-70.3834578679464,50.1949432988956,2.75455760233035));
#844=CARTESIAN_POINT('',(-70.6784562949969,50.5933366599196,2.75461551066809));
#845=CARTESIAN_POINT('',(-70.8260434681604,50.8036335298583,2.75465459472224));
#846=CARTESIAN_POINT('',(-71.4995143917087,51.8144697495841,2.75488003940201));
#847=CARTESIAN_POINT('',(-71.9648939775674,52.6852791691305,2.75519420450548));
#848=CARTESIAN_POINT('',(-72.7149672305965,54.5000498413548,2.75604555526302));
#849=CARTESIAN_POINT('',(-73.001019962194,55.445146416708,2.75658214155635));
#850=CARTESIAN_POINT('',(-73.3832869709397,57.3778583468162,2.75779810352081));
#851=CARTESIAN_POINT('',(-73.4782255520669,58.3514460807861,2.75846743716637));
#852=CARTESIAN_POINT('',(-73.4766376102879,59.8309735524883,2.75950728573409));
#853=CARTESIAN_POINT('',(-73.4519604153037,60.3212250352534,2.75985561283504));
#854=CARTESIAN_POINT('',(-73.3549446725674,61.2952246454954,2.76054350734491));
#855=CARTESIAN_POINT('',(-73.2837462454211,61.7732617632079,2.76087914933603));
#856=CARTESIAN_POINT('',(-72.9927096890525,63.2306567159024,2.76187978107638));
#857=CARTESIAN_POINT('',(-72.706115950704,64.169774688565,2.76249323173656));
#858=CARTESIAN_POINT('',(-71.9508642986868,65.9870055539383,2.7635357480381));
#859=CARTESIAN_POINT('',(-71.4937352625624,66.8411556367332,2.76395217096172));
#860=CARTESIAN_POINT('',(-70.3957931213988,68.4825037602182,2.76453675180549));
#861=CARTESIAN_POINT('',(-69.7670738999959,69.2463477434625,2.76469289794604));
#862=CARTESIAN_POINT('',(-67.6853547834654,71.3240392457188,2.76472037934963));
#863=CARTESIAN_POINT('',(-66.0206126493204,72.4345697380676,2.76412719568652));
#864=CARTESIAN_POINT('',(-63.7551979195933,73.3713367844124,2.76285947740212));
#865=CARTESIAN_POINT('',(-63.2934502325943,73.5364016329494,2.76258179795336));
#866=CARTESIAN_POINT('',(-62.3537755437624,73.8209416120685,2.76198763047594));
#867=CARTESIAN_POINT('',(-61.8698907906132,73.9415969875676,2.76166709325904));
#868=CARTESIAN_POINT('',(-60.4312539450544,74.2265092851229,2.76068843776389));
#869=CARTESIAN_POINT('',(-59.4583388741966,74.3226121891591,2.75999248771703));
#870=CARTESIAN_POINT('',(-57.4856858240808,74.3220392204249,2.75860274677532));
#871=CARTESIAN_POINT('',(-56.5051418138531,74.2248599523252,2.75792311738084));
#872=CARTESIAN_POINT('',(-55.0550390739127,73.9352027119534,2.75699773195244));
#873=CARTESIAN_POINT('',(-54.5796920709,73.8157077057249,2.75670789828667));
#874=CARTESIAN_POINT('',(-53.6449281666274,73.5314218811392,2.75617282627505));
#875=CARTESIAN_POINT('',(-53.1941942843465,73.3702298064257,2.75593180573693));
#876=CARTESIAN_POINT('',(-52.2735884212749,72.9886836066765,2.75548482525319));
#877=CARTESIAN_POINT('',(-51.827258429676,72.7770895836148,2.75529115942763));
#878=CARTESIAN_POINT('',(-50.9618256723425,72.3135220609779,2.75496615239773));
#879=CARTESIAN_POINT('',(-50.5519306416934,72.0677084144391,2.75483705555354));
#880=CARTESIAN_POINT('',(-49.721590379117,71.5122184371353,2.75463471493959));
#881=CARTESIAN_POINT('',(-49.3251993618828,71.2172915421011,2.75456865716863));
#882=CARTESIAN_POINT('',(-48.7578233776322,70.7504496765353,2.75452037257527));
#883=CARTESIAN_POINT('',(-48.5732316455326,70.5907591217404,2.7545127448194));
#884=CARTESIAN_POINT('',(-48.2129382846771,70.2634292992427,2.75451411357821));
#885=CARTESIAN_POINT('',(-48.0426515970141,70.1012102112486,2.75452256799715));
#886=CARTESIAN_POINT('',(-47.51235464233,69.5704003178852,2.75457565649118));
#887=CARTESIAN_POINT('',(-47.1809816283432,69.2035755913697,2.75464539888896));
#888=CARTESIAN_POINT('',(-46.7158884457861,68.6354093878176,2.75479649141763));
#889=CARTESIAN_POINT('',(-46.5661841567778,68.4430305731137,2.75485460525626));
#890=CARTESIAN_POINT('',(-46.2772066424799,68.0525202705824,2.75498552861663));
#891=CARTESIAN_POINT('',(-46.1430948620792,67.8621172302327,2.75505526957486));
#892=CARTESIAN_POINT('',(-45.7250940279941,67.2362281249625,2.75530377843033));
#893=CARTESIAN_POINT('',(-45.4707557669708,66.8103504172994,2.7554980973353));
#894=CARTESIAN_POINT('',(-45.1243030714346,66.1600716409317,2.7558253897818));
#895=CARTESIAN_POINT('',(-45.0146610305176,65.9413992209427,2.75594046292721));
#896=CARTESIAN_POINT('',(-44.8068193207645,65.5004439499818,2.75618144544346));
#897=CARTESIAN_POINT('',(-44.7110858388773,65.2841265951415,2.756303871421));
#898=CARTESIAN_POINT('',(-44.4258876319192,64.5942603972643,2.75670670606789));
#899=CARTESIAN_POINT('',(-44.2606194400371,64.1300647667676,2.75699410649211));
#900=CARTESIAN_POINT('',(-44.0486481591009,63.4285111417861,2.75744563691517));
#901=CARTESIAN_POINT('',(-43.9839800370011,63.1937803525429,2.75759956117862));
#902=CARTESIAN_POINT('',(-43.8664005912967,62.722719815644,2.75791303780602));
#903=CARTESIAN_POINT('',(-43.8149530796321,62.4937512631644,2.75806756605276));
#904=CARTESIAN_POINT('',(-43.5719284230617,61.2716430719419,2.75890168678659));
#905=CARTESIAN_POINT('',(-43.4777851229889,60.3029312447634,2.75959169530759));
#906=CARTESIAN_POINT('',(-43.4788665878716,58.3284441763911,2.76098265307129));
#907=CARTESIAN_POINT('',(-43.5742879357141,57.3637264741919,2.76165496186162));
#908=CARTESIAN_POINT('',(-43.9594162743912,55.4285815771472,2.76291934386491));
#909=CARTESIAN_POINT('',(-44.2441226644056,54.4909638426974,2.76348915406159));
#910=CARTESIAN_POINT('',(-44.9988770752634,52.6700132607602,2.76444961200837));
#911=CARTESIAN_POINT('',(-45.4631342416175,51.8025892927383,2.76483120386979));
#912=CARTESIAN_POINT('',(-46.5565965328094,50.1675769133569,2.76535475596107));
#913=CARTESIAN_POINT('',(-47.1748920714028,49.414289054258,2.76549333327193));
#914=CARTESIAN_POINT('',(-48.5670714159085,48.0218493959487,2.76551254988342));
#915=CARTESIAN_POINT('',(-49.330608154602,47.395328287227,2.76539086055278));
#916=CARTESIAN_POINT('',(-50.9697166333868,46.3010590388867,2.76489967783925));
#917=CARTESIAN_POINT('',(-51.822740906748,45.8449415999598,2.76454003129685));
#918=CARTESIAN_POINT('',(-54.5603154432969,44.7102260690734,2.7631382067721));
#919=CARTESIAN_POINT('',(-56.5179239581196,44.3235583096104,2.76181162841061));
#920=CARTESIAN_POINT('',(-58.9686166072301,44.3234964412231,2.76008841490536));
#921=CARTESIAN_POINT('',(-56.5172963005473,44.323067785754,1.93391200893248));
#922=CARTESIAN_POINT('',(-58.9680458318388,44.3230675228713,1.93218872259612));
#923=CARTESIAN_POINT('',(-59.4584710661178,44.3469124867263,1.93184122303953));
#924=CARTESIAN_POINT('',(-60.1941756428046,44.4194140431462,1.93132247542978));
#925=CARTESIAN_POINT('',(-60.4394181054107,44.4497047250834,1.93114998646562));
#926=CARTESIAN_POINT('',(-60.9298184416173,44.5227077870658,1.93080711490874));
#927=CARTESIAN_POINT('',(-61.1822097153758,44.5668669937991,1.93063175371755));
#928=CARTESIAN_POINT('',(-61.8956645938377,44.7095716231647,1.93014071217101));
#929=CARTESIAN_POINT('',(-62.3683203096496,44.827949655108,1.92982159014798));
#930=CARTESIAN_POINT('',(-63.0719404885747,45.0416728785622,1.92936235353731));
#931=CARTESIAN_POINT('',(-63.3055837435311,45.1189406141187,1.92921252427827));
#932=CARTESIAN_POINT('',(-63.7708928399812,45.2857519948394,1.92892065291534));
#933=CARTESIAN_POINT('',(-64.0095351443801,45.3781941240763,1.92877445136238));
#934=CARTESIAN_POINT('',(-64.6803260005378,45.6568834933653,1.92837452776476));
#935=CARTESIAN_POINT('',(-65.1207774693823,45.8650982322188,1.92812667318444));
#936=CARTESIAN_POINT('',(-65.7700986374628,46.2124780119515,1.927789695942));
#937=CARTESIAN_POINT('',(-65.9846439682899,46.3341141807795,1.92768317737502));
#938=CARTESIAN_POINT('',(-66.4097083296805,46.5893085516698,1.92748294444831));
#939=CARTESIAN_POINT('',(-66.6283815863535,46.7283310138766,1.92738583769284));
#940=CARTESIAN_POINT('',(-67.2290525549091,47.1308478717139,1.92713594527293));
#941=CARTESIAN_POINT('',(-67.6185797489812,47.4196340334696,1.92699653707809));
#942=CARTESIAN_POINT('',(-68.1851474446614,47.8848113099232,1.9268331637873));
#943=CARTESIAN_POINT('',(-68.3710476901637,48.0452026687289,1.92678633250335));
#944=CARTESIAN_POINT('',(-68.7366908733419,48.3768628864673,1.92670878993981));
#945=CARTESIAN_POINT('',(-68.9212305184302,48.5529359838468,1.92667747532582));
#946=CARTESIAN_POINT('',(-69.4364414174592,49.0689549314635,1.92661267363));
#947=CARTESIAN_POINT('',(-69.7643967546907,49.4305549667511,1.92660210618223));
#948=CARTESIAN_POINT('',(-70.2318082862427,50.0004461709796,1.9266373446546));
#949=CARTESIAN_POINT('',(-70.3835239298392,50.1949903898971,1.92665760605091));
#950=CARTESIAN_POINT('',(-70.6785556514752,50.5934077598075,1.92671551942861));
#951=CARTESIAN_POINT('',(-70.8261602213312,50.8037172528366,1.92675460693394));
#952=CARTESIAN_POINT('',(-71.4997139473277,51.8146139796633,1.92698007195042));
#953=CARTESIAN_POINT('',(-71.9651622403484,52.6854749817327,1.92729426658343));
#954=CARTESIAN_POINT('',(-72.7153719884281,54.5003526326024,1.92814570503511));
#955=CARTESIAN_POINT('',(-73.0014926036458,55.4455046782177,1.92868234951176));
#956=CARTESIAN_POINT('',(-73.3838899330979,57.3783290869513,1.92989845244642));
#957=CARTESIAN_POINT('',(-73.4788900540343,58.3519730177506,1.93056786769916));
#958=CARTESIAN_POINT('',(-73.4773875766335,59.831584047928,1.93160784955047));
#959=CARTESIAN_POINT('',(-73.4527373701016,60.3218629111037,1.93195622232152));
#960=CARTESIAN_POINT('',(-73.3557722889589,61.2959160140099,1.93264420886851));
#961=CARTESIAN_POINT('',(-73.2845972745082,61.773978942715,1.93297989667934));
#962=CARTESIAN_POINT('',(-72.9936271436062,63.2314507443466,1.93398066742678));
#963=CARTESIAN_POINT('',(-72.7070695397462,64.1706157593742,1.93459420664461));
#964=CARTESIAN_POINT('',(-71.9518726916407,65.9879297989755,1.93563687655975));
#965=CARTESIAN_POINT('',(-71.4947617184748,66.8421149765385,1.93605336257782));
#966=CARTESIAN_POINT('',(-70.3968373478802,68.483519282985,1.93663803265402));
#967=CARTESIAN_POINT('',(-69.7681173117923,69.2473833573478,1.93679420304943));
#968=CARTESIAN_POINT('',(-67.6863685639949,71.3251074841881,1.93682168870029));
#969=CARTESIAN_POINT('',(-66.0215695851863,72.4356220246253,1.9362284118188));
#970=CARTESIAN_POINT('',(-63.7560540617366,73.3723222119685,1.93496050618743));
#971=CARTESIAN_POINT('',(-63.2942848023413,73.5373714465883,1.93468278612251));
#972=CARTESIAN_POINT('',(-62.3545645217448,73.8218758729412,1.93408853305765));
#973=CARTESIAN_POINT('',(-61.8706554424342,73.9425110403015,1.93376795030798));
#974=CARTESIAN_POINT('',(-60.4319443765106,74.2273581733668,1.93278915824448));
#975=CARTESIAN_POINT('',(-59.4589766310664,74.3234103279779,1.93209311430945));
#976=CARTESIAN_POINT('',(-57.4862141528105,74.3227232641109,1.93070319417183));
#977=CARTESIAN_POINT('',(-56.5056144592836,74.2254817504579,1.9300234813428));
#978=CARTESIAN_POINT('',(-55.0554285994962,73.9357260580659,1.92909798788719));
#979=CARTESIAN_POINT('',(-54.5800542202157,73.8161977090079,1.9288081213743));
#980=CARTESIAN_POINT('',(-53.6452362854873,73.5318444436985,1.92827299032233));
#981=CARTESIAN_POINT('',(-53.1944762540141,73.370618931144,1.92803194402905));
#982=CARTESIAN_POINT('',(-52.2738168435154,72.9890027589615,1.92758491710851));
#983=CARTESIAN_POINT('',(-51.8274608197344,72.7773739590534,1.92739123190078));
#984=CARTESIAN_POINT('',(-50.9619773783915,72.3137375053525,1.92706619322447));
#985=CARTESIAN_POINT('',(-50.5520582405058,72.0678904700357,1.92693708431999));
#986=CARTESIAN_POINT('',(-49.7216688626071,71.5123314672363,1.92673472529184));
#987=CARTESIAN_POINT('',(-49.3252542513476,71.2173709012272,1.92666866182967));
#988=CARTESIAN_POINT('',(-48.7578441473156,70.750479841866,1.92662037314483));
#989=CARTESIAN_POINT('',(-48.5732412539758,70.5907731077914,1.92661274476692));
#990=CARTESIAN_POINT('',(-48.2129259673811,70.2634113709626,1.92661411363759));
#991=CARTESIAN_POINT('',(-48.0426288495386,70.1011770380524,1.92662256874773));
#992=CARTESIAN_POINT('',(-47.5122991542971,69.5703191445639,1.9266756614239));
#993=CARTESIAN_POINT('',(-47.1809053216743,69.2034637005601,1.92674540920143));
#994=CARTESIAN_POINT('',(-46.7157821965286,68.6352532938739,1.92689651275928));
#995=CARTESIAN_POINT('',(-46.566068141167,68.4428600569087,1.92695463076937));
#996=CARTESIAN_POINT('',(-46.2770714885788,68.0523215249522,1.92708556332831));
#997=CARTESIAN_POINT('',(-46.1429506898117,67.8619051969342,1.9271553091062));
#998=CARTESIAN_POINT('',(-45.7249212220546,67.2359740201005,1.9274038347657));
#999=CARTESIAN_POINT('',(-45.4705648047191,66.8100697973597,1.92759816635539));
#1000=CARTESIAN_POINT('',(-45.1240860339245,66.159753416545,1.92792547924875));
#1001=CARTESIAN_POINT('',(-45.0144354948285,65.9410688231373,1.92804055944855));
#1002=CARTESIAN_POINT('',(-44.8065771401142,65.500089906855,1.92828155644054));
#1003=CARTESIAN_POINT('',(-44.7108357241839,65.2837613765767,1.92840398963826));
#1004=CARTESIAN_POINT('',(-44.4256129161169,64.5938608945821,1.92880684755829));
#1005=CARTESIAN_POINT('',(-44.2603290970666,64.1296439880352,1.92909426396063));
#1006=CARTESIAN_POINT('',(-44.0483353219413,63.4280606433132,1.92954581849606));
#1007=CARTESIAN_POINT('',(-43.9836598599266,63.193320313349,1.92969975082303));
#1008=CARTESIAN_POINT('',(-43.8660660194465,62.7222413991079,1.93001324355823));
#1009=CARTESIAN_POINT('',(-43.8146116680117,62.493264273881,1.93016777960073));
#1010=CARTESIAN_POINT('',(-43.5715513030149,61.2711122742177,1.93100194160087));
#1011=CARTESIAN_POINT('',(-43.4773821645779,60.3023717869009,1.93169198168369));
#1012=CARTESIAN_POINT('',(-43.4784141940383,58.3278367124459,1.93308299881694));
#1013=CARTESIAN_POINT('',(-43.5738129526871,57.3631006401906,1.93375533426279));
#1014=CARTESIAN_POINT('',(-43.958898303719,55.4279279321121,1.93501976353533));
#1015=CARTESIAN_POINT('',(-44.2435852208628,54.4903015210421,1.93558959322947));
#1016=CARTESIAN_POINT('',(-44.9983038027198,52.6693418596423,1.93655008252386));
#1017=CARTESIAN_POINT('',(-45.4625449344907,51.8019175950772,1.9369316859649));
#1018=CARTESIAN_POINT('',(-46.5559790507994,50.1669113272873,1.93745525365481));
#1019=CARTESIAN_POINT('',(-47.1742626831656,49.4136297812197,1.93759383490137));
#1020=CARTESIAN_POINT('',(-48.5664229305192,48.0212081831076,1.9376130520665));
#1021=CARTESIAN_POINT('',(-49.3299526797149,47.3946987147975,1.93749135928772));
#1022=CARTESIAN_POINT('',(-50.9690537162165,46.3004570243487,1.93700016200232));
#1023=CARTESIAN_POINT('',(-51.8220775338684,45.8443550870802,1.93664050462254));
#1024=CARTESIAN_POINT('',(-54.5596631107575,44.7096927951845,1.9352386347254));
#1025=CARTESIAN_POINT('',(-56.5172963005473,44.323067785754,1.93391200893248));
#1026=CARTESIAN_POINT('',(-58.9680458318388,44.3230675228713,1.93218872259612));
#1027=CARTESIAN_POINT('',(0.,0.,2.8279));
#1028=CARTESIAN_POINT('',(24.6880463192087,-106.9845768808,2.80003531747293));
#1029=CARTESIAN_POINT('',(23.9569630927334,-105.094868281242,2.79076063700135));
#1030=CARTESIAN_POINT('',(23.4252410256961,-103.197025755043,2.78358117059559));
#1031=CARTESIAN_POINT('',(22.8906493548155,-100.378454509651,2.77504811168354));
#1032=CARTESIAN_POINT('',(22.7563003151698,-99.4435338681986,2.7725785732144));
#1033=CARTESIAN_POINT('',(22.6163169541138,-98.0522684042436,2.76934134515285));
#1034=CARTESIAN_POINT('',(22.579915123212,-97.5903601314208,2.76834023702258));
#1035=CARTESIAN_POINT('',(22.5269605361677,-96.6708713640994,2.76647951265888));
#1036=CARTESIAN_POINT('',(22.5109297379333,-96.2474833089285,2.76567967240553));
#1037=CARTESIAN_POINT('',(22.4436899207423,-91.8436535698795,2.75798094089139));
#1038=CARTESIAN_POINT('',(23.0592123396575,-88.1193779727089,2.75562191668809));
#1039=CARTESIAN_POINT('',(25.6299138107576,-80.8189772744033,2.75401203480187));
#1040=CARTESIAN_POINT('',(27.5429089841229,-77.4593924245601,2.75490500116866));
#1041=CARTESIAN_POINT('',(32.4240940439415,-71.5738531396881,2.75653195011927));
#1042=CARTESIAN_POINT('',(35.4220464399666,-69.0371872427144,2.7572676851522));
#1043=CARTESIAN_POINT('',(42.1013229775476,-65.1844965802523,2.75726483481505));
#1044=CARTESIAN_POINT('',(45.738971247546,-63.8743450275386,2.75653931753628));
#1045=CARTESIAN_POINT('',(51.4236437806756,-62.9032774459532,2.75531219413386));
#1046=CARTESIAN_POINT('',(53.3324797821776,-62.749494476578,2.75490428533634));
#1047=CARTESIAN_POINT('',(57.1575531705807,-62.778158705248,2.75445598914095));
#1048=CARTESIAN_POINT('',(59.1170294013848,-62.9693418615108,2.75442386249472));
#1049=CARTESIAN_POINT('',(61.9006793931832,-63.4896579290168,2.75501119449501));
#1050=CARTESIAN_POINT('',(62.8257359350752,-63.704390555926,2.75531382751524));
#1051=CARTESIAN_POINT('',(64.6663292260541,-64.2186288446057,2.75621241099581));
#1052=CARTESIAN_POINT('',(65.6089863982591,-64.5283859504072,2.75683188881229));
#1053=CARTESIAN_POINT('',(67.3709199131843,-65.1942393435112,2.75836451113978));
#1054=CARTESIAN_POINT('',(68.2455705893989,-65.5685915285236,2.75931402239429));
#1055=CARTESIAN_POINT('',(69.5434206151825,-66.1941180217134,2.76109101839696));
#1056=CARTESIAN_POINT('',(69.9736732407943,-66.4132953519599,2.76174226780787));
#1057=CARTESIAN_POINT('',(70.8285615372609,-66.8733188107634,2.76317722768933));
#1058=CARTESIAN_POINT('',(71.2837606625469,-67.1324338822054,2.7640231630348));
#1059=CARTESIAN_POINT('',(74.8007994792823,-69.2346766694907,2.7711828993845));
#1060=CARTESIAN_POINT('',(77.7644921611046,-71.7157165985304,2.78147969560412));
#1061=CARTESIAN_POINT('',(80.3073382322975,-74.8727637226419,2.80003531747293));
#1062=CARTESIAN_POINT('',(80.3073382322979,74.8727637226416,2.80003531747293));
#1063=CARTESIAN_POINT('',(79.0363441927352,73.2947727766612,2.79076063700257));
#1064=CARTESIAN_POINT('',(77.6586253862824,71.8853666958682,2.78358117059701));
#1065=CARTESIAN_POINT('',(75.4849669208473,70.0131111055464,2.77504811168472));
#1066=CARTESIAN_POINT('',(74.7424764146306,69.4293011034886,2.77257857321539));
#1067=CARTESIAN_POINT('',(73.6075968598984,68.6124392246492,2.7693413451535));
#1068=CARTESIAN_POINT('',(73.2257734768378,68.3499601778983,2.76834023702311));
#1069=CARTESIAN_POINT('',(72.4559501392944,67.8443557765269,2.76647951265915));
#1070=CARTESIAN_POINT('',(72.0973007263568,67.618778670036,2.7656796724045));
#1071=CARTESIAN_POINT('',(68.3170922117413,65.3586324132433,2.75798094089969));
#1072=CARTESIAN_POINT('',(64.7840137205546,64.0295526641951,2.75562191668823));
#1073=CARTESIAN_POINT('',(57.1763305217975,62.6056450936856,2.75401203480173));
#1074=CARTESIAN_POINT('',(53.310347120248,62.5825550816145,2.75490500116742));
#1075=CARTESIAN_POINT('',(45.7727280328037,63.8670157116316,2.75653195012051));
#1076=CARTESIAN_POINT('',(42.0769347222919,65.1949857007024,2.75726768515264));
#1077=CARTESIAN_POINT('',(35.4007684983632,69.0530635133137,2.75726483481461));
#1078=CARTESIAN_POINT('',(32.4473198101916,71.5482835761903,2.75653931753002));
#1079=CARTESIAN_POINT('',(28.7640143641466,75.9858205826632,2.75531219413699));
#1080=CARTESIAN_POINT('',(27.6764163996139,77.5620295788598,2.75490428533598));
#1081=CARTESIAN_POINT('',(25.7887036569111,80.8889724141213,2.75445598914131));
#1082=CARTESIAN_POINT('',(24.9745350096331,82.6815201924853,2.75442386249557));
#1083=CARTESIAN_POINT('',(24.0333169481862,85.3523898285916,2.75501119449459));
#1084=CARTESIAN_POINT('',(23.756752587572,86.2608786063356,2.75531382751417));
#1085=CARTESIAN_POINT('',(23.2817993637496,88.1119982987386,2.75621241099424));
#1086=CARTESIAN_POINT('',(23.0787282992201,89.0832419150904,2.75683188881442));
#1087=CARTESIAN_POINT('',(22.7744074952015,90.9420477904531,2.75836451113766));
#1088=CARTESIAN_POINT('',(22.6612806592891,91.8866935868304,2.75931402239023));
#1089=CARTESIAN_POINT('',(22.554077480279,93.3234279261001,2.76109101839218));
#1090=CARTESIAN_POINT('',(22.5287643034171,93.8056262953619,2.76174226780323));
#1091=CARTESIAN_POINT('',(22.4997121568674,94.7759930081047,2.76317722768606));
#1092=CARTESIAN_POINT('',(22.4965128286198,95.2997645522253,2.76402316303493));
#1093=CARTESIAN_POINT('',(22.5585890787471,99.3967309066506,2.77118289938349));
#1094=CARTESIAN_POINT('',(23.2253863441981,103.203884022706,2.7814796956018));
#1095=CARTESIAN_POINT('',(24.6880463192093,106.9845768808,2.80003531747293));
#1096=CARTESIAN_POINT('',(-104.995300969591,-32.1123494564789,2.80003531747293));
#1097=CARTESIAN_POINT('',(-101.946729357343,-31.6372305800907,2.78591239405116));
#1098=CARTESIAN_POINT('',(-98.5780352478757,-30.6673461466371,2.77508260731433));
#1099=CARTESIAN_POINT('',(-93.4613258856961,-28.0427639179871,2.7637776322365));
#1100=CARTESIAN_POINT('',(-91.7486339733447,-26.9733984824699,2.76083259138178));
#1101=CARTESIAN_POINT('',(-89.2545625333132,-25.0396380005593,2.75764995635657));
#1102=CARTESIAN_POINT('',(-88.4359444218188,-24.3402700558342,2.75679489905764));
#1103=CARTESIAN_POINT('',(-87.2399549761614,-23.2062957051593,2.75582104467346));
#1104=CARTESIAN_POINT('',(-86.8466290703695,-22.8141668414589,2.7555478818061));
#1105=CARTESIAN_POINT('',(-86.2663725969656,-22.2045857608891,2.75521532039612));
#1106=CARTESIAN_POINT('',(-86.074576658439,-21.9978286453602,2.75511733040797));
#1107=CARTESIAN_POINT('',(-85.6945278505732,-21.577172446291,2.75494707806201));
#1108=CARTESIAN_POINT('',(-85.4759003219962,-21.3278219362208,2.75486513280604));
#1109=CARTESIAN_POINT('',(-80.3293859250525,-15.3211326492599,2.75322451653893));
#1110=CARTESIAN_POINT('',(-77.5031177361768,-7.69278533472736,2.75403752389775));
#1111=CARTESIAN_POINT('',(-77.4968876111825,7.6664195107545,2.7604949960695));
#1112=CARTESIAN_POINT('',(-80.3329767992221,15.3280654377143,2.75321915458281));
#1113=CARTESIAN_POINT('',(-85.4808629522687,21.3335269334119,2.75486691916973));
#1114=CARTESIAN_POINT('',(-85.6985491537437,21.5816998991053,2.75494847349307));
#1115=CARTESIAN_POINT('',(-86.0785248415827,22.0021205799185,2.75511880985677));
#1116=CARTESIAN_POINT('',(-86.2702824338598,22.2087627238561,2.75521684000008));
#1117=CARTESIAN_POINT('',(-86.8504191064548,22.8180072404779,2.75554951631438));
#1118=CARTESIAN_POINT('',(-87.2436588015617,23.2099228712101,2.75582274836975));
#1119=CARTESIAN_POINT('',(-88.4393751525904,24.3432905314446,2.75679678807336));
#1120=CARTESIAN_POINT('',(-89.2577920217335,25.0422981364635,2.75765193925911));
#1121=CARTESIAN_POINT('',(-91.7512351740902,26.9751021018526,2.76083476696639));
#1122=CARTESIAN_POINT('',(-93.4634772232321,28.04399680619,2.76377981763795));
#1123=CARTESIAN_POINT('',(-98.5789465136201,30.6675546287911,2.77508446625275));
#1124=CARTESIAN_POINT('',(-101.946981210687,31.6372698313509,2.7859135607961));
#1125=CARTESIAN_POINT('',(-104.995300969591,32.1123494564789,2.80003531747293));
#1126=CARTESIAN_POINT('',(0.,0.,2.8279));
#1127=CARTESIAN_POINT('',(0.,0.,2.8279));
#1128=CARTESIAN_POINT('',(0.,0.,2.8279));
#1129=CARTESIAN_POINT('',(0.,0.,2.8279));
#1130=CARTESIAN_POINT('',(0.,0.,2.8279));
#1131=CARTESIAN_POINT('',(0.,0.,2.8279));
#1132=CARTESIAN_POINT('',(0.,0.,2.8279));
#1133=CARTESIAN_POINT('',(26.3984707877304,0.,2.8279));
#1134=CARTESIAN_POINT('',(26.3984707877304,52.7969415754608,2.8279));
#1135=CARTESIAN_POINT('',(-26.3984707877304,52.7969415754608,2.8279));
#1136=CARTESIAN_POINT('',(-26.3984707877304,0.,2.8279));
#1137=CARTESIAN_POINT('',(-26.3984707877304,-52.7969415754608,2.8279));
#1138=CARTESIAN_POINT('',(26.3984707877304,-52.7969415754608,2.8279));
#1139=CARTESIAN_POINT('',(26.3984707877304,0.,2.8279));
#1140=CARTESIAN_POINT('',(47.8719726335819,0.,2.78950973504734));
#1141=CARTESIAN_POINT('',(47.8719726335819,95.7439452671638,2.78950973504734));
#1142=CARTESIAN_POINT('',(-47.8719726335819,95.7439452671638,2.78950973504734));
#1143=CARTESIAN_POINT('',(-47.8719726335819,0.,2.78950973504734));
#1144=CARTESIAN_POINT('',(-47.8719726335819,-95.7439452671638,2.78950973504734));
#1145=CARTESIAN_POINT('',(47.8719726335819,-95.7439452671638,2.78950973504734));
#1146=CARTESIAN_POINT('',(47.8719726335819,0.,2.78950973504734));
#1147=CARTESIAN_POINT('',(83.644040677479,0.,2.74730564602906));
#1148=CARTESIAN_POINT('',(83.644040677479,167.288081354958,2.74730564602906));
#1149=CARTESIAN_POINT('',(-83.644040677479,167.288081354958,2.74730564602906));
#1150=CARTESIAN_POINT('',(-83.644040677479,0.,2.74730564602906));
#1151=CARTESIAN_POINT('',(-83.644040677479,-167.288081354958,2.74730564602906));
#1152=CARTESIAN_POINT('',(83.644040677479,-167.288081354958,2.74730564602906));
#1153=CARTESIAN_POINT('',(83.644040677479,0.,2.74730564602906));
#1154=CARTESIAN_POINT('',(97.971984641725,0.,2.74535849495144));
#1155=CARTESIAN_POINT('',(97.971984641725,195.94396928345,2.74535849495144));
#1156=CARTESIAN_POINT('',(-97.971984641725,195.94396928345,2.74535849495144));
#1157=CARTESIAN_POINT('',(-97.971984641725,0.,2.74535849495144));
#1158=CARTESIAN_POINT('',(-97.971984641725,-195.94396928345,2.74535849495144));
#1159=CARTESIAN_POINT('',(97.971984641725,-195.94396928345,2.74535849495144));
#1160=CARTESIAN_POINT('',(97.971984641725,0.,2.74535849495144));
#1161=CARTESIAN_POINT('',(109.796171706591,0.,2.80003531747293));
#1162=CARTESIAN_POINT('',(109.796171706591,219.592343413182,2.80003531747293));
#1163=CARTESIAN_POINT('',(-109.796171706591,219.592343413182,2.80003531747293));
#1164=CARTESIAN_POINT('',(-109.796171706591,0.,2.80003531747293));
#1165=CARTESIAN_POINT('',(-109.796171706591,-219.592343413182,2.80003531747293));
#1166=CARTESIAN_POINT('',(109.796171706591,-219.592343413182,2.80003531747293));
#1167=CARTESIAN_POINT('',(109.796171706591,0.,2.80003531747293));
#1168=CARTESIAN_POINT('',(-110.,0.,2.8));
#1169=CARTESIAN_POINT('',(-110.,0.,-1.));
#1170=CARTESIAN_POINT('',(-62.4414977309765,44.3227729540029,-0.070216729546058));
#1171=CARTESIAN_POINT('',(-54.5137140684369,44.3227737624457,-0.0647211590945632));
#1172=CARTESIAN_POINT('',(-50.6375602558088,45.9491201255956,-0.0624620150575109));
#1173=CARTESIAN_POINT('',(-45.1025451520894,51.4851292451391,-0.0625365824162429));
#1174=CARTESIAN_POINT('',(-43.4796858374304,55.4018698119622,-0.0648942406248006));
#1175=CARTESIAN_POINT('',(-43.4755304722565,63.2277502527787,-0.0703313483963285));
#1176=CARTESIAN_POINT('',(-45.0668695186331,67.1223636700468,-0.0730441276308859));
#1177=CARTESIAN_POINT('',(-50.6642550007578,72.72549671171,-0.0736294972213764));
#1178=CARTESIAN_POINT('',(-54.5567176068066,74.3213884026393,-0.0713598316549788));
#1179=CARTESIAN_POINT('',(-62.3878931245842,74.3241567559338,-0.0658465849972524));
#1180=CARTESIAN_POINT('',(-66.3051542811451,72.7030521672044,-0.0631640024722339));
#1181=CARTESIAN_POINT('',(-71.842667793127,67.1762755326872,-0.0632370451078146));
#1182=CARTESIAN_POINT('',(-73.4735601398911,63.2943033833109,-0.0659616346271819));
#1183=CARTESIAN_POINT('',(-73.4816366147523,55.3818689258144,-0.0715184940757383));
#1184=CARTESIAN_POINT('',(-71.8602820621063,51.4966783763629,-0.0736809146637936));
#1185=CARTESIAN_POINT('',(-66.3250728611509,45.9526177924105,-0.0729602660236751));
#1186=CARTESIAN_POINT('',(-62.4414977309765,44.3227729540029,-0.070216729546058));
#1187=CARTESIAN_POINT('',(-54.5137140684369,44.3227737624457,-0.0647211590945632));
#1188=CARTESIAN_POINT('',(-58.4776058997067,44.3227733582243,-0.0674689443203106));
#1189=CARTESIAN_POINT('',(0.,0.,0.));
#1190=CARTESIAN_POINT('',(24.6889071241306,-106.988307141557,-0.0278772002428455));
#1191=CARTESIAN_POINT('',(23.3118298483152,-103.428486928788,-0.0453374625256337));
#1192=CARTESIAN_POINT('',(22.5621297515966,-99.5750530666287,-0.0564099653638688));
#1193=CARTESIAN_POINT('',(22.445465359937,-91.9441689043293,-0.0697452698386746));
#1194=CARTESIAN_POINT('',(23.0773468545662,-88.0686858209242,-0.072286442640811));
#1195=CARTESIAN_POINT('',(25.6118964491446,-80.8700757012656,-0.0738544413315612));
#1196=CARTESIAN_POINT('',(27.5468223234122,-77.4543178365401,-0.072962179833445));
#1197=CARTESIAN_POINT('',(32.4199043498383,-71.5782407353915,-0.0713360680965626));
#1198=CARTESIAN_POINT('',(35.4087416823752,-69.0442354913399,-0.0706034995956301));
#1199=CARTESIAN_POINT('',(42.1140938337077,-65.1765241781481,-0.0706063571659194));
#1200=CARTESIAN_POINT('',(45.7235810093586,-63.876524349454,-0.0713240992984006));
#1201=CARTESIAN_POINT('',(53.3334676535112,-62.5768254397336,-0.0729686231747877));
#1202=CARTESIAN_POINT('',(57.1877424493608,-62.6086618569874,-0.0738608479581576));
#1203=CARTESIAN_POINT('',(64.7581421224431,-64.0240804135748,-0.0722831152031831));
#1204=CARTESIAN_POINT('',(68.3773487622278,-65.3953780709942,-0.0697952720225724));
#1205=CARTESIAN_POINT('',(74.9738948891362,-69.338683206699,-0.0563710977430938));
#1206=CARTESIAN_POINT('',(77.9040489270843,-71.8883139102926,-0.0454230248054688));
#1207=CARTESIAN_POINT('',(80.3101383304145,-74.8753743319502,-0.0278772002428457));
#1208=CARTESIAN_POINT('',(24.6889071241306,-106.988307141557,-0.0278772002427302));
#1209=CARTESIAN_POINT('',(80.3101383304145,-74.8753743319502,-0.0278772002428456));
#1210=CARTESIAN_POINT('',(0.,0.,-0.0278772002428456));
#1211=CARTESIAN_POINT('',(-104.999045454545,-32.1129328096064,-0.0278772002428456));
#1212=CARTESIAN_POINT('',(-104.999045454545,32.1129328096064,-0.0278772002428459));
#1213=CARTESIAN_POINT('',(-101.227612079475,31.5256066070524,-0.045337462525634));
#1214=CARTESIAN_POINT('',(-97.5155904146824,30.2481490049508,-0.0564099653638692));
#1215=CARTESIAN_POINT('',(-90.8487186809649,26.5337412506954,-0.0697452698386747));
#1216=CARTESIAN_POINT('',(-87.8083926261139,24.0487742824627,-0.072286442640811));
#1217=CARTESIAN_POINT('',(-82.841488187839,18.254484886577,-0.0738544413315612));
#1218=CARTESIAN_POINT('',(-80.850818040944,14.8709109926586,-0.072962179833445));
#1219=CARTESIAN_POINT('',(-78.1985270099663,7.71265961247404,-0.0713360680965626));
#1220=CARTESIAN_POINT('',(-77.4984327615632,3.85724793269187,-0.0706034995956301));
#1221=CARTESIAN_POINT('',(-77.5015725855008,-3.88361302827862,-0.0706063571659195));
#1222=CARTESIAN_POINT('',(-78.1804832967617,-7.65952053137348,-0.0713240992984006));
#1223=CARTESIAN_POINT('',(-80.8598543457492,-14.8997251399897,-0.0729686231747877));
#1224=CARTESIAN_POINT('',(-82.8145628897813,-18.2217068177347,-0.0738608479581576));
#1225=CARTESIAN_POINT('',(-87.825551153315,-24.0701559731316,-0.0722831152031831));
#1226=CARTESIAN_POINT('',(-90.8227330806826,-26.5188320360208,-0.0697952720225724));
#1227=CARTESIAN_POINT('',(-97.5360085665309,-30.259955991307,-0.0563710977430937));
#1228=CARTESIAN_POINT('',(-101.209130545086,-31.5227284733747,-0.045423024805469));
#1229=CARTESIAN_POINT('',(-104.999045454545,-32.1129328096064,-0.0278772002428459));
#1230=CARTESIAN_POINT('',(-104.999045454545,32.1129328096064,-0.0278772002428456));
#1231=CARTESIAN_POINT('',(0.,0.,-0.0278772002428456));
#1232=CARTESIAN_POINT('',(24.6889071241311,106.988307141556,-0.0278772002428455));
#1233=CARTESIAN_POINT('',(80.3101383304149,74.8753743319499,-0.0278772002428455));
#1234=CARTESIAN_POINT('',(77.9157822311595,71.9028803217351,-0.0453374625256338));
#1235=CARTESIAN_POINT('',(74.9534606630858,69.3269040616776,-0.0564099653638689));
#1236=CARTESIAN_POINT('',(68.403253321028,65.4104276536336,-0.0697452698386746));
#1237=CARTESIAN_POINT('',(64.7310457715478,64.0199115384612,-0.072286442640811));
#1238=CARTESIAN_POINT('',(57.2295917386945,62.6155908146884,-0.0738544413315612));
#1239=CARTESIAN_POINT('',(53.3039957175318,62.5834068438812,-0.072962179833445));
#1240=CARTESIAN_POINT('',(45.7786226601281,63.8655811229172,-0.0713360680965626));
#1241=CARTESIAN_POINT('',(42.0896910791879,65.1869875586478,-0.0706034995956301));
#1242=CARTESIAN_POINT('',(35.3874787517931,69.0601372064265,-0.0706063571659195));
#1243=CARTESIAN_POINT('',(32.4569022874032,71.5360448808272,-0.0713240992984006));
#1244=CARTESIAN_POINT('',(27.5263866922381,77.4765505797231,-0.0729686231747877));
#1245=CARTESIAN_POINT('',(25.6268204404205,80.8303686747219,-0.0738608479581576));
#1246=CARTESIAN_POINT('',(23.067409030872,88.0942363867063,-0.0722831152031831));
#1247=CARTESIAN_POINT('',(22.445384318455,91.9142101070149,-0.0697952720225724));
#1248=CARTESIAN_POINT('',(22.5621136773948,99.5986391980058,-0.0563710977430937));
#1249=CARTESIAN_POINT('',(23.3050816180017,103.411042383667,-0.0454230248054688));
#1250=CARTESIAN_POINT('',(24.6889071241311,106.988307141556,-0.0278772002428456));
#1251=CARTESIAN_POINT('',(80.3101383304149,74.8753743319499,-0.0278772002428461));
#1252=CARTESIAN_POINT('',(0.,0.,-0.0278772002428456));
#1253=CARTESIAN_POINT('',(0.,0.,0.));
#1254=CARTESIAN_POINT('',(31.6707498269842,0.,0.));
#1255=CARTESIAN_POINT('',(57.3901617663165,0.,-0.0489156270229458));
#1256=CARTESIAN_POINT('',(78.3797541996628,0.,-0.0924300281228151));
#1257=CARTESIAN_POINT('',(95.5984009074915,0.,-0.0935055111220389));
#1258=CARTESIAN_POINT('',(109.8,0.,-0.0278772002428455));
#1259=CARTESIAN_POINT('',(0.,0.,0.));
#1260=CARTESIAN_POINT('',(-110.,0.,2.8));
#1261=CARTESIAN_POINT('',(-107.889954545455,20.3911183651057,2.8));
#1262=CARTESIAN_POINT('',(-107.889954545455,-20.3911183651057,2.8));
#1263=CARTESIAN_POINT('',(0.,0.,2.8));
#1264=CARTESIAN_POINT('',(0.,0.,2.8));
#1265=CARTESIAN_POINT('',(-110.,0.,2.8));
#1266=CARTESIAN_POINT('',(-107.889954545455,20.3911183651057,0.));
#1267=CARTESIAN_POINT('',(-107.889954545455,20.3911183651057,-1.));
#1268=CARTESIAN_POINT('',(-110.,0.,-1.));
#1269=CARTESIAN_POINT('',(-107.889954545455,-20.3911183651057,-1.));
#1270=CARTESIAN_POINT('',(-107.889954545455,-20.3911183651057,0.));
#1271=CARTESIAN_POINT('',(-110.,0.,-1.));
#1272=CARTESIAN_POINT('',(-110.,0.,-1.));
#1273=CARTESIAN_POINT('',(-104.999045454545,-32.1129328096064,-1.));
#1274=CARTESIAN_POINT('',(-104.999045454545,32.1129328096064,-1.));
#1275=CARTESIAN_POINT('',(-104.999045454545,32.1129328096064,0.));
#1276=CARTESIAN_POINT('',(-104.999045454545,-32.1129328096064,0.));
#1277=CARTESIAN_POINT('',(-110.,0.,-1.));
#1278=CARTESIAN_POINT('',(0.,0.,-1.));
#1279=CARTESIAN_POINT('',(0.,0.,-1.));
#1280=CARTESIAN_POINT('',(-110.,0.,-1.));
#1281=CARTESIAN_POINT('',(0.,0.,-1.));
#1282=CARTESIAN_POINT('',(80.3101383304149,74.8753743319499,-1.));
#1283=CARTESIAN_POINT('',(71.6042037884845,83.2398822669589,-1.));
#1284=CARTESIAN_POINT('',(55.0000000000003,95.2627944162881,-1.));
#1285=CARTESIAN_POINT('',(24.6889071241311,106.988307141556,-1.));
#1286=CARTESIAN_POINT('',(0.,0.,-1.));
#1287=CARTESIAN_POINT('',(36.2857507569706,103.631000632065,-1.));
#1288=CARTESIAN_POINT('',(55.0000000000003,95.2627944162881,-1.));
#1289=CARTESIAN_POINT('',(55.0000000000003,95.2627944162881,-1.));
#1290=CARTESIAN_POINT('',(80.3101383304149,74.8753743319499,0.));
#1291=CARTESIAN_POINT('',(24.6889071241311,106.988307141556,0.));
#1292=CARTESIAN_POINT('',(55.0000000000003,95.2627944162881,-1.));
#1293=CARTESIAN_POINT('',(0.,0.,-1.));
#1294=CARTESIAN_POINT('',(24.6889071241306,-106.988307141557,-1.));
#1295=CARTESIAN_POINT('',(36.2857507569701,-103.631000632065,-1.));
#1296=CARTESIAN_POINT('',(54.9999999999999,-95.2627944162883,-1.));
#1297=CARTESIAN_POINT('',(80.3101383304146,-74.8753743319503,-1.));
#1298=CARTESIAN_POINT('',(0.,0.,-1.));
#1299=CARTESIAN_POINT('',(71.6042037884841,-83.2398822669592,-1.));
#1300=CARTESIAN_POINT('',(54.9999999999999,-95.2627944162883,-1.));
#1301=CARTESIAN_POINT('',(54.9999999999999,-95.2627944162883,-1.));
#1302=CARTESIAN_POINT('',(24.6889071241306,-106.988307141557,0.));
#1303=CARTESIAN_POINT('',(80.3101383304146,-74.8753743319503,0.));
#1304=CARTESIAN_POINT('',(54.9999999999999,-95.2627944162883,-1.));
#1305=CARTESIAN_POINT('',(55.0000000000003,95.2627944162881,2.8));
#1306=CARTESIAN_POINT('',(55.0000000000003,95.2627944162881,-1.));
#1307=CARTESIAN_POINT('',(0.,0.,2.8));
#1308=CARTESIAN_POINT('',(71.6042037884845,83.2398822669589,2.8));
#1309=CARTESIAN_POINT('',(55.0000000000003,95.2627944162881,2.8));
#1310=CARTESIAN_POINT('',(36.2857507569706,103.631000632065,2.8));
#1311=CARTESIAN_POINT('',(0.,0.,2.8));
#1312=CARTESIAN_POINT('',(55.0000000000003,95.2627944162881,2.8));
#1313=CARTESIAN_POINT('',(54.9999999999999,-95.2627944162883,2.8));
#1314=CARTESIAN_POINT('',(54.9999999999999,-95.2627944162883,-1.));
#1315=CARTESIAN_POINT('',(0.,0.,2.8));
#1316=CARTESIAN_POINT('',(36.2857507569701,-103.631000632065,2.8));
#1317=CARTESIAN_POINT('',(54.9999999999999,-95.2627944162883,2.8));
#1318=CARTESIAN_POINT('',(71.6042037884841,-83.2398822669592,2.8));
#1319=CARTESIAN_POINT('',(0.,0.,2.8));
#1320=CARTESIAN_POINT('',(54.9999999999999,-95.2627944162883,2.8));
#1321=CARTESIAN_POINT('',(36.2857507569701,-103.631000632065,0.));
#1322=CARTESIAN_POINT('',(71.6042037884841,-83.2398822669592,0.));
#1323=CARTESIAN_POINT('',(54.9999999999999,-95.2627944162883,-1.));
#1324=CARTESIAN_POINT('',(71.6042037884845,83.2398822669589,0.));
#1325=CARTESIAN_POINT('',(36.2857507569706,103.631000632065,0.));
#1326=CARTESIAN_POINT('',(55.0000000000003,95.2627944162881,-1.));
#1327=CARTESIAN_POINT('',(0.,0.,10.));
#1328=CARTESIAN_POINT('',(0.,0.,10.));
#1329=CARTESIAN_POINT('',(0.,0.,10.));
#1330=CARTESIAN_POINT('',(-58.4776053983359,59.3227726873014,-0.0731330033986798));
#1331=MECHANICAL_DESIGN_GEOMETRIC_PRESENTATION_REPRESENTATION('',(#32),
#1332);
#1332=(
GEOMETRIC_REPRESENTATION_CONTEXT(3)
GLOBAL_UNCERTAINTY_ASSIGNED_CONTEXT((#1333))
GLOBAL_UNIT_ASSIGNED_CONTEXT((#1339,#1335,#1334))
REPRESENTATION_CONTEXT('Onderkant','TOP_LEVEL_ASSEMBLY_PART')
);
#1333=UNCERTAINTY_MEASURE_WITH_UNIT(LENGTH_MEASURE(0.0508),#1339,
'DISTANCE_ACCURACY_VALUE','Maximum Tolerance applied to model');
#1334=(
NAMED_UNIT(*)
SI_UNIT($,.STERADIAN.)
SOLID_ANGLE_UNIT()
);
#1335=(
CONVERSION_BASED_UNIT('DEGREE',#1337)
NAMED_UNIT(#1336)
PLANE_ANGLE_UNIT()
);
#1336=DIMENSIONAL_EXPONENTS(0.,0.,0.,0.,0.,0.,0.);
#1337=PLANE_ANGLE_MEASURE_WITH_UNIT(PLANE_ANGLE_MEASURE(0.0174532925),#1338);
#1338=(
NAMED_UNIT(*)
PLANE_ANGLE_UNIT()
SI_UNIT($,.RADIAN.)
);
#1339=(
LENGTH_UNIT()
NAMED_UNIT(*)
SI_UNIT(.MILLI.,.METRE.)
);
ENDSEC;
END-ISO-10303-21;
