ISO-10303-21;
HEADER;
/* Generated by software containing ST-Developer
 * from STEP Tools, Inc. (www.steptools.com) 
 */
/* OPTION: using custom schema-name function */

FILE_DESCRIPTION(
/* description */ (''),
/* implementation_level */ '2;1');

FILE_NAME(
/* name */ 'Pootjes_1.stp',
/* time_stamp */ '2026-06-10T21:43:11+02:00',
/* author */ (''),
/* organization */ (''),
/* preprocessor_version */ 'ST-DEVELOPER v20',
/* originating_system */ 'SIEMENS PLM Software NX2506.4001',
/* authorisation */ '');

FILE_SCHEMA (('AUTOMOTIVE_DESIGN { 1 0 10303 214 3 1 1 1 }'));
ENDSEC;

DATA;
#10=PROPERTY_DEFINITION_REPRESENTATION(#14,#12);
#11=PROPERTY_DEFINITION_REPRESENTATION(#15,#13);
#12=REPRESENTATION('',(#16),#778);
#13=REPRESENTATION('',(#17),#778);
#14=PROPERTY_DEFINITION('pmi validation property','',#21);
#15=PROPERTY_DEFINITION('pmi validation property','',#21);
#16=VALUE_REPRESENTATION_ITEM('number of annotations',COUNT_MEASURE(0.));
#17=VALUE_REPRESENTATION_ITEM('number of views',COUNT_MEASURE(0.));
#18=SHAPE_REPRESENTATION_RELATIONSHIP('None',
'relationship between Pootjes_objects-None and Pootjes_objects-None',#30,
#19);
#19=ADVANCED_BREP_SHAPE_REPRESENTATION('Pootjes_objects-None',(#40),#778);
#20=SHAPE_DEFINITION_REPRESENTATION(#21,#30);
#21=PRODUCT_DEFINITION_SHAPE('','',#22);
#22=PRODUCT_DEFINITION(' ','',#24,#23);
#23=PRODUCT_DEFINITION_CONTEXT('part definition',#29,'design');
#24=PRODUCT_DEFINITION_FORMATION_WITH_SPECIFIED_SOURCE(' ',' ',#26,
 .NOT_KNOWN.);
#25=PRODUCT_RELATED_PRODUCT_CATEGORY('part','',(#26));
#26=PRODUCT('Pootjes_objects','Pootjes_objects',' ',(#27));
#27=PRODUCT_CONTEXT(' ',#29,'mechanical');
#28=APPLICATION_PROTOCOL_DEFINITION('international standard',
'automotive_design',2010,#29);
#29=APPLICATION_CONTEXT(
'core data for automotive mechanical design processes');
#30=SHAPE_REPRESENTATION('Pootjes_objects-None',(#299),#778);
#31=PRESENTATION_LAYER_ASSIGNMENT('1','Layer 1',(#40));
#32=STYLED_ITEM('',(#33),#40);
#33=PRESENTATION_STYLE_ASSIGNMENT((#34));
#34=SURFACE_STYLE_USAGE(.BOTH.,#35);
#35=SURFACE_SIDE_STYLE('',(#36));
#36=SURFACE_STYLE_FILL_AREA(#37);
#37=FILL_AREA_STYLE('',(#38));
#38=FILL_AREA_STYLE_COLOUR('',#39);
#39=COLOUR_RGB('medium steel',0.596078431372549,0.666666666666667,0.686274509803922);
#40=MANIFOLD_SOLID_BREP('',#41);
#41=CLOSED_SHELL('',(#75,#76,#77,#78,#79,#80,#81,#82,#83,#84,#85,#86,#87,
#88,#89,#90,#91,#92));
#42=B_SPLINE_SURFACE_WITH_KNOTS('',5,3,((#664,#665,#666,#667,#668,#669,
#670,#671,#672,#673,#674,#675,#676,#677),(#678,#679,#680,#681,#682,#683,
#684,#685,#686,#687,#688,#689,#690,#691),(#692,#693,#694,#695,#696,#697,
#698,#699,#700,#701,#702,#703,#704,#705),(#706,#707,#708,#709,#710,#711,
#712,#713,#714,#715,#716,#717,#718,#719),(#720,#721,#722,#723,#724,#725,
#726,#727,#728,#729,#730,#731,#732,#733),(#734,#735,#736,#737,#738,#739,
#740,#741,#742,#743,#744,#745,#746,#747),(#748,#749,#750,#751,#752,#753,
#754,#755,#756,#757,#758,#759,#760,#761),(#762,#763,#764,#765,#766,#767,
#768,#769,#770,#771,#772,#773,#774,#775)),.UNSPECIFIED.,.F.,.F.,.F.,(6,
2,6),(4,1,1,1,1,1,1,1,1,1,1,4),(0.,0.5,1.),(0.,0.126160300387075,0.210267167311791,
0.310839338588425,0.398617445309838,0.515654920938389,0.603433027659802,
0.691211134381215,0.808248610009766,0.896026716731179,0.96969696969697,
1.),.UNSPECIFIED.);
#43=TOROIDAL_SURFACE('',#323,36.2790561913614,2.);
#44=TOROIDAL_SURFACE('',#328,36.2790561913614,2.);
#45=LINE('',#528,#51);
#46=LINE('',#540,#52);
#47=LINE('',#562,#53);
#48=LINE('',#566,#54);
#49=LINE('',#577,#55);
#50=LINE('',#578,#56);
#51=VECTOR('',#368,1.);
#52=VECTOR('',#369,1.);
#53=VECTOR('',#374,1.);
#54=VECTOR('',#377,1.);
#55=VECTOR('',#390,1.);
#56=VECTOR('',#391,1.);
#57=(
BOUNDED_SURFACE()
B_SPLINE_SURFACE(3,3,((#490,#491,#492,#493,#494,#495,#496),(#497,#498,#499,
#500,#501,#502,#503),(#504,#505,#506,#507,#508,#509,#510),(#511,#512,#513,
#514,#515,#516,#517)),.UNSPECIFIED.,.F.,.T.,.F.)
B_SPLINE_SURFACE_WITH_KNOTS((4,4),(1,3,3,3,1),(0.,1.),(-0.5,0.,0.5,1.,1.5),
 .UNSPECIFIED.)
GEOMETRIC_REPRESENTATION_ITEM()
RATIONAL_B_SPLINE_SURFACE(((1.,0.333333333333333,0.333333333333333,1.,0.333333333333333,
0.333333333333333,1.),(0.983889626358158,0.327963208786053,0.327963208786053,
0.983889626358158,0.327963208786053,0.327963208786053,0.983889626358158),
(0.983889626358158,0.327963208786053,0.327963208786053,0.983889626358158,
0.327963208786053,0.327963208786053,0.983889626358158),(1.,0.333333333333333,
0.333333333333333,1.,0.333333333333333,0.333333333333333,1.)))
REPRESENTATION_ITEM('')
SURFACE()
);
#58=(
BOUNDED_SURFACE()
B_SPLINE_SURFACE(3,2,((#616,#617,#618),(#619,#620,#621),(#622,#623,#624),
(#625,#626,#627)),.UNSPECIFIED.,.F.,.F.,.F.)
B_SPLINE_SURFACE_WITH_KNOTS((4,4),(3,3),(0.,1.),(0.,1.),.UNSPECIFIED.)
GEOMETRIC_REPRESENTATION_ITEM()
RATIONAL_B_SPLINE_SURFACE(((1.,0.907052501831197,1.),(1.,0.894868235456209,
1.),(1.,0.880806388516921,1.),(1.,0.864742062483759,1.)))
REPRESENTATION_ITEM('')
SURFACE()
);
#59=(
BOUNDED_SURFACE()
B_SPLINE_SURFACE(3,2,((#652,#653,#654),(#655,#656,#657),(#658,#659,#660),
(#661,#662,#663)),.UNSPECIFIED.,.F.,.F.,.F.)
B_SPLINE_SURFACE_WITH_KNOTS((4,4),(3,3),(0.,1.),(0.,1.),.UNSPECIFIED.)
GEOMETRIC_REPRESENTATION_ITEM()
RATIONAL_B_SPLINE_SURFACE(((1.,0.907052503320342,1.),(1.,0.894868153455738,
1.),(1.,0.880806197002092,1.),(1.,0.86474173343213,1.)))
REPRESENTATION_ITEM('')
SURFACE()
);
#60=SPHERICAL_SURFACE('',#308,4.);
#61=CYLINDRICAL_SURFACE('',#306,11.9999999999992);
#62=CYLINDRICAL_SURFACE('',#311,38.6153212482682);
#63=CYLINDRICAL_SURFACE('',#315,20.);
#64=CYLINDRICAL_SURFACE('',#325,38.2790561913614);
#65=FACE_BOUND('',#114,.T.);
#66=FACE_BOUND('',#115,.T.);
#67=FACE_BOUND('',#117,.T.);
#68=FACE_BOUND('',#118,.T.);
#69=FACE_BOUND('',#119,.T.);
#70=FACE_BOUND('',#120,.T.);
#71=FACE_BOUND('',#121,.T.);
#72=FACE_BOUND('',#122,.T.);
#73=FACE_BOUND('',#123,.T.);
#74=FACE_BOUND('',#124,.T.);
#75=ADVANCED_FACE('',(#100),#93,.F.);
#76=ADVANCED_FACE('',(#65,#66),#61,.T.);
#77=ADVANCED_FACE('',(#101),#60,.T.);
#78=ADVANCED_FACE('',(#67,#68),#57,.T.);
#79=ADVANCED_FACE('',(#69,#70),#62,.T.);
#80=ADVANCED_FACE('',(#71,#72),#94,.F.);
#81=ADVANCED_FACE('',(#73,#74),#63,.T.);
#82=ADVANCED_FACE('',(#102),#95,.F.);
#83=ADVANCED_FACE('',(#103),#96,.F.);
#84=ADVANCED_FACE('',(#104),#43,.T.);
#85=ADVANCED_FACE('',(#105),#64,.T.);
#86=ADVANCED_FACE('',(#106),#44,.T.);
#87=ADVANCED_FACE('',(#107),#97,.T.);
#88=ADVANCED_FACE('',(#108),#98,.F.);
#89=ADVANCED_FACE('',(#109),#58,.T.);
#90=ADVANCED_FACE('',(#110),#59,.T.);
#91=ADVANCED_FACE('',(#111),#42,.T.);
#92=ADVANCED_FACE('',(#112),#99,.F.);
#93=PLANE('',#302);
#94=PLANE('',#313);
#95=PLANE('',#317);
#96=PLANE('',#319);
#97=PLANE('',#330);
#98=PLANE('',#332);
#99=PLANE('',#333);
#100=FACE_OUTER_BOUND('',#113,.T.);
#101=FACE_OUTER_BOUND('',#116,.T.);
#102=FACE_OUTER_BOUND('',#125,.T.);
#103=FACE_OUTER_BOUND('',#126,.T.);
#104=FACE_OUTER_BOUND('',#127,.T.);
#105=FACE_OUTER_BOUND('',#128,.T.);
#106=FACE_OUTER_BOUND('',#129,.T.);
#107=FACE_OUTER_BOUND('',#130,.T.);
#108=FACE_OUTER_BOUND('',#131,.T.);
#109=FACE_OUTER_BOUND('',#132,.T.);
#110=FACE_OUTER_BOUND('',#133,.T.);
#111=FACE_OUTER_BOUND('',#134,.T.);
#112=FACE_OUTER_BOUND('',#135,.T.);
#113=EDGE_LOOP('',(#151,#152,#153,#154));
#114=EDGE_LOOP('',(#155));
#115=EDGE_LOOP('',(#156,#157,#158,#159));
#116=EDGE_LOOP('',(#160));
#117=EDGE_LOOP('',(#161));
#118=EDGE_LOOP('',(#162));
#119=EDGE_LOOP('',(#163));
#120=EDGE_LOOP('',(#164));
#121=EDGE_LOOP('',(#165));
#122=EDGE_LOOP('',(#166));
#123=EDGE_LOOP('',(#167,#168));
#124=EDGE_LOOP('',(#169));
#125=EDGE_LOOP('',(#170,#171,#172,#173,#174,#175));
#126=EDGE_LOOP('',(#176,#177,#178,#179,#180,#181));
#127=EDGE_LOOP('',(#182,#183,#184,#185));
#128=EDGE_LOOP('',(#186,#187,#188,#189));
#129=EDGE_LOOP('',(#190,#191,#192,#193));
#130=EDGE_LOOP('',(#194,#195,#196,#197,#198,#199));
#131=EDGE_LOOP('',(#200,#201,#202,#203,#204,#205));
#132=EDGE_LOOP('',(#206,#207,#208,#209,#210,#211));
#133=EDGE_LOOP('',(#212,#213,#214,#215,#216,#217));
#134=EDGE_LOOP('',(#218,#219,#220,#221));
#135=EDGE_LOOP('',(#222));
#136=ELLIPSE('',#301,13.8564064605501,11.9999999999992);
#137=ELLIPSE('',#304,85.5102333057248,11.9999999999992);
#138=ELLIPSE('',#305,85.5102333057253,11.9999999999992);
#139=ELLIPSE('',#329,90.5096679918751,31.9999999999992);
#140=ELLIPSE('',#331,90.5096679918756,31.9999999999992);
#141=B_SPLINE_CURVE_WITH_KNOTS('',3,(#414,#415,#416,#417),.UNSPECIFIED.,
 .F.,.F.,(4,4),(0.,1.),.UNSPECIFIED.);
#142=B_SPLINE_CURVE_WITH_KNOTS('',3,(#421,#422,#423,#424),.UNSPECIFIED.,
 .F.,.F.,(4,4),(0.,1.),.UNSPECIFIED.);
#143=B_SPLINE_CURVE_WITH_KNOTS('',3,(#428,#429,#430,#431,#432,#433,#434,
#435,#436,#437,#438,#439,#440,#441,#442,#443,#444,#445,#446,#447,#448,#449,
#450,#451,#452,#453,#454,#455,#456,#457,#458,#459,#460,#461,#462,#463,#464,
#465,#466,#467,#468,#469,#470,#471,#472,#473,#474,#475,#476,#477,#478,#479,
#480,#481),.UNSPECIFIED.,.F.,.F.,(4,2,2,2,2,2,2,2,2,2,2,1,1,2,2,2,1,1,2,
2,2,2,2,2,2,2,2,2,4),(0.,0.0625000000000005,0.0937500000000007,0.109375,
0.125,0.187500000000001,0.218750000000002,0.250000000000002,0.375000000000003,
0.437500000000003,0.468750000000003,0.484375000000004,0.492187500000004,
0.496093750000004,0.500000000000004,0.503906250000004,0.507812500000004,
0.515625000000004,0.531250000000003,0.562500000000003,0.625000000000003,
0.750000000000001,0.781250000000001,0.812500000000001,0.875000000000001,
0.890625000000001,0.906250000000001,0.9375,1.),.UNSPECIFIED.);
#144=B_SPLINE_CURVE_WITH_KNOTS('',3,(#531,#532,#533,#534),.UNSPECIFIED.,
 .F.,.F.,(4,4),(0.,1.),.UNSPECIFIED.);
#145=B_SPLINE_CURVE_WITH_KNOTS('',3,(#535,#536,#537,#538),.UNSPECIFIED.,
 .F.,.F.,(4,4),(0.,1.),.UNSPECIFIED.);
#146=B_SPLINE_CURVE_WITH_KNOTS('',3,(#544,#545,#546,#547),.UNSPECIFIED.,
 .F.,.F.,(4,4),(0.,1.),.UNSPECIFIED.);
#147=B_SPLINE_CURVE_WITH_KNOTS('',3,(#550,#551,#552,#553,#554,#555),
 .UNSPECIFIED.,.F.,.F.,(4,2,4),(0.,0.5,1.),.UNSPECIFIED.);
#148=B_SPLINE_CURVE_WITH_KNOTS('',3,(#557,#558,#559,#560),.UNSPECIFIED.,
 .F.,.F.,(4,4),(0.,1.),.UNSPECIFIED.);
#149=B_SPLINE_CURVE_WITH_KNOTS('',3,(#587,#588,#589,#590,#591,#592,#593,
#594,#595,#596,#597,#598,#599,#600,#601,#602,#603,#604,#605,#606,#607,#608,
#609,#610,#611,#612,#613,#614,#615),.UNSPECIFIED.,.F.,.F.,(4,2,2,2,2,2,
2,2,2,2,2,1,2,2,4),(0.,0.0625000000000008,0.0937500000000012,0.125000000000002,
0.250000000000003,0.375000000000005,0.437500000000004,0.500000000000004,
0.625000000000005,0.750000000000007,0.812500000000007,0.843750000000007,
0.859375000000007,0.875000000000007,1.),.UNSPECIFIED.);
#150=B_SPLINE_CURVE_WITH_KNOTS('',3,(#628,#629,#630,#631,#632,#633,#634,
#635,#636,#637,#638,#639,#640,#641,#642,#643,#644,#645,#646,#647,#648,#649,
#650,#651),.UNSPECIFIED.,.F.,.F.,(4,2,2,2,2,2,2,2,2,2,2,4),(0.,0.250000000000004,
0.312500000000005,0.375000000000006,0.500000000000007,0.625000000000008,
0.750000000000008,0.812500000000007,0.875000000000006,0.906250000000005,
0.937500000000005,1.),.UNSPECIFIED.);
#151=ORIENTED_EDGE('',*,*,#248,.T.);
#152=ORIENTED_EDGE('',*,*,#249,.T.);
#153=ORIENTED_EDGE('',*,*,#250,.F.);
#154=ORIENTED_EDGE('',*,*,#251,.T.);
#155=ORIENTED_EDGE('',*,*,#252,.T.);
#156=ORIENTED_EDGE('',*,*,#253,.T.);
#157=ORIENTED_EDGE('',*,*,#254,.T.);
#158=ORIENTED_EDGE('',*,*,#250,.T.);
#159=ORIENTED_EDGE('',*,*,#255,.T.);
#160=ORIENTED_EDGE('',*,*,#256,.F.);
#161=ORIENTED_EDGE('',*,*,#256,.T.);
#162=ORIENTED_EDGE('',*,*,#252,.F.);
#163=ORIENTED_EDGE('',*,*,#257,.T.);
#164=ORIENTED_EDGE('',*,*,#258,.F.);
#165=ORIENTED_EDGE('',*,*,#259,.F.);
#166=ORIENTED_EDGE('',*,*,#258,.T.);
#167=ORIENTED_EDGE('',*,*,#260,.F.);
#168=ORIENTED_EDGE('',*,*,#248,.F.);
#169=ORIENTED_EDGE('',*,*,#259,.T.);
#170=ORIENTED_EDGE('',*,*,#261,.T.);
#171=ORIENTED_EDGE('',*,*,#262,.T.);
#172=ORIENTED_EDGE('',*,*,#260,.T.);
#173=ORIENTED_EDGE('',*,*,#263,.T.);
#174=ORIENTED_EDGE('',*,*,#264,.F.);
#175=ORIENTED_EDGE('',*,*,#265,.T.);
#176=ORIENTED_EDGE('',*,*,#266,.T.);
#177=ORIENTED_EDGE('',*,*,#267,.T.);
#178=ORIENTED_EDGE('',*,*,#268,.T.);
#179=ORIENTED_EDGE('',*,*,#269,.T.);
#180=ORIENTED_EDGE('',*,*,#270,.F.);
#181=ORIENTED_EDGE('',*,*,#271,.F.);
#182=ORIENTED_EDGE('',*,*,#272,.F.);
#183=ORIENTED_EDGE('',*,*,#273,.F.);
#184=ORIENTED_EDGE('',*,*,#270,.T.);
#185=ORIENTED_EDGE('',*,*,#274,.T.);
#186=ORIENTED_EDGE('',*,*,#275,.F.);
#187=ORIENTED_EDGE('',*,*,#276,.F.);
#188=ORIENTED_EDGE('',*,*,#272,.T.);
#189=ORIENTED_EDGE('',*,*,#277,.T.);
#190=ORIENTED_EDGE('',*,*,#265,.F.);
#191=ORIENTED_EDGE('',*,*,#278,.F.);
#192=ORIENTED_EDGE('',*,*,#275,.T.);
#193=ORIENTED_EDGE('',*,*,#279,.T.);
#194=ORIENTED_EDGE('',*,*,#264,.T.);
#195=ORIENTED_EDGE('',*,*,#280,.T.);
#196=ORIENTED_EDGE('',*,*,#271,.T.);
#197=ORIENTED_EDGE('',*,*,#273,.T.);
#198=ORIENTED_EDGE('',*,*,#276,.T.);
#199=ORIENTED_EDGE('',*,*,#278,.T.);
#200=ORIENTED_EDGE('',*,*,#269,.F.);
#201=ORIENTED_EDGE('',*,*,#281,.T.);
#202=ORIENTED_EDGE('',*,*,#261,.F.);
#203=ORIENTED_EDGE('',*,*,#279,.F.);
#204=ORIENTED_EDGE('',*,*,#277,.F.);
#205=ORIENTED_EDGE('',*,*,#274,.F.);
#206=ORIENTED_EDGE('',*,*,#262,.F.);
#207=ORIENTED_EDGE('',*,*,#281,.F.);
#208=ORIENTED_EDGE('',*,*,#268,.F.);
#209=ORIENTED_EDGE('',*,*,#282,.T.);
#210=ORIENTED_EDGE('',*,*,#255,.F.);
#211=ORIENTED_EDGE('',*,*,#249,.F.);
#212=ORIENTED_EDGE('',*,*,#251,.F.);
#213=ORIENTED_EDGE('',*,*,#254,.F.);
#214=ORIENTED_EDGE('',*,*,#283,.T.);
#215=ORIENTED_EDGE('',*,*,#266,.F.);
#216=ORIENTED_EDGE('',*,*,#280,.F.);
#217=ORIENTED_EDGE('',*,*,#263,.F.);
#218=ORIENTED_EDGE('',*,*,#282,.F.);
#219=ORIENTED_EDGE('',*,*,#267,.F.);
#220=ORIENTED_EDGE('',*,*,#283,.F.);
#221=ORIENTED_EDGE('',*,*,#253,.F.);
#222=ORIENTED_EDGE('',*,*,#257,.F.);
#223=VERTEX_POINT('',#412);
#224=VERTEX_POINT('',#413);
#225=VERTEX_POINT('',#418);
#226=VERTEX_POINT('',#420);
#227=VERTEX_POINT('',#427);
#228=VERTEX_POINT('',#482);
#229=VERTEX_POINT('',#483);
#230=VERTEX_POINT('',#488);
#231=VERTEX_POINT('',#519);
#232=VERTEX_POINT('',#521);
#233=VERTEX_POINT('',#524);
#234=VERTEX_POINT('',#529);
#235=VERTEX_POINT('',#530);
#236=VERTEX_POINT('',#539);
#237=VERTEX_POINT('',#541);
#238=VERTEX_POINT('',#548);
#239=VERTEX_POINT('',#549);
#240=VERTEX_POINT('',#556);
#241=VERTEX_POINT('',#561);
#242=VERTEX_POINT('',#563);
#243=VERTEX_POINT('',#565);
#244=VERTEX_POINT('',#569);
#245=VERTEX_POINT('',#570);
#246=VERTEX_POINT('',#575);
#247=VERTEX_POINT('',#576);
#248=EDGE_CURVE('',#223,#224,#284,.T.);
#249=EDGE_CURVE('',#224,#225,#141,.T.);
#250=EDGE_CURVE('',#226,#225,#136,.T.);
#251=EDGE_CURVE('',#226,#223,#142,.T.);
#252=EDGE_CURVE('',#227,#227,#285,.T.);
#253=EDGE_CURVE('',#228,#229,#143,.T.);
#254=EDGE_CURVE('',#229,#226,#137,.T.);
#255=EDGE_CURVE('',#225,#228,#138,.T.);
#256=EDGE_CURVE('',#230,#230,#286,.T.);
#257=EDGE_CURVE('',#231,#231,#287,.T.);
#258=EDGE_CURVE('',#232,#232,#288,.T.);
#259=EDGE_CURVE('',#233,#233,#289,.T.);
#260=EDGE_CURVE('',#224,#223,#290,.T.);
#261=EDGE_CURVE('',#234,#235,#45,.T.);
#262=EDGE_CURVE('',#235,#224,#144,.T.);
#263=EDGE_CURVE('',#223,#236,#145,.T.);
#264=EDGE_CURVE('',#237,#236,#46,.T.);
#265=EDGE_CURVE('',#237,#234,#291,.T.);
#266=EDGE_CURVE('',#238,#239,#146,.T.);
#267=EDGE_CURVE('',#239,#240,#147,.T.);
#268=EDGE_CURVE('',#240,#241,#148,.T.);
#269=EDGE_CURVE('',#241,#242,#47,.T.);
#270=EDGE_CURVE('',#243,#242,#292,.T.);
#271=EDGE_CURVE('',#238,#243,#48,.T.);
#272=EDGE_CURVE('',#244,#245,#293,.T.);
#273=EDGE_CURVE('',#243,#244,#294,.T.);
#274=EDGE_CURVE('',#242,#245,#295,.T.);
#275=EDGE_CURVE('',#246,#247,#296,.T.);
#276=EDGE_CURVE('',#244,#246,#49,.T.);
#277=EDGE_CURVE('',#245,#247,#50,.T.);
#278=EDGE_CURVE('',#246,#237,#297,.T.);
#279=EDGE_CURVE('',#247,#234,#298,.T.);
#280=EDGE_CURVE('',#236,#238,#139,.T.);
#281=EDGE_CURVE('',#241,#235,#140,.T.);
#282=EDGE_CURVE('',#240,#228,#149,.T.);
#283=EDGE_CURVE('',#229,#239,#150,.T.);
#284=CIRCLE('',#300,20.);
#285=CIRCLE('',#303,12.);
#286=CIRCLE('',#307,3.57783366642927);
#287=CIRCLE('',#309,38.6153212482682);
#288=CIRCLE('',#310,38.6153212482682);
#289=CIRCLE('',#312,20.);
#290=CIRCLE('',#314,20.);
#291=CIRCLE('',#316,36.2790561913615);
#292=CIRCLE('',#318,36.2790561913615);
#293=CIRCLE('',#320,38.2790561913614);
#294=CIRCLE('',#321,2.);
#295=CIRCLE('',#322,2.);
#296=CIRCLE('',#324,38.2790561913615);
#297=CIRCLE('',#326,2.);
#298=CIRCLE('',#327,2.);
#299=AXIS2_PLACEMENT_3D('',#410,#334,#335);
#300=AXIS2_PLACEMENT_3D('',#411,#336,#337);
#301=AXIS2_PLACEMENT_3D('',#419,#338,#339);
#302=AXIS2_PLACEMENT_3D('',#425,#340,#341);
#303=AXIS2_PLACEMENT_3D('',#426,#342,#343);
#304=AXIS2_PLACEMENT_3D('',#484,#344,#345);
#305=AXIS2_PLACEMENT_3D('',#485,#346,#347);
#306=AXIS2_PLACEMENT_3D('',#486,#348,#349);
#307=AXIS2_PLACEMENT_3D('',#487,#350,#351);
#308=AXIS2_PLACEMENT_3D('',#489,#352,#353);
#309=AXIS2_PLACEMENT_3D('',#518,#354,#355);
#310=AXIS2_PLACEMENT_3D('',#520,#356,#357);
#311=AXIS2_PLACEMENT_3D('',#522,#358,#359);
#312=AXIS2_PLACEMENT_3D('',#523,#360,#361);
#313=AXIS2_PLACEMENT_3D('',#525,#362,#363);
#314=AXIS2_PLACEMENT_3D('',#526,#364,#365);
#315=AXIS2_PLACEMENT_3D('',#527,#366,#367);
#316=AXIS2_PLACEMENT_3D('',#542,#370,#371);
#317=AXIS2_PLACEMENT_3D('',#543,#372,#373);
#318=AXIS2_PLACEMENT_3D('',#564,#375,#376);
#319=AXIS2_PLACEMENT_3D('',#567,#378,#379);
#320=AXIS2_PLACEMENT_3D('',#568,#380,#381);
#321=AXIS2_PLACEMENT_3D('',#571,#382,#383);
#322=AXIS2_PLACEMENT_3D('',#572,#384,#385);
#323=AXIS2_PLACEMENT_3D('',#573,#386,#387);
#324=AXIS2_PLACEMENT_3D('',#574,#388,#389);
#325=AXIS2_PLACEMENT_3D('',#579,#392,#393);
#326=AXIS2_PLACEMENT_3D('',#580,#394,#395);
#327=AXIS2_PLACEMENT_3D('',#581,#396,#397);
#328=AXIS2_PLACEMENT_3D('',#582,#398,#399);
#329=AXIS2_PLACEMENT_3D('',#583,#400,#401);
#330=AXIS2_PLACEMENT_3D('',#584,#402,#403);
#331=AXIS2_PLACEMENT_3D('',#585,#404,#405);
#332=AXIS2_PLACEMENT_3D('',#586,#406,#407);
#333=AXIS2_PLACEMENT_3D('',#776,#408,#409);
#334=DIRECTION('',(0.,0.,1.));
#335=DIRECTION('',(1.,0.,0.));
#336=DIRECTION('',(0.,0.,-1.));
#337=DIRECTION('',(-1.,0.,0.));
#338=DIRECTION('',(0.,0.,-1.));
#339=DIRECTION('',(1.,0.,0.));
#340=DIRECTION('',(0.,0.,1.));
#341=DIRECTION('',(1.,0.,0.));
#342=DIRECTION('',(0.500000000000003,0.,0.866025403784437));
#343=DIRECTION('',(0.866025403784437,0.,-0.500000000000003));
#344=DIRECTION('',(-0.631503364128732,-0.74844843155998,0.202554798485495));
#345=DIRECTION('',(0.415490159357196,-0.106082593878428,0.903390508447679));
#346=DIRECTION('',(-0.631503364128728,0.748448431559984,0.202554798485494));
#347=DIRECTION('',(0.415490159357197,0.106082593878428,0.903390508447679));
#348=DIRECTION('',(0.500000000000003,0.,0.866025403784437));
#349=DIRECTION('',(0.866025403784437,0.,-0.500000000000003));
#350=DIRECTION('',(0.500000000000003,0.,0.866025403784437));
#351=DIRECTION('',(0.866025403784435,0.,-0.500000000000003));
#352=DIRECTION('',(0.5,0.,0.866025403784438));
#353=DIRECTION('',(-0.866025403784436,0.,0.500000000000004));
#354=DIRECTION('',(0.,0.,-1.));
#355=DIRECTION('',(-1.,0.,0.));
#356=DIRECTION('',(0.,0.,-1.));
#357=DIRECTION('',(1.,0.,0.));
#358=DIRECTION('',(0.,0.,-1.));
#359=DIRECTION('',(-1.,0.,0.));
#360=DIRECTION('',(0.,0.,-1.));
#361=DIRECTION('',(-1.,0.,0.));
#362=DIRECTION('',(0.,0.,1.));
#363=DIRECTION('',(1.,0.,0.));
#364=DIRECTION('',(0.,0.,-1.));
#365=DIRECTION('',(-1.,0.,0.));
#366=DIRECTION('',(0.,0.,-1.));
#367=DIRECTION('',(-1.,0.,0.));
#368=DIRECTION('',(-0.70710678118655,-0.707106781186545,1.54729570037671E-16));
#369=DIRECTION('',(-0.707106781186546,0.707106781186549,1.54729570037671E-16));
#370=DIRECTION('',(0.,0.,1.));
#371=DIRECTION('',(1.,0.,0.));
#372=DIRECTION('',(0.,0.,-1.));
#373=DIRECTION('',(-1.,0.,0.));
#374=DIRECTION('',(0.70710678118655,0.707106781186545,0.));
#375=DIRECTION('',(0.,0.,1.));
#376=DIRECTION('',(1.,0.,0.));
#377=DIRECTION('',(0.707106781186546,-0.707106781186549,0.));
#378=DIRECTION('',(0.,0.,1.));
#379=DIRECTION('',(1.,0.,0.));
#380=DIRECTION('',(0.,0.,1.));
#381=DIRECTION('',(1.,0.,0.));
#382=DIRECTION('',(-0.707106781186549,-0.707106781186546,0.));
#383=DIRECTION('',(-0.707106781186545,0.707106781186548,0.));
#384=DIRECTION('',(0.707106781186545,-0.70710678118655,0.));
#385=DIRECTION('',(-0.707106781186552,-0.707106781186545,0.));
#386=DIRECTION('',(0.,0.,1.));
#387=DIRECTION('',(1.,0.,0.));
#388=DIRECTION('',(0.,0.,1.));
#389=DIRECTION('',(1.,0.,0.));
#390=DIRECTION('',(0.,0.,1.));
#391=DIRECTION('',(0.,0.,1.));
#392=DIRECTION('',(0.,0.,1.));
#393=DIRECTION('',(1.,0.,0.));
#394=DIRECTION('',(-0.707106781186549,-0.707106781186546,0.));
#395=DIRECTION('',(-0.707106781186545,0.707106781186548,0.));
#396=DIRECTION('',(0.707106781186545,-0.70710678118655,0.));
#397=DIRECTION('',(-0.707106781186552,-0.707106781186545,0.));
#398=DIRECTION('',(0.,0.,1.));
#399=DIRECTION('',(1.,0.,0.));
#400=DIRECTION('',(0.707106781186549,0.707106781186546,0.));
#401=DIRECTION('',(0.267261241912425,-0.267261241912426,0.925820099772551));
#402=DIRECTION('',(-0.707106781186549,-0.707106781186546,0.));
#403=DIRECTION('',(0.,0.,1.));
#404=DIRECTION('',(0.707106781186545,-0.70710678118655,2.77555756156289E-17));
#405=DIRECTION('',(0.267261241912428,0.267261241912426,0.92582009977255));
#406=DIRECTION('',(0.707106781186545,-0.70710678118655,0.));
#407=DIRECTION('',(0.,0.,1.));
#408=DIRECTION('',(0.,0.,-1.));
#409=DIRECTION('',(-1.,0.,0.));
#410=CARTESIAN_POINT('',(0.,0.,0.));
#411=CARTESIAN_POINT('',(-110.,0.,-0.999999999999997));
#412=CARTESIAN_POINT('',(-96.5499926170959,-14.8019357315124,-0.999999999999997));
#413=CARTESIAN_POINT('',(-96.5499926170958,14.8019357315123,-0.999999999999997));
#414=CARTESIAN_POINT('',(-96.5499926170958,14.8019357315123,-0.999999999999997));
#415=CARTESIAN_POINT('',(-100.280403391833,12.5080277297931,-0.999999999999997));
#416=CARTESIAN_POINT('',(-104.658006110254,11.495699576099,-0.999999999999998));
#417=CARTESIAN_POINT('',(-109.016441726037,11.9236183010828,-0.999999999999998));
#418=CARTESIAN_POINT('',(-109.016441726037,11.9236183010828,-1.));
#419=CARTESIAN_POINT('',(-110.57735026919,0.,-1.));
#420=CARTESIAN_POINT('',(-109.016441726037,-11.9236183010828,-1.));
#421=CARTESIAN_POINT('',(-109.016441726037,-11.9236183010828,-1.));
#422=CARTESIAN_POINT('',(-104.658010058018,-11.4956999636974,-1.));
#423=CARTESIAN_POINT('',(-100.280393247461,-12.5080339677811,-0.999999999999998));
#424=CARTESIAN_POINT('',(-96.5499926170959,-14.8019357315124,-0.999999999999998));
#425=CARTESIAN_POINT('',(-110.57735026919,0.,-0.999999999999998));
#426=CARTESIAN_POINT('',(-116.928203230276,0.,-12.0000000000001));
#427=CARTESIAN_POINT('',(-106.535898384862,0.,-18.0000000000001));
#428=CARTESIAN_POINT('',(-113.344309641161,11.4728913795681,-12.8275020306762));
#429=CARTESIAN_POINT('',(-112.435440335763,11.2660460350398,-12.6026152000501));
#430=CARTESIAN_POINT('',(-111.596737734791,11.0099896591264,-12.3958887413306));
#431=CARTESIAN_POINT('',(-110.446930676214,10.581507124333,-12.1113094157667));
#432=CARTESIAN_POINT('',(-110.081628384593,10.4312440882815,-12.0207443297853));
#433=CARTESIAN_POINT('',(-109.560424451714,10.1979992278551,-11.8914545437571));
#434=CARTESIAN_POINT('',(-109.391144574484,10.1189396900376,-11.8494529335505));
#435=CARTESIAN_POINT('',(-109.06142286753,9.95871304354463,-11.7676809562314));
#436=CARTESIAN_POINT('',(-108.929051244584,9.89228989679356,-11.7348581226398));
#437=CARTESIAN_POINT('',(-108.008351559786,9.40869165605953,-11.5069821857235));
#438=CARTESIAN_POINT('',(-107.334350176533,8.98568026346324,-11.3407614459877));
#439=CARTESIAN_POINT('',(-106.419089475271,8.31466754891617,-11.1144511762006));
#440=CARTESIAN_POINT('',(-106.129922463887,8.08490011676224,-11.0428725919913));
#441=CARTESIAN_POINT('',(-105.583341803377,7.61592019945614,-10.9074816605419));
#442=CARTESIAN_POINT('',(-105.346093671085,7.39695369605844,-10.8486624992213));
#443=CARTESIAN_POINT('',(-104.036775084826,6.08251655375926,-10.5245158637449));
#444=CARTESIAN_POINT('',(-103.271001272527,4.97591399393781,-10.3350959506085));
#445=CARTESIAN_POINT('',(-102.458417491275,3.14568480438407,-10.1339127266004));
#446=CARTESIAN_POINT('',(-102.255059349865,2.522182230259,-10.0837874652956));
#447=CARTESIAN_POINT('',(-102.052057761599,1.57917773062554,-10.0335524143852));
#448=CARTESIAN_POINT('',(-102.001377974027,1.2635495853399,-10.0209769018591));
#449=CARTESIAN_POINT('',(-101.950774500445,0.789688593763327,-10.0084053626543));
#450=CARTESIAN_POINT('',(-101.931825157635,0.552653010080544,-10.0036934826733));
#451=CARTESIAN_POINT('',(-101.920802859789,0.276255485477357,-10.0009687369497));
#452=CARTESIAN_POINT('',(-101.918449989054,0.157865026619207,-10.0003976501715));
#453=CARTESIAN_POINT('',(-101.917407769262,0.0789564880647942,-10.0001498183281));
#454=CARTESIAN_POINT('',(-101.917153876239,0.00669282237696202,-10.0000997579101));
#455=CARTESIAN_POINT('',(-101.917155766928,-0.0065377762987291,-10.0001032036239));
#456=CARTESIAN_POINT('',(-101.917427010436,-0.0786061253741672,-10.0001883436436));
#457=CARTESIAN_POINT('',(-101.91848956037,-0.157696396829765,-10.0004712227337));
#458=CARTESIAN_POINT('',(-101.92087388846,-0.276350766021237,-10.0010913354083));
#459=CARTESIAN_POINT('',(-101.931974772558,-0.553303014249245,-10.0039065545217));
#460=CARTESIAN_POINT('',(-101.950995035449,-0.790708656412564,-10.008658053726));
#461=CARTESIAN_POINT('',(-102.001730803588,-1.26516841950958,-10.0212665108334));
#462=CARTESIAN_POINT('',(-102.052486040691,-1.58100684687545,-10.0338102190821));
#463=CARTESIAN_POINT('',(-102.255561274773,-2.52408498787777,-10.0838466933379));
#464=CARTESIAN_POINT('',(-102.458763288245,-3.14688677099014,-10.1337029545862));
#465=CARTESIAN_POINT('',(-103.269379128735,-4.97309142456368,-10.3341796407873));
#466=CARTESIAN_POINT('',(-104.035688767773,-6.08157874607058,-10.5240031627215));
#467=CARTESIAN_POINT('',(-105.346116279126,-7.39712189737266,-10.8484574079561));
#468=CARTESIAN_POINT('',(-105.582501395735,-7.61526035504178,-10.9070939322613));
#469=CARTESIAN_POINT('',(-106.128679753707,-8.0839320046273,-11.0424682920671));
#470=CARTESIAN_POINT('',(-106.417736638132,-8.31364542957177,-11.1140710467462));
#471=CARTESIAN_POINT('',(-107.332993074289,-8.98474387383526,-11.340520572519));
#472=CARTESIAN_POINT('',(-108.007429124023,-9.40814680597392,-11.5069215899357));
#473=CARTESIAN_POINT('',(-108.929365321084,-9.89241554053276,-11.7350477127851));
#474=CARTESIAN_POINT('',(-109.061070804489,-9.95849866439121,-11.7677019941091));
#475=CARTESIAN_POINT('',(-109.390430298412,-10.1185664928745,-11.8493792782512));
#476=CARTESIAN_POINT('',(-109.559555396926,-10.1975653799598,-11.8913429283901));
#477=CARTESIAN_POINT('',(-110.080378204768,-10.4306783881659,-12.0205445529104));
#478=CARTESIAN_POINT('',(-110.445537456306,-10.5809205783694,-12.1110851012223));
#479=CARTESIAN_POINT('',(-111.595279838459,-11.0094833196089,-12.3956754446418));
#480=CARTESIAN_POINT('',(-112.434428435793,-11.2657875072024,-12.602520248649));
#481=CARTESIAN_POINT('',(-113.344289373841,-11.472870398536,-12.827603791442));
#482=CARTESIAN_POINT('',(-113.344309641134,11.4728913795593,-12.8275020306855));
#483=CARTESIAN_POINT('',(-113.344289373841,-11.472870398536,-12.827603791442));
#484=CARTESIAN_POINT('',(-138.861621516651,0.,-49.9897948556631));
#485=CARTESIAN_POINT('',(-138.861621516652,0.,-49.9897948556633));
#486=CARTESIAN_POINT('',(-135.,0.,-43.3012701892219));
#487=CARTESIAN_POINT('',(-133.894302277668,0.,-41.386145556329));
#488=CARTESIAN_POINT('',(-130.795807432025,0.,-43.1750623895437));
#489=CARTESIAN_POINT('',(-133.,0.,-39.8371685740841));
#490=CARTESIAN_POINT('',(-106.535898384862,0.,-18.0000000000003));
#491=CARTESIAN_POINT('',(-106.535898384862,24.0000000000005,-18.0000000000003));
#492=CARTESIAN_POINT('',(-127.320508075689,24.0000000000005,-5.99999999999995));
#493=CARTESIAN_POINT('',(-127.320508075689,0.,-5.99999999999995));
#494=CARTESIAN_POINT('',(-127.320508075689,-24.0000000000005,-5.99999999999995));
#495=CARTESIAN_POINT('',(-106.535898384862,-24.0000000000004,-18.0000000000002));
#496=CARTESIAN_POINT('',(-106.535898384862,0.,-18.0000000000003));
#497=CARTESIAN_POINT('',(-112.692626080175,0.,-28.1189381582173));
#498=CARTESIAN_POINT('',(-112.692626080175,23.4551729815698,-28.1189381582173));
#499=CARTESIAN_POINT('',(-133.005401732373,23.4551729815698,-16.3913516674323));
#500=CARTESIAN_POINT('',(-133.005401732373,0.,-16.3913516674323));
#501=CARTESIAN_POINT('',(-133.005401732373,-23.4551729815698,-16.3913516674323));
#502=CARTESIAN_POINT('',(-112.692626080175,-23.4551729815698,-28.1189381582173));
#503=CARTESIAN_POINT('',(-112.692626080175,0.,-28.1189381582173));
#504=CARTESIAN_POINT('',(-120.911674368128,0.,-36.6480325183669));
#505=CARTESIAN_POINT('',(-120.911674368128,17.7484581171222,-36.6480325183669));
#506=CARTESIAN_POINT('',(-136.28228997556,17.7484581171221,-27.7738034598058));
#507=CARTESIAN_POINT('',(-136.28228997556,0.,-27.7738034598058));
#508=CARTESIAN_POINT('',(-136.28228997556,-17.7484581171221,-27.7738034598058));
#509=CARTESIAN_POINT('',(-120.911674368128,-17.7484581171222,-36.648032518367));
#510=CARTESIAN_POINT('',(-120.911674368128,0.,-36.6480325183669));
#511=CARTESIAN_POINT('',(-130.795807432025,0.,-43.1750623895437));
#512=CARTESIAN_POINT('',(-130.795807432025,7.15566733285851,-43.1750623895437));
#513=CARTESIAN_POINT('',(-136.992797123311,7.15566733285853,-39.5972287231144));
#514=CARTESIAN_POINT('',(-136.992797123311,0.,-39.5972287231144));
#515=CARTESIAN_POINT('',(-136.992797123311,-7.15566733285853,-39.5972287231144));
#516=CARTESIAN_POINT('',(-130.795807432025,-7.15566733285853,-43.1750623895437));
#517=CARTESIAN_POINT('',(-130.795807432025,0.,-43.1750623895437));
#518=CARTESIAN_POINT('',(-110.,0.,6.55918434910789));
#519=CARTESIAN_POINT('',(-148.615321248268,0.,6.55918434910789));
#520=CARTESIAN_POINT('',(-110.,0.,3.));
#521=CARTESIAN_POINT('',(-71.3846787517318,0.,3.));
#522=CARTESIAN_POINT('',(-110.,0.,8.55918434910789));
#523=CARTESIAN_POINT('',(-110.,0.,3.));
#524=CARTESIAN_POINT('',(-130.,0.,3.));
#525=CARTESIAN_POINT('',(-110.,0.,3.));
#526=CARTESIAN_POINT('',(-110.,0.,-0.999999999999997));
#527=CARTESIAN_POINT('',(-110.,0.,-1.));
#528=CARTESIAN_POINT('',(-84.9241836212301,25.6531666479594,-1.));
#529=CARTESIAN_POINT('',(-84.9241836212301,25.6531666479594,-1.));
#530=CARTESIAN_POINT('',(-92.8688822135724,17.7084680556172,-0.999999999999999));
#531=CARTESIAN_POINT('',(-92.8688822135724,17.7084680556172,-1.));
#532=CARTESIAN_POINT('',(-93.9820018763279,16.5953483928616,-1.));
#533=CARTESIAN_POINT('',(-95.2090451684131,15.6265125055366,-0.999999999999996));
#534=CARTESIAN_POINT('',(-96.5499926170958,14.8019357315123,-0.999999999999996));
#535=CARTESIAN_POINT('',(-96.5499926170959,-14.8019357315124,-0.999999999999997));
#536=CARTESIAN_POINT('',(-95.2090451684132,-15.6265125055367,-0.999999999999997));
#537=CARTESIAN_POINT('',(-93.982001876328,-16.5953483928617,-0.999999999999996));
#538=CARTESIAN_POINT('',(-92.8688822135725,-17.7084680556172,-0.999999999999996));
#539=CARTESIAN_POINT('',(-92.8688822135725,-17.7084680556172,-0.999999999999999));
#540=CARTESIAN_POINT('',(-84.9241836212302,-25.6531666479595,-1.));
#541=CARTESIAN_POINT('',(-84.9241836212302,-25.6531666479595,-1.));
#542=CARTESIAN_POINT('',(-110.57735026919,0.,-1.));
#543=CARTESIAN_POINT('',(-100.779391298057,-9.7979589711326,-0.999999999999996));
#544=CARTESIAN_POINT('',(-93.166613907307,-17.4107363618828,-5.99999999999999));
#545=CARTESIAN_POINT('',(-95.2086552171139,-15.3686950520758,-5.99999999999999));
#546=CARTESIAN_POINT('',(-97.6554692148475,-13.797464709374,-6.));
#547=CARTESIAN_POINT('',(-100.327966517288,-12.789513376212,-6.));
#548=CARTESIAN_POINT('',(-93.166613907307,-17.4107363618828,-5.99999999999999));
#549=CARTESIAN_POINT('',(-100.327966517288,-12.789513376212,-6.));
#550=CARTESIAN_POINT('',(-100.327966517297,-12.7895133762086,-6.));
#551=CARTESIAN_POINT('',(-96.8756302092437,-9.19500516171602,-5.99999999999999));
#552=CARTESIAN_POINT('',(-94.9908577074226,-4.66920339679211,-6.));
#553=CARTESIAN_POINT('',(-94.9873970048039,4.66949202605951,-6.));
#554=CARTESIAN_POINT('',(-96.8771418502474,9.19503849103937,-6.));
#555=CARTESIAN_POINT('',(-100.328579144465,12.7892823308645,-6.));
#556=CARTESIAN_POINT('',(-100.328579144465,12.7892823308646,-6.));
#557=CARTESIAN_POINT('',(-100.328579144465,12.7892823308646,-6.));
#558=CARTESIAN_POINT('',(-97.6676440952882,13.7927743457892,-6.));
#559=CARTESIAN_POINT('',(-95.2056506010427,15.3716996681468,-6.));
#560=CARTESIAN_POINT('',(-93.1666139073068,17.4107363618827,-6.));
#561=CARTESIAN_POINT('',(-93.1666139073069,17.4107363618827,-5.99999999999999));
#562=CARTESIAN_POINT('',(-108.53610881687,2.04124145231943,-5.99999999999999));
#563=CARTESIAN_POINT('',(-84.9241836212301,25.6531666479594,-6.));
#564=CARTESIAN_POINT('',(-110.57735026919,0.,-6.));
#565=CARTESIAN_POINT('',(-84.9241836212302,-25.6531666479595,-6.));
#566=CARTESIAN_POINT('',(-108.53610881687,-2.04124145231944,-5.99999999999999));
#567=CARTESIAN_POINT('',(-98.7381498457374,-11.8392004234522,-6.));
#568=CARTESIAN_POINT('',(-110.57735026919,0.,-4.));
#569=CARTESIAN_POINT('',(-83.5099700588571,-27.0673802103326,-4.));
#570=CARTESIAN_POINT('',(-83.509970058857,27.0673802103325,-4.));
#571=CARTESIAN_POINT('',(-84.9241836212302,-25.6531666479595,-4.));
#572=CARTESIAN_POINT('',(-84.9241836212301,25.6531666479594,-4.));
#573=CARTESIAN_POINT('',(-110.57735026919,0.,-4.));
#574=CARTESIAN_POINT('',(-110.57735026919,0.,-3.));
#575=CARTESIAN_POINT('',(-83.5099700588571,-27.0673802103326,-3.));
#576=CARTESIAN_POINT('',(-83.509970058857,27.0673802103325,-3.));
#577=CARTESIAN_POINT('',(-83.5099700588571,-27.0673802103326,-4.));
#578=CARTESIAN_POINT('',(-83.509970058857,27.0673802103325,-4.));
#579=CARTESIAN_POINT('',(-110.57735026919,0.,-0.999999999999995));
#580=CARTESIAN_POINT('',(-84.9241836212302,-25.6531666479595,-3.));
#581=CARTESIAN_POINT('',(-84.9241836212301,25.6531666479594,-3.));
#582=CARTESIAN_POINT('',(-110.57735026919,0.,-3.));
#583=CARTESIAN_POINT('',(-124.719485892921,14.1421356237309,-49.9897948556631));
#584=CARTESIAN_POINT('',(-84.9241836212302,-25.6531666479595,-4.));
#585=CARTESIAN_POINT('',(-124.719485892921,-14.142135623731,-49.9897948556633));
#586=CARTESIAN_POINT('',(-84.9241836212301,25.6531666479594,-4.));
#587=CARTESIAN_POINT('',(-100.328579144465,12.7892823308646,-5.99999999999999));
#588=CARTESIAN_POINT('',(-100.714118629226,12.6438876529617,-5.9999999999999));
#589=CARTESIAN_POINT('',(-101.06192443408,12.5258268530009,-6.00439705211909));
#590=CARTESIAN_POINT('',(-101.522285117721,12.3796054685032,-6.01737047209127));
#591=CARTESIAN_POINT('',(-101.66553558585,12.3360314289895,-6.02275766643672));
#592=CARTESIAN_POINT('',(-101.931064070913,12.2578043027792,-6.03562250352124));
#593=CARTESIAN_POINT('',(-102.004151463414,12.236730194109,-6.0393490603767));
#594=CARTESIAN_POINT('',(-102.807957329999,12.0148386438216,-6.10064181222832));
#595=CARTESIAN_POINT('',(-103.410132782718,11.8782265100608,-6.18729432861998));
#596=CARTESIAN_POINT('',(-104.628429795319,11.6479610723298,-6.45692632076772));
#597=CARTESIAN_POINT('',(-105.229775319044,11.5584114519341,-6.64033348612238));
#598=CARTESIAN_POINT('',(-106.120493338087,11.4554298567931,-6.98877414489845));
#599=CARTESIAN_POINT('',(-106.415524771359,11.4263356831077,-7.11715874179541));
#600=CARTESIAN_POINT('',(-107.001990332244,11.3775312765056,-7.39866387881002));
#601=CARTESIAN_POINT('',(-107.328145848499,11.3559594641045,-7.57163923767675));
#602=CARTESIAN_POINT('',(-108.093176934992,11.3149305162281,-8.00910982226923));
#603=CARTESIAN_POINT('',(-108.60912223988,11.3002163895472,-8.34253817739007));
#604=CARTESIAN_POINT('',(-109.65534557216,11.2952006692503,-9.09611352582634));
#605=CARTESIAN_POINT('',(-110.210191701575,11.3058890952085,-9.53750014805491));
#606=CARTESIAN_POINT('',(-110.98129171588,11.3367858443034,-10.2041761413009));
#607=CARTESIAN_POINT('',(-111.227857142,11.3492850752975,-10.4261410601167));
#608=CARTESIAN_POINT('',(-111.58149442049,11.3696661870979,-10.7586915205915));
#609=CARTESIAN_POINT('',(-111.754262040861,11.3802661393033,-10.9248670495997));
#610=CARTESIAN_POINT('',(-111.920871612922,11.391180814584,-11.0908879944134));
#611=CARTESIAN_POINT('',(-112.030567993882,11.3984949771326,-11.2015334812497));
#612=CARTESIAN_POINT('',(-112.063992122769,11.4007441679133,-11.2353972429264));
#613=CARTESIAN_POINT('',(-112.731820400982,11.4466935187725,-11.9259547952156));
#614=CARTESIAN_POINT('',(-113.137350665656,11.4783685058304,-12.4333094535948));
#615=CARTESIAN_POINT('',(-113.344309641107,11.4728913795629,-12.8275020306147));
#616=CARTESIAN_POINT('',(-92.8653149766839,17.7120352925056,-0.919799254217151));
#617=CARTESIAN_POINT('',(-99.4167258685472,11.1606244006424,-0.340274643759562));
#618=CARTESIAN_POINT('',(-108.659136106637,11.9453140935882,0.0338018174170242));
#619=CARTESIAN_POINT('',(-93.0645553933449,17.5127948758446,-5.42454612207861));
#620=CARTESIAN_POINT('',(-100.105383121276,10.4719671479456,-4.48986261970948));
#621=CARTESIAN_POINT('',(-109.984049975488,11.8706026299843,-3.82080885303425));
#622=CARTESIAN_POINT('',(-93.4771004664219,17.1002498027676,-10.428065149336));
#623=CARTESIAN_POINT('',(-101.043142555965,9.5342077132429,-9.07024993409777));
#624=CARTESIAN_POINT('',(-111.557411076234,11.7158926328902,-8.15440341613079));
#625=CARTESIAN_POINT('',(-94.1368133822558,16.4405368869337,-15.8552028092918));
#626=CARTESIAN_POINT('',(-102.231403647812,8.34594662137722,-13.8872756690793));
#627=CARTESIAN_POINT('',(-113.376631789118,11.4685021914988,-12.9120542822073));
#628=CARTESIAN_POINT('',(-113.344289377162,-11.4728703998245,-12.8276037902387));
#629=CARTESIAN_POINT('',(-112.644606436225,-11.4518738395385,-11.7526961817526));
#630=CARTESIAN_POINT('',(-111.744398284797,-11.3682881126673,-10.8573572103276));
#631=CARTESIAN_POINT('',(-110.472165539095,-11.3167193758183,-9.76097464644276));
#632=CARTESIAN_POINT('',(-110.218026821826,-11.3089800725555,-9.55070077468691));
#633=CARTESIAN_POINT('',(-109.710241002518,-11.298994077132,-9.14771840613861));
#634=CARTESIAN_POINT('',(-109.480218605399,-11.2966848781013,-8.97217165881853));
#635=CARTESIAN_POINT('',(-108.648953391332,-11.2988782427838,-8.36831195349409));
#636=CARTESIAN_POINT('',(-108.155532139202,-11.3115707298659,-8.04386972939478));
#637=CARTESIAN_POINT('',(-107.002482257897,-11.373549410894,-7.38513543365098));
#638=CARTESIAN_POINT('',(-106.45042974269,-11.418184407046,-7.11701178277708));
#639=CARTESIAN_POINT('',(-105.25576186368,-11.5549030016569,-6.64683608202737));
#640=CARTESIAN_POINT('',(-104.607937483776,-11.651777954985,-6.45229143069754));
#641=CARTESIAN_POINT('',(-103.721726065564,-11.8193571647447,-6.25637397933575));
#642=CARTESIAN_POINT('',(-103.419408205807,-11.8822151502056,-6.20117892185745));
#643=CARTESIAN_POINT('',(-102.801514962876,-12.0243914805006,-6.11111185051841));
#644=CARTESIAN_POINT('',(-102.447889176413,-12.1142151014347,-6.07333027974488));
#645=CARTESIAN_POINT('',(-102.022234848368,-12.2317413147201,-6.04078186759984));
#646=CARTESIAN_POINT('',(-101.874393988397,-12.2740711883415,-6.03169467054513));
#647=CARTESIAN_POINT('',(-101.567124377145,-12.3659044974757,-6.01707726792978));
#648=CARTESIAN_POINT('',(-101.356307895778,-12.4320840140767,-6.01038465547606));
#649=CARTESIAN_POINT('',(-101.015376003082,-12.542721339506,-6.00267244601724));
#650=CARTESIAN_POINT('',(-100.708841954845,-12.6458635006056,-5.99999999999999));
#651=CARTESIAN_POINT('',(-100.327966517297,-12.7895133762086,-5.99999999999999));
#652=CARTESIAN_POINT('',(-108.659135944687,-11.9453141027206,0.0338022885838264));
#653=CARTESIAN_POINT('',(-99.4167257854973,-11.1606244836923,-0.340274143332302));
#654=CARTESIAN_POINT('',(-92.8653149523311,-17.7120353168586,-0.919798703608375));
#655=CARTESIAN_POINT('',(-109.984058885272,-11.8706021328895,-3.82083479449324));
#656=CARTESIAN_POINT('',(-100.105387807615,-10.4719624616067,-4.48989094188817));
#657=CARTESIAN_POINT('',(-93.0645567192581,-17.5127935499317,-5.42457644948908));
#658=CARTESIAN_POINT('',(-111.557432517675,-11.71589052147,-8.15446246091276));
#659=CARTESIAN_POINT('',(-101.043155571514,-9.53419469748348,-9.07031338037262));
#660=CARTESIAN_POINT('',(-93.4771060968337,-17.100244172356,-10.4281333203125));
#661=CARTESIAN_POINT('',(-113.376669048478,-11.4684971247005,-12.9121517233629));
#662=CARTESIAN_POINT('',(-102.231428435818,-8.34592183337136,-13.8873761556902));
#663=CARTESIAN_POINT('',(-94.1368268937179,-16.4405233754718,-15.8553139613023));
#664=CARTESIAN_POINT('',(-114.172096045495,-19.7111437317656,-5.99999999999999));
#665=CARTESIAN_POINT('',(-111.490847204222,-19.3121619875233,-5.99999999999999));
#666=CARTESIAN_POINT('',(-107.160782759532,-17.955472190519,-5.99999999999999));
#667=CARTESIAN_POINT('',(-101.752023683333,-14.4577875594254,-5.99999999999999));
#668=CARTESIAN_POINT('',(-98.0633721016431,-10.4329809311453,-5.99999999999999));
#669=CARTESIAN_POINT('',(-95.4360735930165,-5.1551465926496,-6.));
#670=CARTESIAN_POINT('',(-94.6713546709603,0.342675900583274,-5.99999999999999));
#671=CARTESIAN_POINT('',(-95.7275683286917,5.77195505027881,-5.99999999999999));
#672=CARTESIAN_POINT('',(-98.2767682347307,10.8157243833187,-5.99999999999999));
#673=CARTESIAN_POINT('',(-102.392912695293,15.0534756534634,-5.99999999999999));
#674=CARTESIAN_POINT('',(-107.441125050188,17.9437514506705,-5.99999999999999));
#675=CARTESIAN_POINT('',(-111.334461774201,19.2052728620199,-5.99999999999999));
#676=CARTESIAN_POINT('',(-113.528074394957,19.615310447848,-5.99999999999999));
#677=CARTESIAN_POINT('',(-114.172096045495,19.7111437317656,-5.99999999999999));
#678=CARTESIAN_POINT('',(-114.366794276903,-18.4027269560777,-5.99999999999999));
#679=CARTESIAN_POINT('',(-111.80861040458,-18.1002548470775,-5.99999999999999));
#680=CARTESIAN_POINT('',(-107.644595590472,-16.9195411324674,-5.99999999999925));
#681=CARTESIAN_POINT('',(-102.406527372757,-13.6945257231839,-6.00000000000182));
#682=CARTESIAN_POINT('',(-98.8186815286628,-9.91294573013746,-5.99999999999767));
#683=CARTESIAN_POINT('',(-96.2569845206008,-4.90871891653312,-6.00000000000037));
#684=CARTESIAN_POINT('',(-95.5102731644482,0.326804527370236,-5.99999999999993));
#685=CARTESIAN_POINT('',(-96.5413223089555,5.49379256248239,-5.99999999999996));
#686=CARTESIAN_POINT('',(-99.0267038843389,10.2754022837139,-6.00000000000022));
#687=CARTESIAN_POINT('',(-103.029558739023,14.2520936377202,-5.99999999999892));
#688=CARTESIAN_POINT('',(-107.912841188607,16.8995795644678,-6.00000000000574));
#689=CARTESIAN_POINT('',(-111.655489590146,18.0014760508787,-5.99999999999826));
#690=CARTESIAN_POINT('',(-113.752332174572,18.3300747710704,-6.00000000000084));
#691=CARTESIAN_POINT('',(-114.366794276903,18.4027269560776,-5.99999999999999));
#692=CARTESIAN_POINT('',(-114.561492508311,-17.0943101803897,-5.99999999999999));
#693=CARTESIAN_POINT('',(-112.126373604937,-16.8883477066316,-5.99999999999999));
#694=CARTESIAN_POINT('',(-108.128408421412,-15.8836100744188,-5.99999999999999));
#695=CARTESIAN_POINT('',(-103.06103106218,-12.9312638869351,-5.99999999999999));
#696=CARTESIAN_POINT('',(-99.5739909556825,-9.39291052913889,-5.99999999999999));
#697=CARTESIAN_POINT('',(-97.077895448185,-4.66229124041505,-5.99999999999998));
#698=CARTESIAN_POINT('',(-96.3491916579362,0.310933154156801,-6.00000000000001));
#699=CARTESIAN_POINT('',(-97.3550762892192,5.2156300746862,-5.99999999999996));
#700=CARTESIAN_POINT('',(-99.776639533947,9.73508018410839,-6.00000000000013));
#701=CARTESIAN_POINT('',(-103.666204782754,13.45071162198,-5.99999999999936));
#702=CARTESIAN_POINT('',(-108.384557327027,15.8554076782493,-6.00000000000335));
#703=CARTESIAN_POINT('',(-111.976517406091,16.7976792397414,-5.9999999999993));
#704=CARTESIAN_POINT('',(-113.976589954186,17.0448390942929,-5.99999999999971));
#705=CARTESIAN_POINT('',(-114.561492508311,17.0943101803896,-5.99999999999999));
#706=CARTESIAN_POINT('',(-114.96381002309,-14.3906441959453,-6.37758788508183));
#707=CARTESIAN_POINT('',(-112.786570088205,-14.3600347178608,-6.35465247673191));
#708=CARTESIAN_POINT('',(-109.149192976751,-13.6872379608803,-6.31761469106392));
#709=CARTESIAN_POINT('',(-104.47272610742,-11.2801338372607,-6.2712536994333));
#710=CARTESIAN_POINT('',(-101.228782419336,-8.25057808023644,-6.23963291985979));
#711=CARTESIAN_POINT('',(-98.8980433010635,-4.11399400864191,-6.21715131632939));
#712=CARTESIAN_POINT('',(-98.2162589430639,0.275252133331083,-6.21062106121452));
#713=CARTESIAN_POINT('',(-99.1570097795447,4.5983073599409,-6.21964401600311));
#714=CARTESIAN_POINT('',(-101.417995917847,8.54896140738113,-6.2414604165222));
#715=CARTESIAN_POINT('',(-105.035226176776,11.7208257682628,-6.27674960878515));
#716=CARTESIAN_POINT('',(-109.379906086449,13.64523079053,-6.32000991411235));
#717=CARTESIAN_POINT('',(-112.645051185782,14.2855244833464,-6.35331775640297));
#718=CARTESIAN_POINT('',(-114.440848619916,14.3832919628048,-6.37207892249529));
#719=CARTESIAN_POINT('',(-114.96381002309,14.3906441959453,-6.37758788508183));
#720=CARTESIAN_POINT('',(-115.224432713876,-12.6391999312331,-7.92352045363214));
#721=CARTESIAN_POINT('',(-113.224672848858,-12.6521251802403,-7.80276188907367));
#722=CARTESIAN_POINT('',(-109.869457812538,-12.1128455488049,-7.60878529226959));
#723=CARTESIAN_POINT('',(-105.5365219175,-10.026482558232,-7.36749941558934));
#724=CARTESIAN_POINT('',(-102.521208896638,-7.35395224228105,-7.20335313733231));
#725=CARTESIAN_POINT('',(-100.349507947133,-3.67439953778791,-7.08654517550845));
#726=CARTESIAN_POINT('',(-99.7132013875234,0.246213273328684,-7.05255073824977));
#727=CARTESIAN_POINT('',(-100.590923848056,4.10535127856824,-7.09950441083735));
#728=CARTESIAN_POINT('',(-102.697422380407,7.61906784883671,-7.21283994784743));
#729=CARTESIAN_POINT('',(-106.05909193075,10.4138400341571,-7.3960262663948));
#730=CARTESIAN_POINT('',(-110.081477793711,12.0706276029027,-7.62137976396639));
#731=CARTESIAN_POINT('',(-113.092998985477,12.5875973603864,-7.7958459955728));
#732=CARTESIAN_POINT('',(-114.744101075465,12.6423045070126,-7.89451489142948));
#733=CARTESIAN_POINT('',(-115.224432713875,12.6391999312331,-7.92352045363213));
#734=CARTESIAN_POINT('',(-115.319688189418,-11.9990612855232,-10.8128801558347));
#735=CARTESIAN_POINT('',(-113.404547709626,-11.8951610819085,-10.5009125992887));
#736=CARTESIAN_POINT('',(-110.246194863624,-11.2435865041403,-9.99397308767007));
#737=CARTESIAN_POINT('',(-106.219668488515,-9.20455439732995,-9.35799440861177));
#738=CARTESIAN_POINT('',(-103.433971830349,-6.71263279656318,-8.92306646974497));
#739=CARTESIAN_POINT('',(-101.429476104557,-3.34300234571713,-8.61283684537144));
#740=CARTESIAN_POINT('',(-100.841968111232,0.223528635132865,-8.52248579822688));
#741=CARTESIAN_POINT('',(-101.65233660905,3.73731683860496,-8.6472624311164));
#742=CARTESIAN_POINT('',(-103.596480495016,6.95597418565658,-8.94826161947878));
#743=CARTESIAN_POINT('',(-106.702566004828,9.56868469381641,-9.43353450094016));
#744=CARTESIAN_POINT('',(-110.447442244508,11.2184441860421,-10.0266947381524));
#745=CARTESIAN_POINT('',(-113.285020189224,11.8325151965418,-10.4823256390243));
#746=CARTESIAN_POINT('',(-114.859681675368,11.9741050115677,-10.7379472150381));
#747=CARTESIAN_POINT('',(-115.319688189418,11.9990612855232,-10.8128801558347));
#748=CARTESIAN_POINT('',(-115.329947871215,-11.9301138704415,-12.0920963757299));
#749=CARTESIAN_POINT('',(-113.432747694041,-11.754316644246,-11.7020344756569));
#750=CARTESIAN_POINT('',(-110.337988304611,-11.0155033288891,-11.0689818238677));
#751=CARTESIAN_POINT('',(-106.433211890944,-8.94188080166428,-10.2751836787711));
#752=CARTESIAN_POINT('',(-103.750655477151,-6.48672227047457,-9.73261553741816));
#753=CARTESIAN_POINT('',(-101.829667671334,-3.21801613667996,-9.34583987335776));
#754=CARTESIAN_POINT('',(-101.268488007153,0.214552470076647,-9.23324899683102));
#755=CARTESIAN_POINT('',(-102.043032636353,3.60027120323793,-9.38875332552058));
#756=CARTESIAN_POINT('',(-103.9065219908,6.72326973550126,-9.76403240295286));
#757=CARTESIAN_POINT('',(-106.898732458005,9.30300147114353,-10.3694316038772));
#758=CARTESIAN_POINT('',(-110.536771509036,10.9999383012748,-11.1098602776409));
#759=CARTESIAN_POINT('',(-113.318397384592,11.6907451740026,-11.6789016194194));
#760=CARTESIAN_POINT('',(-114.874250522017,11.8878883156799,-11.9984055907377));
#761=CARTESIAN_POINT('',(-115.329947871215,11.9301138704415,-12.0920963757299));
#762=CARTESIAN_POINT('',(-115.345338362443,-11.8266862390591,-13.3226282324854));
#763=CARTESIAN_POINT('',(-113.468464173536,-11.5872971925105,-12.8582223104095));
#764=CARTESIAN_POINT('',(-110.437419062276,-10.7732833143149,-12.1082331485787));
#765=CARTESIAN_POINT('',(-106.651287708923,-8.67467253564788,-11.1714085959858));
#766=CARTESIAN_POINT('',(-104.069231601755,-6.259788558696,-10.5325154009063));
#767=CARTESIAN_POINT('',(-102.230122645707,-3.09308795558816,-10.0774539505398));
#768=CARTESIAN_POINT('',(-101.694819400269,0.205605540349593,-9.94500074789003));
#769=CARTESIAN_POINT('',(-102.434168960681,3.46317303016737,-10.1279423197736));
#770=CARTESIAN_POINT('',(-104.218608894908,6.48943462999059,-10.5694766953648));
#771=CARTESIAN_POINT('',(-107.099910017304,9.0320853920797,-11.2824138290626));
#772=CARTESIAN_POINT('',(-110.633658665714,10.766250870392,-12.1567898576751));
#773=CARTESIAN_POINT('',(-113.358994372543,11.5231637172146,-12.8311355593667));
#774=CARTESIAN_POINT('',(-114.894523207062,11.7691862687073,-13.2110804104941));
#775=CARTESIAN_POINT('',(-115.345338362443,11.8266862390591,-13.3226282324854));
#776=CARTESIAN_POINT('',(-110.,0.,6.55918434910789));
#777=MECHANICAL_DESIGN_GEOMETRIC_PRESENTATION_REPRESENTATION('',(#32),#778);
#778=(
GEOMETRIC_REPRESENTATION_CONTEXT(3)
GLOBAL_UNCERTAINTY_ASSIGNED_CONTEXT((#779))
GLOBAL_UNIT_ASSIGNED_CONTEXT((#785,#781,#780))
REPRESENTATION_CONTEXT('Pootjes_1','TOP_LEVEL_ASSEMBLY_PART')
);
#779=UNCERTAINTY_MEASURE_WITH_UNIT(LENGTH_MEASURE(0.0508),#785,
'DISTANCE_ACCURACY_VALUE','Maximum Tolerance applied to model');
#780=(
NAMED_UNIT(*)
SI_UNIT($,.STERADIAN.)
SOLID_ANGLE_UNIT()
);
#781=(
CONVERSION_BASED_UNIT('DEGREE',#783)
NAMED_UNIT(#782)
PLANE_ANGLE_UNIT()
);
#782=DIMENSIONAL_EXPONENTS(0.,0.,0.,0.,0.,0.,0.);
#783=PLANE_ANGLE_MEASURE_WITH_UNIT(PLANE_ANGLE_MEASURE(0.0174532925),#784);
#784=(
NAMED_UNIT(*)
PLANE_ANGLE_UNIT()
SI_UNIT($,.RADIAN.)
);
#785=(
LENGTH_UNIT()
NAMED_UNIT(*)
SI_UNIT(.MILLI.,.METRE.)
);
ENDSEC;
END-ISO-10303-21;
