ISO-10303-21;
HEADER;
/* Generated by software containing ST-Developer
 * from STEP Tools, Inc. (www.steptools.com) 
 */
/* OPTION: using custom schema-name function */

FILE_DESCRIPTION(
/* description */ (''),
/* implementation_level */ '2;1');

FILE_NAME(
/* name */ 'Pootjes_Prototype_1.stp',
/* time_stamp */ '2026-04-08T20:24:45+02:00',
/* author */ (''),
/* organization */ (''),
/* preprocessor_version */ 'ST-DEVELOPER v20',
/* originating_system */ 'SIEMENS PLM Software NX2506.4001',
/* authorisation */ '');

FILE_SCHEMA (('AUTOMOTIVE_DESIGN { 1 0 10303 214 3 1 1 1 }'));
ENDSEC;

DATA;
#10=SHAPE_REPRESENTATION_RELATIONSHIP('None',
'relationship between Pootjes_Prototype-None and Pootjes_Prototype-Non
e',#22,#11);
#11=ADVANCED_BREP_SHAPE_REPRESENTATION('Pootjes_Prototype-None',(#32),#207);
#12=SHAPE_DEFINITION_REPRESENTATION(#13,#22);
#13=PRODUCT_DEFINITION_SHAPE('','',#14);
#14=PRODUCT_DEFINITION(' ','',#16,#15);
#15=PRODUCT_DEFINITION_CONTEXT('part definition',#21,'design');
#16=PRODUCT_DEFINITION_FORMATION_WITH_SPECIFIED_SOURCE(' ',' ',#18,
 .NOT_KNOWN.);
#17=PRODUCT_RELATED_PRODUCT_CATEGORY('part','',(#18));
#18=PRODUCT('Pootjes_Prototype','Pootjes_Prototype',' ',(#19));
#19=PRODUCT_CONTEXT(' ',#21,'mechanical');
#20=APPLICATION_PROTOCOL_DEFINITION('international standard',
'automotive_design',2010,#21);
#21=APPLICATION_CONTEXT(
'core data for automotive mechanical design processes');
#22=SHAPE_REPRESENTATION('Pootjes_Prototype-None',(#105),#207);
#23=PRESENTATION_LAYER_ASSIGNMENT('1','Layer 1',(#32));
#24=STYLED_ITEM('',(#25),#32);
#25=PRESENTATION_STYLE_ASSIGNMENT((#26));
#26=SURFACE_STYLE_USAGE(.BOTH.,#27);
#27=SURFACE_SIDE_STYLE('',(#28));
#28=SURFACE_STYLE_FILL_AREA(#29);
#29=FILL_AREA_STYLE('',(#30));
#30=FILL_AREA_STYLE_COLOUR('',#31);
#31=COLOUR_RGB('medium steel',0.596078431372549,0.666666666666667,0.686274509803922);
#32=MANIFOLD_SOLID_BREP('',#33);
#33=CLOSED_SHELL('',(#43,#44,#45,#46,#47,#48));
#34=CONICAL_SURFACE('',#114,2.15,44.9999999999999);
#35=CYLINDRICAL_SURFACE('',#109,2.15);
#36=CYLINDRICAL_SURFACE('',#111,4.5);
#37=PLANE('',#107);
#38=PLANE('',#113);
#39=CIRCLE('',#106,2.15);
#40=CIRCLE('',#108,2.15);
#41=CIRCLE('',#110,4.5);
#42=CIRCLE('',#112,4.15);
#43=ADVANCED_FACE('',(#52,#53,#54),#49,.T.);
#44=ADVANCED_FACE('',(#55,#56),#37,.T.);
#45=ADVANCED_FACE('',(#57,#58),#35,.F.);
#46=ADVANCED_FACE('',(#59,#60),#36,.F.);
#47=ADVANCED_FACE('',(#61,#62),#38,.F.);
#48=ADVANCED_FACE('',(#63,#64),#34,.F.);
#49=SURFACE_OF_REVOLUTION('',#104,#50);
#50=AXIS1_PLACEMENT('',#192,#117);
#51=VERTEX_LOOP('',#90);
#52=FACE_BOUND('',#65,.T.);
#53=FACE_BOUND('',#51,.T.);
#54=FACE_BOUND('',#66,.T.);
#55=FACE_BOUND('',#67,.T.);
#56=FACE_BOUND('',#68,.T.);
#57=FACE_BOUND('',#69,.T.);
#58=FACE_BOUND('',#70,.T.);
#59=FACE_BOUND('',#71,.T.);
#60=FACE_BOUND('',#72,.T.);
#61=FACE_BOUND('',#73,.T.);
#62=FACE_BOUND('',#74,.T.);
#63=FACE_BOUND('',#75,.T.);
#64=FACE_BOUND('',#76,.T.);
#65=EDGE_LOOP('',(#77));
#66=EDGE_LOOP('',(#78));
#67=EDGE_LOOP('',(#79));
#68=EDGE_LOOP('',(#80));
#69=EDGE_LOOP('',(#81));
#70=EDGE_LOOP('',(#82));
#71=EDGE_LOOP('',(#83));
#72=EDGE_LOOP('',(#84));
#73=EDGE_LOOP('',(#85));
#74=EDGE_LOOP('',(#86));
#75=EDGE_LOOP('',(#87));
#76=EDGE_LOOP('',(#88));
#77=ORIENTED_EDGE('',*,*,#96,.T.);
#78=ORIENTED_EDGE('',*,*,#97,.F.);
#79=ORIENTED_EDGE('',*,*,#98,.T.);
#80=ORIENTED_EDGE('',*,*,#97,.T.);
#81=ORIENTED_EDGE('',*,*,#99,.T.);
#82=ORIENTED_EDGE('',*,*,#98,.F.);
#83=ORIENTED_EDGE('',*,*,#100,.F.);
#84=ORIENTED_EDGE('',*,*,#96,.F.);
#85=ORIENTED_EDGE('',*,*,#101,.T.);
#86=ORIENTED_EDGE('',*,*,#100,.T.);
#87=ORIENTED_EDGE('',*,*,#101,.F.);
#88=ORIENTED_EDGE('',*,*,#99,.F.);
#89=VERTEX_POINT('',#167);
#90=VERTEX_POINT('',#168);
#91=VERTEX_POINT('',#187);
#92=VERTEX_POINT('',#194);
#93=VERTEX_POINT('',#197);
#94=VERTEX_POINT('',#200);
#95=VERTEX_POINT('',#203);
#96=EDGE_CURVE('',#89,#89,#102,.T.);
#97=EDGE_CURVE('',#91,#91,#103,.T.);
#98=EDGE_CURVE('',#92,#92,#39,.T.);
#99=EDGE_CURVE('',#93,#93,#40,.T.);
#100=EDGE_CURVE('',#94,#94,#41,.T.);
#101=EDGE_CURVE('',#95,#95,#42,.T.);
#102=B_SPLINE_CURVE_WITH_KNOTS('',3,(#137,#138,#139,#140,#141,#142,#143,
#144,#145,#146,#147,#148,#149,#150,#151,#152,#153,#154,#155,#156,#157,#158,
#159,#160,#161,#162,#163,#164,#165,#166),.UNSPECIFIED.,.T.,.F.,(2,2,2,2,
2,2,2,2,2,2,2,2,2,2,2,2,2),(-0.0624999999999999,0.,0.0625,0.125,0.25,0.375,
0.4375,0.46875,0.5,0.53125,0.562500000000001,0.625,0.75,0.875,0.9375,1.,
1.0625),.UNSPECIFIED.);
#103=B_SPLINE_CURVE_WITH_KNOTS('',3,(#169,#170,#171,#172,#173,#174,#175,
#176,#177,#178,#179,#180,#181,#182,#183,#184,#185,#186),.UNSPECIFIED.,.T.,
 .F.,(2,2,2,2,2,2,2,2,2,2,2),(-0.125,0.,0.125,0.25,0.375,0.5,0.625,0.75,
0.875,1.,1.125),.UNSPECIFIED.);
#104=B_SPLINE_CURVE_WITH_KNOTS('',3,(#188,#189,#190,#191),.UNSPECIFIED.,
 .F.,.F.,(4,4),(0.,1.),.UNSPECIFIED.);
#105=AXIS2_PLACEMENT_3D('',#136,#115,#116);
#106=AXIS2_PLACEMENT_3D('',#193,#118,#119);
#107=AXIS2_PLACEMENT_3D('',#195,#120,#121);
#108=AXIS2_PLACEMENT_3D('',#196,#122,#123);
#109=AXIS2_PLACEMENT_3D('',#198,#124,#125);
#110=AXIS2_PLACEMENT_3D('',#199,#126,#127);
#111=AXIS2_PLACEMENT_3D('',#201,#128,#129);
#112=AXIS2_PLACEMENT_3D('',#202,#130,#131);
#113=AXIS2_PLACEMENT_3D('',#204,#132,#133);
#114=AXIS2_PLACEMENT_3D('',#205,#134,#135);
#115=DIRECTION('',(0.,0.,1.));
#116=DIRECTION('',(1.,0.,0.));
#117=DIRECTION('',(-5.55111512312578E-17,0.,-1.));
#118=DIRECTION('',(-0.342020143325668,0.,-0.939692620785909));
#119=DIRECTION('',(-0.939692620785909,0.,0.342020143325668));
#120=DIRECTION('',(0.342020143325668,0.,0.939692620785909));
#121=DIRECTION('',(0.939692620785909,0.,-0.342020143325668));
#122=DIRECTION('',(-0.342020143325668,0.,-0.939692620785909));
#123=DIRECTION('',(0.939692620785909,0.,-0.342020143325668));
#124=DIRECTION('',(-0.342020143325668,0.,-0.939692620785909));
#125=DIRECTION('',(-0.939692620785909,0.,0.342020143325668));
#126=DIRECTION('',(-0.342020143325668,0.,-0.939692620785909));
#127=DIRECTION('',(0.939692620785909,0.,-0.342020143325668));
#128=DIRECTION('',(0.342020143325668,0.,0.939692620785909));
#129=DIRECTION('',(0.939692620785909,0.,-0.342020143325668));
#130=DIRECTION('',(0.342020143325668,0.,0.939692620785909));
#131=DIRECTION('',(0.939692620785909,0.,-0.342020143325668));
#132=DIRECTION('',(0.342020143325668,0.,0.939692620785909));
#133=DIRECTION('',(0.939692620785909,0.,-0.342020143325668));
#134=DIRECTION('',(-0.342020143325668,0.,-0.939692620785909));
#135=DIRECTION('',(-0.939692620785909,0.,0.342020143325668));
#136=CARTESIAN_POINT('',(0.,0.,0.));
#137=CARTESIAN_POINT('',(-8.36011644701912,0.924478991376238,27.9566188031077));
#138=CARTESIAN_POINT('',(-8.36011644701911,-0.92447899137624,27.9566188031077));
#139=CARTESIAN_POINT('',(-8.14972516760077,-1.81646970288216,27.658844572324));
#140=CARTESIAN_POINT('',(-7.54158713843614,-3.19923952107197,26.6160796086833));
#141=CARTESIAN_POINT('',(-7.17107447625576,-3.67528245962403,25.8940625190473));
#142=CARTESIAN_POINT('',(-6.20269180233321,-4.58847523058725,23.4960298074668));
#143=CARTESIAN_POINT('',(-5.76646639955986,-4.58235518838127,21.6601810515282));
#144=CARTESIAN_POINT('',(-5.25038250076674,-4.21862158637397,18.1054493249818));
#145=CARTESIAN_POINT('',(-5.14134615999426,-3.83528978936118,16.3125297451039));
#146=CARTESIAN_POINT('',(-5.08388571792479,-2.93516939835727,13.7482889817453));
#147=CARTESIAN_POINT('',(-5.08331697143107,-2.57736436299437,12.9002277235417));
#148=CARTESIAN_POINT('',(-5.09792975809259,-1.85447285809303,11.7479480416641));
#149=CARTESIAN_POINT('',(-5.10554861424186,-1.57765788216079,11.3763897489927));
#150=CARTESIAN_POINT('',(-5.12077895781906,-0.90060933965295,10.7675270577849));
#151=CARTESIAN_POINT('',(-5.12846879837276,-0.470899781095248,10.5246363031956));
#152=CARTESIAN_POINT('',(-5.12869415417275,0.448552336313694,10.5173419454914));
#153=CARTESIAN_POINT('',(-5.12111001040431,0.883750855254453,10.755933633882));
#154=CARTESIAN_POINT('',(-5.10582261672721,1.56753679263227,11.3638587846475));
#155=CARTESIAN_POINT('',(-5.09811684070533,1.84682133336784,11.7371857448318));
#156=CARTESIAN_POINT('',(-5.08334633335274,2.5727702319666,12.8900946496394));
#157=CARTESIAN_POINT('',(-5.08377312802617,2.93114154936399,13.7381070110299));
#158=CARTESIAN_POINT('',(-5.14102000193805,3.83467629928465,16.3082156369029));
#159=CARTESIAN_POINT('',(-5.24813365431018,4.2167635693311,18.0890956749416));
#160=CARTESIAN_POINT('',(-5.76809046345193,4.58377253366791,21.6722302276771));
#161=CARTESIAN_POINT('',(-6.20038560326844,4.59128185610248,23.4911717013618));
#162=CARTESIAN_POINT('',(-7.17399985395511,3.67220701071122,25.900879147841));
#163=CARTESIAN_POINT('',(-7.54439759178075,3.19324932336641,26.6209758696885));
#164=CARTESIAN_POINT('',(-8.14788909587655,1.82024372833874,27.6556189437746));
#165=CARTESIAN_POINT('',(-8.36011644701912,0.924478991376238,27.9566188031077));
#166=CARTESIAN_POINT('',(-8.36011644701911,-0.92447899137624,27.9566188031077));
#167=CARTESIAN_POINT('',(-8.36011644701911,1.48583676852797E-15,27.9566188031077));
#168=CARTESIAN_POINT('',(1.82076576038526E-14,0.,2.66453525910127E-15));
#169=CARTESIAN_POINT('',(-9.99999999999884,2.60572954568665,40.0000000000004));
#170=CARTESIAN_POINT('',(-9.99999999999884,-2.60572954568665,40.0000000000004));
#171=CARTESIAN_POINT('',(-8.88243902261188,-5.12544097028994,39.5932410692533));
#172=CARTESIAN_POINT('',(-5.30994756705938,-8.58612972097725,38.2929605172618));
#173=CARTESIAN_POINT('',(-2.8789074765801,-9.54522978786784,37.4081342860196));
#174=CARTESIAN_POINT('',(1.97049834674595,-9.54484456622859,35.6430949124517));
#175=CARTESIAN_POINT('',(4.37870402789381,-8.60531054784596,34.7665797265231));
#176=CARTESIAN_POINT('',(7.98807072227449,-5.11183818419949,33.4528776852167));
#177=CARTESIAN_POINT('',(9.08765005404626,-2.58422891207611,33.0526635382375));
#178=CARTESIAN_POINT('',(9.09249034479295,2.56628868217736,33.0509018164805));
#179=CARTESIAN_POINT('',(7.98767893260792,5.10696524508208,33.4530202849935));
#180=CARTESIAN_POINT('',(4.39972588532834,8.590185746348,34.758928396148));
#181=CARTESIAN_POINT('',(1.97557801860416,9.54521944123967,35.6412460630955));
#182=CARTESIAN_POINT('',(-2.8869347055406,9.54485491944624,37.4110559584248));
#183=CARTESIAN_POINT('',(-5.30652890075885,8.58869837640438,38.2917162244875));
#184=CARTESIAN_POINT('',(-8.8829187530616,5.12571866501363,39.5934156768574));
#185=CARTESIAN_POINT('',(-9.99999999999884,2.60572954568665,40.0000000000004));
#186=CARTESIAN_POINT('',(-9.99999999999884,-2.60572954568665,40.0000000000004));
#187=CARTESIAN_POINT('',(-9.99999999999649,-6.32546830253505E-13,40.0000000000004));
#188=CARTESIAN_POINT('',(-9.99999999999649,0.,40.0000000000004));
#189=CARTESIAN_POINT('',(-6.66666666666432,0.,13.3333333333334));
#190=CARTESIAN_POINT('',(-3.33333333333215,0.,-1.19015908239817E-13));
#191=CARTESIAN_POINT('',(1.82076576038526E-14,0.,2.66453525910127E-15));
#192=CARTESIAN_POINT('',(0.,0.,40.));
#193=CARTESIAN_POINT('',(-0.45266148236399,-1.35525271560688E-16,36.5250529631181));
#194=CARTESIAN_POINT('',(-2.47300061705369,-1.35525271560688E-16,37.2603962712683));
#195=CARTESIAN_POINT('',(10.2345129022496,-11.4,32.6352395987057));
#196=CARTESIAN_POINT('',(-1.47872191234125,-1.35525271560688E-16,33.7059751007597));
#197=CARTESIAN_POINT('',(0.541617222348454,-1.35525271560688E-16,32.9706317926095));
#198=CARTESIAN_POINT('',(-0.45266148236399,-1.35525271560688E-16,36.5250529631181));
#199=CARTESIAN_POINT('',(-2.1627621989926,-7.07441917546792E-15,31.8265898591879));
#200=CARTESIAN_POINT('',(2.06585459454399,-7.07441917546792E-15,30.2874992142223));
#201=CARTESIAN_POINT('',(-14.9885175737052,-7.07441917546792E-15,-3.41188342028371));
#202=CARTESIAN_POINT('',(-2.16276219899259,-1.35525271560688E-16,31.8265898591878));
#203=CARTESIAN_POINT('',(1.73696217726893,-1.35525271560688E-16,30.4072062643863));
#204=CARTESIAN_POINT('',(-2.1627621989926,-7.07441917546792E-15,31.8265898591879));
#205=CARTESIAN_POINT('',(-1.47872191234125,-1.35525271560688E-16,33.7059751007597));
#206=MECHANICAL_DESIGN_GEOMETRIC_PRESENTATION_REPRESENTATION('',(#24),#207);
#207=(
GEOMETRIC_REPRESENTATION_CONTEXT(3)
GLOBAL_UNCERTAINTY_ASSIGNED_CONTEXT((#208))
GLOBAL_UNIT_ASSIGNED_CONTEXT((#214,#210,#209))
REPRESENTATION_CONTEXT('Pootjes_Prototype_1','TOP_LEVEL_ASSEMBLY_PART')
);
#208=UNCERTAINTY_MEASURE_WITH_UNIT(LENGTH_MEASURE(0.0508),#214,
'DISTANCE_ACCURACY_VALUE','Maximum Tolerance applied to model');
#209=(
NAMED_UNIT(*)
SI_UNIT($,.STERADIAN.)
SOLID_ANGLE_UNIT()
);
#210=(
CONVERSION_BASED_UNIT('DEGREE',#212)
NAMED_UNIT(#211)
PLANE_ANGLE_UNIT()
);
#211=DIMENSIONAL_EXPONENTS(0.,0.,0.,0.,0.,0.,0.);
#212=PLANE_ANGLE_MEASURE_WITH_UNIT(PLANE_ANGLE_MEASURE(0.0174532925),#213);
#213=(
NAMED_UNIT(*)
PLANE_ANGLE_UNIT()
SI_UNIT($,.RADIAN.)
);
#214=(
LENGTH_UNIT()
NAMED_UNIT(*)
SI_UNIT(.MILLI.,.METRE.)
);
ENDSEC;
END-ISO-10303-21;
